<svg width="24" height="21" viewBox="0 0 24 21" fill="none" xmlns="http://www.w3.org/2000/svg">
<path d="M23.387 7.09609C23.387 10.5506 18.2889 13.3512 12.0016 13.3512C5.71246 13.3512 0.614746 10.5506 0.614746 7.09609C0.614746 3.64043 5.71246 0.839844 12.0016 0.839844C18.2889 0.839844 23.387 3.64043 23.387 7.09609Z" fill="#A69060"/>
<path d="M16.9223 18.1828C16.9223 19.7387 14.8498 21.0002 12.2928 21.0002C9.73463 21.0002 7.66211 19.7387 7.66211 18.1828C7.66211 16.6254 9.73463 15.3643 12.2928 15.3643C14.8498 15.3643 16.9223 16.6254 16.9223 18.1828Z" fill="#1A1919"/>
<path d="M12.0016 1.13797C18.1165 1.13797 23.0913 3.81093 23.0913 7.09581H23.0819C23.0819 10.3752 18.1119 13.0435 12.0016 13.0435C5.89059 13.0435 0.919909 10.3752 0.919909 7.09581H0.911175C0.911175 3.81093 5.88608 1.13797 12.0016 1.13797ZM23.6835 7.09581C23.6835 3.48146 18.4425 0.541016 12.0016 0.541016C5.55926 0.541016 0.319033 3.48146 0.319033 7.09581H0.30957C0.30957 13.7629 5.55436 19.1879 12.0016 19.1879C18.4474 19.1879 23.6922 13.7629 23.6922 7.09581H23.6835Z" fill="#CF7D36"/>
<path d="M1.22999 6.87005V7.09654C1.22999 8.56175 2.32557 9.95676 4.31502 11.0246C6.36638 12.1257 9.09631 12.732 12.0019 12.732C14.9071 12.732 17.6367 12.1257 19.6877 11.0246C21.6769 9.95676 22.7723 8.56175 22.7723 7.09654V6.86046C22.6613 5.47939 21.5782 4.1737 19.6941 3.16148C17.6411 2.05856 14.9093 1.45114 12.0019 1.45114C9.09413 1.45114 6.36211 2.05856 4.30905 3.16148C2.42054 4.17605 1.33675 5.48545 1.22999 6.87005ZM0.623586 7.40888C0.78391 13.7607 5.82645 18.8763 12.0019 18.8763C18.1765 18.8763 23.2185 13.7607 23.3787 7.40888C23.2401 8.99693 22.045 10.4668 19.979 11.5759C17.8398 12.7243 15.0069 13.3567 12.0019 13.3567C8.99659 13.3567 6.16321 12.7243 4.02383 11.5759C1.95752 10.4668 0.762268 8.99693 0.623586 7.40888ZM12.0019 19.5009C5.38401 19.5009 0 13.9363 0 7.09654V6.78419H0.0214485C0.155278 5.03633 1.41191 3.41532 3.59409 2.19093C5.84834 0.926093 8.83433 0.229492 12.0019 0.229492C15.1689 0.229492 18.1545 0.926093 20.4088 2.19093C22.5911 3.41536 23.8477 5.03643 23.9816 6.78419H24.0023V7.09654C24.0023 13.9363 18.6189 19.5009 12.0019 19.5009Z" fill="#321313"/>
<mask id="path-5-inside-1_850_6551" fill="white">
<path d="M10.5585 3.46153C10.8483 3.54009 11.1327 3.63783 11.3997 3.75822C11.4722 3.72588 11.5458 3.69463 11.6201 3.66449C11.646 3.62174 11.6707 3.58025 11.6948 3.53975C11.7168 3.50282 11.7384 3.46706 11.7598 3.43247C11.7413 3.42259 11.7226 3.41295 11.7037 3.40332C11.5214 3.40449 11.3463 3.41031 11.1794 3.42049C11.0135 3.43056 10.8025 3.44348 10.5585 3.46153ZM7.43687 3.00081C5.98129 3.21429 4.77099 3.71889 4.38207 4.34099C4.37266 4.35605 4.36344 4.37107 4.35451 4.38589C5.11052 3.9332 5.95916 3.59591 6.65791 3.39519C6.7865 3.35537 6.91742 3.3179 7.05032 3.28258C7.1777 3.18127 7.30774 3.08715 7.43687 3.00081ZM12.3629 4.38355C12.3752 4.39524 12.3873 4.40688 12.3993 4.41882C12.4102 4.41045 12.4212 4.40218 12.4322 4.39401C12.4308 4.38927 12.4294 4.38457 12.428 4.37988C12.406 4.3811 12.3844 4.38227 12.3629 4.38355ZM7.35103 3.94905C7.1498 4.12359 6.97099 4.3112 6.83119 4.50408C8.03221 4.25215 9.35906 4.20715 10.1955 4.46994C10.2917 4.39475 10.3928 4.32181 10.4983 4.25137C10.518 4.23244 10.5381 4.21419 10.5584 4.19643C9.58222 3.89803 8.43632 3.84055 7.73825 3.8926C7.62757 3.90082 7.49684 3.9199 7.35103 3.94905ZM13.3147 4.70577C13.3145 4.71179 13.3143 4.7179 13.3141 4.72392C13.5547 4.67588 13.7977 4.63347 14.0424 4.60065L14.045 4.6003C14.0185 4.59942 13.9914 4.59869 13.9639 4.59815C13.7302 4.5938 13.5125 4.63332 13.3147 4.70577ZM18.2145 4.83071C18.2901 4.83071 18.3716 4.83228 18.4598 4.83404C18.5732 4.83629 18.7017 4.83878 18.8489 4.83908L18.9683 4.83917C19.1589 4.83932 19.3584 4.83942 19.5622 4.84524C19.2708 4.57589 18.9027 4.36921 18.5268 4.2589C18.3622 4.21067 17.9261 4.18484 17.3992 4.2252C17.6629 4.41285 17.9 4.61547 18.1091 4.83198C18.143 4.83105 18.1781 4.83071 18.2145 4.83071ZM6.08809 4.35801C5.61095 4.57032 5.20703 4.83174 4.93598 5.15426L4.92671 5.16522C5.20626 5.0075 5.54311 4.86652 5.91326 4.74628C5.95853 4.61263 6.01773 4.48314 6.08809 4.35801ZM17.3531 5.16125C17.3603 5.16551 17.3675 5.16981 17.3746 5.17417C17.3847 5.15807 17.3953 5.14252 17.4062 5.12755C17.3788 5.10265 17.3508 5.07799 17.3226 5.05378C17.3343 5.09018 17.3444 5.12598 17.3531 5.16125ZM11.3187 5.16106L11.3191 5.16145C11.3269 5.168 11.3345 5.17451 11.3422 5.18097C11.4962 5.14653 11.6493 5.11057 11.8014 5.07408C11.8339 5.02198 11.8684 4.9712 11.9048 4.9219C11.8475 4.8651 11.7858 4.81124 11.72 4.75997C11.5974 4.91089 11.4632 5.04385 11.3187 5.16106ZM6.81367 5.23321L6.82333 5.23375C7.71123 5.27988 8.66332 5.32924 9.48998 5.18395C9.51308 5.15299 9.53671 5.12202 9.56092 5.0913C9.57043 5.07912 9.58019 5.06694 9.58999 5.05486C8.83359 4.93677 7.76179 5.01983 6.81367 5.23321ZM13.4595 5.41612C13.4927 5.50261 13.529 5.58597 13.5697 5.66541C13.9628 5.58381 14.3489 5.51596 14.7147 5.4576C14.8003 5.44386 14.8843 5.43124 14.9669 5.41969C14.9227 5.36906 14.8857 5.3151 14.8561 5.25846C14.6091 5.25625 14.3667 5.27098 14.1352 5.30214C13.9078 5.33266 13.6835 5.37151 13.4595 5.41612ZM12.2539 5.73796C12.2834 5.74637 12.3136 5.75405 12.3448 5.76109C12.3411 5.73345 12.3362 5.70449 12.3297 5.67402C12.3165 5.67715 12.3032 5.68038 12.29 5.68361C12.2846 5.68488 12.2793 5.68625 12.274 5.68752C12.2669 5.7043 12.2602 5.72113 12.2539 5.73796ZM5.65729 5.90076C5.6669 5.90413 5.67641 5.90741 5.68602 5.91074C5.69456 5.90736 5.703 5.90408 5.71154 5.90071C5.69334 5.90071 5.67529 5.90071 5.65729 5.90076ZM10.688 6.03215C10.6952 6.21623 10.6992 6.40971 10.6799 6.60582C10.9297 6.47863 11.1926 6.36392 11.4632 6.26036C11.4622 6.22509 11.4622 6.18977 11.4633 6.15415C11.3547 6.08792 11.2547 6.01655 11.1603 5.94366C11.0043 5.97565 10.8469 6.00544 10.688 6.03215ZM7.07983 6.29935C7.59472 6.57818 8.3386 6.67465 8.80118 6.71481C8.83349 6.53523 8.88182 6.35624 8.94607 6.17896C8.93612 6.17925 8.92617 6.17954 8.91623 6.17979C8.35306 6.19657 7.69497 6.21623 7.07983 6.29935ZM4.55521 6.56678C4.56219 6.60098 4.57001 6.63395 4.57835 6.66555C4.58345 6.68473 4.58883 6.70371 4.59451 6.72274C4.6541 6.63302 4.72106 6.55 4.79531 6.47447C4.82583 6.44346 4.85737 6.41347 4.88983 6.38446C4.82136 6.35976 4.75294 6.33432 4.6853 6.30771C4.6327 6.38945 4.58932 6.47575 4.55521 6.56678ZM9.51395 6.75972C9.66316 6.76588 9.805 6.76945 9.93912 6.77068C9.9939 6.57456 9.99648 6.3558 9.989 6.12588C9.92796 6.13175 9.86662 6.13703 9.80509 6.14163C9.7786 6.14359 9.75162 6.1455 9.72426 6.14726C9.62759 6.34895 9.55748 6.55392 9.51395 6.75972ZM18.9155 6.02281C19.0493 6.06116 19.1699 6.10856 19.2733 6.16604C19.6299 6.36446 19.8244 6.61516 19.936 6.87115C20.043 6.66672 20.1178 6.45451 20.1486 6.23238C20.1796 6.00887 20.1506 5.79089 20.0756 5.58553C19.7089 5.54737 19.329 5.54712 18.9679 5.54693L18.8476 5.54678C18.7832 5.54668 18.7227 5.54615 18.6655 5.54541C18.7227 5.63841 18.7756 5.73336 18.8241 5.83007C18.8565 5.89469 18.887 5.95902 18.9155 6.02281ZM17.7338 6.63664C17.7258 6.79254 17.7288 6.9459 17.7319 7.10371C17.7321 7.11227 17.7322 7.12088 17.7324 7.12945C17.7412 7.12886 17.7504 7.12822 17.7592 7.12764C17.7833 6.95402 17.7748 6.79015 17.7338 6.63664ZM12.8151 6.64632C13.1862 6.77131 13.4819 6.99414 13.6751 7.29802C13.7878 7.18477 13.8917 7.08018 13.9862 6.98342C13.7665 6.88622 13.5681 6.75879 13.3995 6.60381C13.2081 6.59178 13.0281 6.57525 12.8661 6.55685C12.8519 6.5798 12.8373 6.60152 12.8225 6.62216C12.82 6.63023 12.8175 6.6382 12.8151 6.64632ZM3.34889 6.18786C3.30741 6.25189 3.27014 6.31681 3.23758 6.38256C3.08157 6.6971 3.05595 7.00275 3.1613 7.30893C3.33312 7.20576 3.53727 7.13277 3.75781 7.0839C3.75975 6.87233 3.78755 6.67983 3.83472 6.5051C3.81584 6.34352 3.81385 6.18287 3.82851 6.02457C3.64911 6.06444 3.48864 6.11742 3.34889 6.18786ZM19.2209 7.2854C19.2662 7.30169 19.3102 7.3192 19.3528 7.33794C19.3245 7.20996 19.2811 7.09877 19.2004 6.99917C19.2125 7.09584 19.2193 7.19123 19.2209 7.2854ZM15.1774 7.20586C15.0667 7.29543 14.9471 7.41014 14.8255 7.5432C14.8863 7.53655 14.947 7.5297 15.0076 7.5229C15.4129 7.47735 15.7959 7.43435 16.153 7.44609C16.1641 7.44644 16.1751 7.44737 16.186 7.44874C16.4533 7.35393 16.7399 7.27703 17.0319 7.22117C17.0314 7.18722 17.0307 7.15273 17.03 7.11761C17.0271 6.96919 17.024 6.81152 17.0309 6.64432C16.9465 6.65361 16.8621 6.66428 16.7787 6.67617C16.486 6.90315 16.1041 7.0705 15.6672 7.15273C15.5027 7.1837 15.3387 7.20116 15.1774 7.20586ZM5.23421 7.03953C5.62924 7.08576 5.96857 7.16775 6.16029 7.24964C6.29844 7.30859 6.6024 7.43832 6.82109 7.64695C6.82998 7.63287 6.8391 7.61858 6.84827 7.60454C6.86263 7.58258 6.87729 7.56105 6.89209 7.53982C6.75719 7.3193 6.46376 7.07153 6.03656 6.82395C5.94528 6.77102 5.83508 6.72176 5.71305 6.67372C5.55049 6.75742 5.40851 6.85619 5.29389 6.97271C5.27308 6.99384 5.25323 7.01615 5.23421 7.03953ZM8.80525 7.82066C8.80584 7.88626 8.80535 7.95157 8.80346 8.01634C8.81685 8.00944 8.83034 8.00235 8.84364 7.99521C8.82913 7.93719 8.81632 7.87898 8.80525 7.82066ZM3.56133 7.89072C3.66435 7.97217 3.78648 8.04413 3.92507 8.10562C3.89105 7.9977 3.86277 7.89331 3.83962 7.79215C3.73267 7.81832 3.63829 7.85095 3.56133 7.89072ZM5.30413 7.75634C5.51186 7.92604 5.7522 8.06408 6.01438 8.15938C6.06727 8.1786 6.12109 8.19656 6.17553 8.21324C6.23793 8.19073 6.28743 8.16799 6.32338 8.1471C6.26268 8.09451 6.13715 8.00827 5.88662 7.90128C5.73837 7.83803 5.53351 7.78882 5.30413 7.75634ZM12.7062 8.07626C12.7227 8.12685 12.7422 8.17709 12.765 8.22698C12.7934 8.19704 12.8217 8.1673 12.8499 8.13776C12.8014 8.11907 12.7534 8.09862 12.7062 8.07626ZM9.68781 8.27757C9.6915 8.28559 9.69533 8.29376 9.69912 8.30178C9.70654 8.29439 9.71397 8.28705 9.72139 8.27981C9.71586 8.27448 9.71052 8.26891 9.70533 8.26328C9.69956 8.26803 9.69363 8.27287 9.68781 8.27757ZM18.4251 7.83754C18.367 8.0092 18.2833 8.17518 18.1759 8.33343C18.2251 8.26705 18.2698 8.19846 18.3094 8.12782C18.3619 8.03405 18.4046 7.93768 18.4374 7.83872L18.4251 7.83754ZM7.67692 7.70815C7.68439 7.80609 7.67794 7.90451 7.65761 8.00357C7.63164 8.13017 7.58234 8.24997 7.51329 8.36303C7.70419 8.34996 7.89392 8.32223 8.07889 8.27933C8.11068 8.05459 8.10612 7.79254 8.09175 7.47153C7.92541 7.51624 7.78644 7.6087 7.67692 7.70815ZM20.2936 8.23628C20.298 8.24112 20.3024 8.24587 20.307 8.25056C20.5042 8.45377 20.7286 8.52382 20.974 8.459C21.3715 8.35393 21.7557 7.91733 21.8876 7.4209C21.9599 7.14872 22.0144 6.62549 21.5664 6.17866C21.3615 5.97457 21.1135 5.83653 20.8407 5.74304C20.8694 5.93197 20.8719 6.12837 20.8438 6.33046C20.7652 6.89728 20.4901 7.39194 20.1317 7.83823C20.1436 7.91009 20.1579 7.97417 20.1775 8.03199C20.2237 8.0994 20.2624 8.16755 20.2936 8.23628ZM16.5859 8.05591C16.6226 8.22067 16.6377 8.37159 16.636 8.50934L16.6399 8.50484C16.8067 8.3124 16.904 8.13438 16.9601 7.95485C16.8317 7.98425 16.7065 8.0181 16.5859 8.05591ZM10.909 7.78036C11.4545 7.78036 11.8655 8.04642 12.0493 8.52573C12.0961 8.64783 12.1259 8.77874 12.14 8.91453C12.1805 8.86767 12.2214 8.821 12.2623 8.77463C11.9898 8.34478 11.912 7.90456 11.9364 7.46904C11.8831 7.40564 11.8343 7.34043 11.7898 7.27351C11.62 7.3237 11.4328 7.3646 11.2282 7.3963C10.9671 7.49761 10.7322 7.64309 10.5505 7.81886C10.6169 7.80408 10.6842 7.79347 10.7523 7.7874C10.8057 7.7827 10.8579 7.78036 10.909 7.78036ZM3.51354 8.8483C3.73059 8.9321 3.99131 8.97226 4.28633 8.96849C4.28362 8.96316 4.2809 8.95783 4.27818 8.95254C3.95462 8.88029 3.64392 8.76841 3.37427 8.61085C3.40965 8.69093 3.45715 8.77076 3.51354 8.8483ZM15.922 8.33001C15.83 8.37961 15.7446 8.43195 15.6669 8.48674C15.3418 8.71622 15.237 8.92344 15.2126 9.07826C15.3716 9.07455 15.5354 9.05659 15.7001 9.02587C15.8879 8.86136 15.962 8.62856 15.922 8.33001ZM13.9348 9.17493C14.1231 9.23652 14.3198 9.27785 14.5138 9.29698C14.4708 8.92397 14.5953 8.56594 14.8758 8.24953C14.6696 8.27189 14.4588 8.29229 14.2478 8.30325C14.1403 8.4728 14.0409 8.64954 13.9557 8.82746C13.9508 8.94271 13.9433 9.05879 13.9348 9.17493ZM7.13442 9.07694C7.13917 9.17214 7.15261 9.26435 7.17493 9.35128C7.32172 9.29424 7.44735 9.22977 7.54289 9.15825C7.58647 9.12557 7.62689 9.0926 7.6642 9.05953C7.4885 9.07577 7.31109 9.08149 7.13442 9.07694ZM5.47984 9.51388C5.51856 9.55904 5.55825 9.60306 5.59887 9.64601C5.89666 9.63104 6.20736 9.5946 6.49705 9.53844C6.46774 9.42818 6.4478 9.31395 6.43707 9.19733C6.14341 9.32843 5.81684 9.43429 5.47984 9.51388ZM10.0951 8.91463C10.4096 9.28998 10.8142 9.58951 11.2683 9.79531C11.4376 9.46325 11.5012 9.05904 11.3945 8.78094C11.3404 8.63986 11.2214 8.45641 10.8136 8.49242C10.511 8.51922 10.2702 8.69337 10.0951 8.91463ZM19.5851 8.43557C19.3739 8.64401 19.1547 8.84257 18.9428 9.03458C18.6377 9.31102 18.3463 9.57498 18.1091 9.83719C18.9438 9.51036 19.6057 9.10913 19.6818 8.74033C19.6924 8.68863 19.6881 8.63599 19.6724 8.58365C19.639 8.53507 19.6101 8.48562 19.5851 8.43557ZM12.1257 10.0598C12.4012 10.1081 12.6845 10.1244 12.9685 10.1059L12.9776 10.1011C12.9544 9.91678 12.9602 9.71734 12.9955 9.50547C12.9028 9.44613 12.8147 9.3819 12.7323 9.31312C12.5207 9.55605 12.3143 9.8073 12.1257 10.0598ZM7.59681 9.93747C7.84491 10.1136 8.19618 10.2648 8.60723 10.3677C8.45234 10.0379 8.42419 9.6194 8.52352 9.11784C8.39707 9.33112 8.21675 9.53468 7.96176 9.72614C7.85864 9.80339 7.73539 9.87383 7.59681 9.93747ZM16.065 10.3844C16.0692 10.3948 16.0735 10.4051 16.0775 10.4154C16.2874 10.3733 16.4669 10.332 16.5922 10.3031C16.7118 10.2755 16.8324 10.2455 16.9533 10.2133C17.0051 10.135 17.0577 10.0561 17.1115 9.97749C16.7803 10.1331 16.4269 10.2679 16.065 10.3844ZM9.84658 10.4516C9.92563 10.468 10.0095 10.4801 10.0971 10.4886C10.3569 10.4627 10.5847 10.4087 10.7574 10.3284C10.3933 10.1367 10.0597 9.89291 9.77258 9.60409C9.713 9.87975 9.71601 10.1939 9.84658 10.4516ZM6.39233 10.2762C6.74719 10.485 7.1514 10.6456 7.61025 10.7601C7.28397 10.6014 7.01898 10.4084 6.83119 10.1902C6.68892 10.2236 6.54169 10.2523 6.39233 10.2762ZM16.1847 11.1145C16.1795 11.1601 16.1718 11.2038 16.1621 11.2455C16.2165 11.1962 16.2689 11.1434 16.3201 11.0871C16.2751 11.0965 16.23 11.1056 16.1847 11.1145ZM14.0686 11.2396C14.1832 11.4041 14.3557 11.5121 14.607 11.5712C14.6983 11.5927 14.7856 11.6089 14.8688 11.6202C15.1175 11.5159 15.3045 11.3905 15.4072 11.2421C14.9229 11.3018 14.4572 11.3155 14.0686 11.2396ZM11.2292 12.0296C12.0779 12.0591 12.9762 12.0244 13.7286 11.91C13.5276 11.7361 13.3801 11.5085 13.2873 11.2286C12.7139 11.3718 12.1163 11.4847 11.5228 11.5624C11.4843 11.5737 11.4458 11.5845 11.4074 11.5944C11.3655 11.6052 11.324 11.615 11.2829 11.6238C11.2475 11.7643 11.2287 11.9 11.2292 12.0296ZM11.8074 12.7465C11.4083 12.7465 11.0847 12.7333 10.8993 12.7236C10.7439 12.7154 10.6125 12.6051 10.5762 12.4527C10.5162 12.2002 10.5138 11.9377 10.5577 11.6693C10.5368 11.667 10.5158 11.6644 10.4952 11.6615C10.3595 11.6697 10.2251 11.6758 10.0921 11.6798C9.1604 11.7075 8.12552 11.6707 7.15756 11.3791C7.19415 11.4261 7.22744 11.4861 7.24976 11.5633C7.28348 11.6799 7.25563 11.8057 7.17586 11.8967C7.09613 11.9876 6.97574 12.0311 6.85681 12.0117C6.03282 11.8774 5.33897 11.1706 4.87818 10.3455C4.63348 10.3254 4.41322 10.2874 4.23441 10.2311C3.85927 10.1128 3.40639 9.8118 3.07425 9.42564C2.91829 9.34702 2.77742 9.25007 2.65281 9.13521C2.20173 8.71935 1.98284 8.10434 2.00215 7.30726C2.02088 6.54634 2.3128 5.98881 2.87151 5.64423C3.03266 5.42889 3.22782 5.22563 3.44691 5.035C3.42702 4.71384 3.54003 4.36031 3.78823 3.96353C4.55763 2.73298 7.09434 2.13671 9.20499 2.18578C9.24556 2.18666 9.28603 2.18783 9.32616 2.1892C10.2145 1.99911 11.2322 2.01941 12.0063 2.53741C12.0849 2.5899 12.1577 2.64503 12.2257 2.70261C12.3069 2.70564 12.3882 2.7095 12.4697 2.7142C12.7587 2.57718 13.156 2.50781 13.7805 2.48061C14.7703 2.43771 15.9969 2.47548 16.6979 3.15422C16.821 3.27329 16.9224 3.40659 17.002 3.55354C17.6862 3.47043 18.3773 3.47811 18.7229 3.57932C19.4415 3.79026 20.1501 4.2816 20.5448 4.93848C21.0988 5.04106 21.6327 5.24989 22.0598 5.67539C22.5715 6.18566 22.7558 6.88857 22.5657 7.60405C22.3664 8.35402 21.7983 8.9727 21.1521 9.14357C20.8578 9.2213 20.5685 9.20227 20.3031 9.09177C19.9244 9.96839 18.3852 10.5404 17.3916 10.826C16.8927 11.5748 16.3102 12.3498 15.1652 12.35C15.1003 12.35 15.0337 12.3475 14.9652 12.3424C14.5521 12.4922 14.0329 12.6001 13.403 12.6678C12.835 12.7288 12.2704 12.7465 11.8074 12.7465Z"/>
</mask>
<path d="M10.5585 3.46153C10.8483 3.54009 11.1327 3.63783 11.3997 3.75822C11.4722 3.72588 11.5458 3.69463 11.6201 3.66449C11.646 3.62174 11.6707 3.58025 11.6948 3.53975C11.7168 3.50282 11.7384 3.46706 11.7598 3.43247C11.7413 3.42259 11.7226 3.41295 11.7037 3.40332C11.5214 3.40449 11.3463 3.41031 11.1794 3.42049C11.0135 3.43056 10.8025 3.44348 10.5585 3.46153ZM7.43687 3.00081C5.98129 3.21429 4.77099 3.71889 4.38207 4.34099C4.37266 4.35605 4.36344 4.37107 4.35451 4.38589C5.11052 3.9332 5.95916 3.59591 6.65791 3.39519C6.7865 3.35537 6.91742 3.3179 7.05032 3.28258C7.1777 3.18127 7.30774 3.08715 7.43687 3.00081ZM12.3629 4.38355C12.3752 4.39524 12.3873 4.40688 12.3993 4.41882C12.4102 4.41045 12.4212 4.40218 12.4322 4.39401C12.4308 4.38927 12.4294 4.38457 12.428 4.37988C12.406 4.3811 12.3844 4.38227 12.3629 4.38355ZM7.35103 3.94905C7.1498 4.12359 6.97099 4.3112 6.83119 4.50408C8.03221 4.25215 9.35906 4.20715 10.1955 4.46994C10.2917 4.39475 10.3928 4.32181 10.4983 4.25137C10.518 4.23244 10.5381 4.21419 10.5584 4.19643C9.58222 3.89803 8.43632 3.84055 7.73825 3.8926C7.62757 3.90082 7.49684 3.9199 7.35103 3.94905ZM13.3147 4.70577C13.3145 4.71179 13.3143 4.7179 13.3141 4.72392C13.5547 4.67588 13.7977 4.63347 14.0424 4.60065L14.045 4.6003C14.0185 4.59942 13.9914 4.59869 13.9639 4.59815C13.7302 4.5938 13.5125 4.63332 13.3147 4.70577ZM18.2145 4.83071C18.2901 4.83071 18.3716 4.83228 18.4598 4.83404C18.5732 4.83629 18.7017 4.83878 18.8489 4.83908L18.9683 4.83917C19.1589 4.83932 19.3584 4.83942 19.5622 4.84524C19.2708 4.57589 18.9027 4.36921 18.5268 4.2589C18.3622 4.21067 17.9261 4.18484 17.3992 4.2252C17.6629 4.41285 17.9 4.61547 18.1091 4.83198C18.143 4.83105 18.1781 4.83071 18.2145 4.83071ZM6.08809 4.35801C5.61095 4.57032 5.20703 4.83174 4.93598 5.15426L4.92671 5.16522C5.20626 5.0075 5.54311 4.86652 5.91326 4.74628C5.95853 4.61263 6.01773 4.48314 6.08809 4.35801ZM17.3531 5.16125C17.3603 5.16551 17.3675 5.16981 17.3746 5.17417C17.3847 5.15807 17.3953 5.14252 17.4062 5.12755C17.3788 5.10265 17.3508 5.07799 17.3226 5.05378C17.3343 5.09018 17.3444 5.12598 17.3531 5.16125ZM11.3187 5.16106L11.3191 5.16145C11.3269 5.168 11.3345 5.17451 11.3422 5.18097C11.4962 5.14653 11.6493 5.11057 11.8014 5.07408C11.8339 5.02198 11.8684 4.9712 11.9048 4.9219C11.8475 4.8651 11.7858 4.81124 11.72 4.75997C11.5974 4.91089 11.4632 5.04385 11.3187 5.16106ZM6.81367 5.23321L6.82333 5.23375C7.71123 5.27988 8.66332 5.32924 9.48998 5.18395C9.51308 5.15299 9.53671 5.12202 9.56092 5.0913C9.57043 5.07912 9.58019 5.06694 9.58999 5.05486C8.83359 4.93677 7.76179 5.01983 6.81367 5.23321ZM13.4595 5.41612C13.4927 5.50261 13.529 5.58597 13.5697 5.66541C13.9628 5.58381 14.3489 5.51596 14.7147 5.4576C14.8003 5.44386 14.8843 5.43124 14.9669 5.41969C14.9227 5.36906 14.8857 5.3151 14.8561 5.25846C14.6091 5.25625 14.3667 5.27098 14.1352 5.30214C13.9078 5.33266 13.6835 5.37151 13.4595 5.41612ZM12.2539 5.73796C12.2834 5.74637 12.3136 5.75405 12.3448 5.76109C12.3411 5.73345 12.3362 5.70449 12.3297 5.67402C12.3165 5.67715 12.3032 5.68038 12.29 5.68361C12.2846 5.68488 12.2793 5.68625 12.274 5.68752C12.2669 5.7043 12.2602 5.72113 12.2539 5.73796ZM5.65729 5.90076C5.6669 5.90413 5.67641 5.90741 5.68602 5.91074C5.69456 5.90736 5.703 5.90408 5.71154 5.90071C5.69334 5.90071 5.67529 5.90071 5.65729 5.90076ZM10.688 6.03215C10.6952 6.21623 10.6992 6.40971 10.6799 6.60582C10.9297 6.47863 11.1926 6.36392 11.4632 6.26036C11.4622 6.22509 11.4622 6.18977 11.4633 6.15415C11.3547 6.08792 11.2547 6.01655 11.1603 5.94366C11.0043 5.97565 10.8469 6.00544 10.688 6.03215ZM7.07983 6.29935C7.59472 6.57818 8.3386 6.67465 8.80118 6.71481C8.83349 6.53523 8.88182 6.35624 8.94607 6.17896C8.93612 6.17925 8.92617 6.17954 8.91623 6.17979C8.35306 6.19657 7.69497 6.21623 7.07983 6.29935ZM4.55521 6.56678C4.56219 6.60098 4.57001 6.63395 4.57835 6.66555C4.58345 6.68473 4.58883 6.70371 4.59451 6.72274C4.6541 6.63302 4.72106 6.55 4.79531 6.47447C4.82583 6.44346 4.85737 6.41347 4.88983 6.38446C4.82136 6.35976 4.75294 6.33432 4.6853 6.30771C4.6327 6.38945 4.58932 6.47575 4.55521 6.56678ZM9.51395 6.75972C9.66316 6.76588 9.805 6.76945 9.93912 6.77068C9.9939 6.57456 9.99648 6.3558 9.989 6.12588C9.92796 6.13175 9.86662 6.13703 9.80509 6.14163C9.7786 6.14359 9.75162 6.1455 9.72426 6.14726C9.62759 6.34895 9.55748 6.55392 9.51395 6.75972ZM18.9155 6.02281C19.0493 6.06116 19.1699 6.10856 19.2733 6.16604C19.6299 6.36446 19.8244 6.61516 19.936 6.87115C20.043 6.66672 20.1178 6.45451 20.1486 6.23238C20.1796 6.00887 20.1506 5.79089 20.0756 5.58553C19.7089 5.54737 19.329 5.54712 18.9679 5.54693L18.8476 5.54678C18.7832 5.54668 18.7227 5.54615 18.6655 5.54541C18.7227 5.63841 18.7756 5.73336 18.8241 5.83007C18.8565 5.89469 18.887 5.95902 18.9155 6.02281ZM17.7338 6.63664C17.7258 6.79254 17.7288 6.9459 17.7319 7.10371C17.7321 7.11227 17.7322 7.12088 17.7324 7.12945C17.7412 7.12886 17.7504 7.12822 17.7592 7.12764C17.7833 6.95402 17.7748 6.79015 17.7338 6.63664ZM12.8151 6.64632C13.1862 6.77131 13.4819 6.99414 13.6751 7.29802C13.7878 7.18477 13.8917 7.08018 13.9862 6.98342C13.7665 6.88622 13.5681 6.75879 13.3995 6.60381C13.2081 6.59178 13.0281 6.57525 12.8661 6.55685C12.8519 6.5798 12.8373 6.60152 12.8225 6.62216C12.82 6.63023 12.8175 6.6382 12.8151 6.64632ZM3.34889 6.18786C3.30741 6.25189 3.27014 6.31681 3.23758 6.38256C3.08157 6.6971 3.05595 7.00275 3.1613 7.30893C3.33312 7.20576 3.53727 7.13277 3.75781 7.0839C3.75975 6.87233 3.78755 6.67983 3.83472 6.5051C3.81584 6.34352 3.81385 6.18287 3.82851 6.02457C3.64911 6.06444 3.48864 6.11742 3.34889 6.18786ZM19.2209 7.2854C19.2662 7.30169 19.3102 7.3192 19.3528 7.33794C19.3245 7.20996 19.2811 7.09877 19.2004 6.99917C19.2125 7.09584 19.2193 7.19123 19.2209 7.2854ZM15.1774 7.20586C15.0667 7.29543 14.9471 7.41014 14.8255 7.5432C14.8863 7.53655 14.947 7.5297 15.0076 7.5229C15.4129 7.47735 15.7959 7.43435 16.153 7.44609C16.1641 7.44644 16.1751 7.44737 16.186 7.44874C16.4533 7.35393 16.7399 7.27703 17.0319 7.22117C17.0314 7.18722 17.0307 7.15273 17.03 7.11761C17.0271 6.96919 17.024 6.81152 17.0309 6.64432C16.9465 6.65361 16.8621 6.66428 16.7787 6.67617C16.486 6.90315 16.1041 7.0705 15.6672 7.15273C15.5027 7.1837 15.3387 7.20116 15.1774 7.20586ZM5.23421 7.03953C5.62924 7.08576 5.96857 7.16775 6.16029 7.24964C6.29844 7.30859 6.6024 7.43832 6.82109 7.64695C6.82998 7.63287 6.8391 7.61858 6.84827 7.60454C6.86263 7.58258 6.87729 7.56105 6.89209 7.53982C6.75719 7.3193 6.46376 7.07153 6.03656 6.82395C5.94528 6.77102 5.83508 6.72176 5.71305 6.67372C5.55049 6.75742 5.40851 6.85619 5.29389 6.97271C5.27308 6.99384 5.25323 7.01615 5.23421 7.03953ZM8.80525 7.82066C8.80584 7.88626 8.80535 7.95157 8.80346 8.01634C8.81685 8.00944 8.83034 8.00235 8.84364 7.99521C8.82913 7.93719 8.81632 7.87898 8.80525 7.82066ZM3.56133 7.89072C3.66435 7.97217 3.78648 8.04413 3.92507 8.10562C3.89105 7.9977 3.86277 7.89331 3.83962 7.79215C3.73267 7.81832 3.63829 7.85095 3.56133 7.89072ZM5.30413 7.75634C5.51186 7.92604 5.7522 8.06408 6.01438 8.15938C6.06727 8.1786 6.12109 8.19656 6.17553 8.21324C6.23793 8.19073 6.28743 8.16799 6.32338 8.1471C6.26268 8.09451 6.13715 8.00827 5.88662 7.90128C5.73837 7.83803 5.53351 7.78882 5.30413 7.75634ZM12.7062 8.07626C12.7227 8.12685 12.7422 8.17709 12.765 8.22698C12.7934 8.19704 12.8217 8.1673 12.8499 8.13776C12.8014 8.11907 12.7534 8.09862 12.7062 8.07626ZM9.68781 8.27757C9.6915 8.28559 9.69533 8.29376 9.69912 8.30178C9.70654 8.29439 9.71397 8.28705 9.72139 8.27981C9.71586 8.27448 9.71052 8.26891 9.70533 8.26328C9.69956 8.26803 9.69363 8.27287 9.68781 8.27757ZM18.4251 7.83754C18.367 8.0092 18.2833 8.17518 18.1759 8.33343C18.2251 8.26705 18.2698 8.19846 18.3094 8.12782C18.3619 8.03405 18.4046 7.93768 18.4374 7.83872L18.4251 7.83754ZM7.67692 7.70815C7.68439 7.80609 7.67794 7.90451 7.65761 8.00357C7.63164 8.13017 7.58234 8.24997 7.51329 8.36303C7.70419 8.34996 7.89392 8.32223 8.07889 8.27933C8.11068 8.05459 8.10612 7.79254 8.09175 7.47153C7.92541 7.51624 7.78644 7.6087 7.67692 7.70815ZM20.2936 8.23628C20.298 8.24112 20.3024 8.24587 20.307 8.25056C20.5042 8.45377 20.7286 8.52382 20.974 8.459C21.3715 8.35393 21.7557 7.91733 21.8876 7.4209C21.9599 7.14872 22.0144 6.62549 21.5664 6.17866C21.3615 5.97457 21.1135 5.83653 20.8407 5.74304C20.8694 5.93197 20.8719 6.12837 20.8438 6.33046C20.7652 6.89728 20.4901 7.39194 20.1317 7.83823C20.1436 7.91009 20.1579 7.97417 20.1775 8.03199C20.2237 8.0994 20.2624 8.16755 20.2936 8.23628ZM16.5859 8.05591C16.6226 8.22067 16.6377 8.37159 16.636 8.50934L16.6399 8.50484C16.8067 8.3124 16.904 8.13438 16.9601 7.95485C16.8317 7.98425 16.7065 8.0181 16.5859 8.05591ZM10.909 7.78036C11.4545 7.78036 11.8655 8.04642 12.0493 8.52573C12.0961 8.64783 12.1259 8.77874 12.14 8.91453C12.1805 8.86767 12.2214 8.821 12.2623 8.77463C11.9898 8.34478 11.912 7.90456 11.9364 7.46904C11.8831 7.40564 11.8343 7.34043 11.7898 7.27351C11.62 7.3237 11.4328 7.3646 11.2282 7.3963C10.9671 7.49761 10.7322 7.64309 10.5505 7.81886C10.6169 7.80408 10.6842 7.79347 10.7523 7.7874C10.8057 7.7827 10.8579 7.78036 10.909 7.78036ZM3.51354 8.8483C3.73059 8.9321 3.99131 8.97226 4.28633 8.96849C4.28362 8.96316 4.2809 8.95783 4.27818 8.95254C3.95462 8.88029 3.64392 8.76841 3.37427 8.61085C3.40965 8.69093 3.45715 8.77076 3.51354 8.8483ZM15.922 8.33001C15.83 8.37961 15.7446 8.43195 15.6669 8.48674C15.3418 8.71622 15.237 8.92344 15.2126 9.07826C15.3716 9.07455 15.5354 9.05659 15.7001 9.02587C15.8879 8.86136 15.962 8.62856 15.922 8.33001ZM13.9348 9.17493C14.1231 9.23652 14.3198 9.27785 14.5138 9.29698C14.4708 8.92397 14.5953 8.56594 14.8758 8.24953C14.6696 8.27189 14.4588 8.29229 14.2478 8.30325C14.1403 8.4728 14.0409 8.64954 13.9557 8.82746C13.9508 8.94271 13.9433 9.05879 13.9348 9.17493ZM7.13442 9.07694C7.13917 9.17214 7.15261 9.26435 7.17493 9.35128C7.32172 9.29424 7.44735 9.22977 7.54289 9.15825C7.58647 9.12557 7.62689 9.0926 7.6642 9.05953C7.4885 9.07577 7.31109 9.08149 7.13442 9.07694ZM5.47984 9.51388C5.51856 9.55904 5.55825 9.60306 5.59887 9.64601C5.89666 9.63104 6.20736 9.5946 6.49705 9.53844C6.46774 9.42818 6.4478 9.31395 6.43707 9.19733C6.14341 9.32843 5.81684 9.43429 5.47984 9.51388ZM10.0951 8.91463C10.4096 9.28998 10.8142 9.58951 11.2683 9.79531C11.4376 9.46325 11.5012 9.05904 11.3945 8.78094C11.3404 8.63986 11.2214 8.45641 10.8136 8.49242C10.511 8.51922 10.2702 8.69337 10.0951 8.91463ZM19.5851 8.43557C19.3739 8.64401 19.1547 8.84257 18.9428 9.03458C18.6377 9.31102 18.3463 9.57498 18.1091 9.83719C18.9438 9.51036 19.6057 9.10913 19.6818 8.74033C19.6924 8.68863 19.6881 8.63599 19.6724 8.58365C19.639 8.53507 19.6101 8.48562 19.5851 8.43557ZM12.1257 10.0598C12.4012 10.1081 12.6845 10.1244 12.9685 10.1059L12.9776 10.1011C12.9544 9.91678 12.9602 9.71734 12.9955 9.50547C12.9028 9.44613 12.8147 9.3819 12.7323 9.31312C12.5207 9.55605 12.3143 9.8073 12.1257 10.0598ZM7.59681 9.93747C7.84491 10.1136 8.19618 10.2648 8.60723 10.3677C8.45234 10.0379 8.42419 9.6194 8.52352 9.11784C8.39707 9.33112 8.21675 9.53468 7.96176 9.72614C7.85864 9.80339 7.73539 9.87383 7.59681 9.93747ZM16.065 10.3844C16.0692 10.3948 16.0735 10.4051 16.0775 10.4154C16.2874 10.3733 16.4669 10.332 16.5922 10.3031C16.7118 10.2755 16.8324 10.2455 16.9533 10.2133C17.0051 10.135 17.0577 10.0561 17.1115 9.97749C16.7803 10.1331 16.4269 10.2679 16.065 10.3844ZM9.84658 10.4516C9.92563 10.468 10.0095 10.4801 10.0971 10.4886C10.3569 10.4627 10.5847 10.4087 10.7574 10.3284C10.3933 10.1367 10.0597 9.89291 9.77258 9.60409C9.713 9.87975 9.71601 10.1939 9.84658 10.4516ZM6.39233 10.2762C6.74719 10.485 7.1514 10.6456 7.61025 10.7601C7.28397 10.6014 7.01898 10.4084 6.83119 10.1902C6.68892 10.2236 6.54169 10.2523 6.39233 10.2762ZM16.1847 11.1145C16.1795 11.1601 16.1718 11.2038 16.1621 11.2455C16.2165 11.1962 16.2689 11.1434 16.3201 11.0871C16.2751 11.0965 16.23 11.1056 16.1847 11.1145ZM14.0686 11.2396C14.1832 11.4041 14.3557 11.5121 14.607 11.5712C14.6983 11.5927 14.7856 11.6089 14.8688 11.6202C15.1175 11.5159 15.3045 11.3905 15.4072 11.2421C14.9229 11.3018 14.4572 11.3155 14.0686 11.2396ZM11.2292 12.0296C12.0779 12.0591 12.9762 12.0244 13.7286 11.91C13.5276 11.7361 13.3801 11.5085 13.2873 11.2286C12.7139 11.3718 12.1163 11.4847 11.5228 11.5624C11.4843 11.5737 11.4458 11.5845 11.4074 11.5944C11.3655 11.6052 11.324 11.615 11.2829 11.6238C11.2475 11.7643 11.2287 11.9 11.2292 12.0296ZM11.8074 12.7465C11.4083 12.7465 11.0847 12.7333 10.8993 12.7236C10.7439 12.7154 10.6125 12.6051 10.5762 12.4527C10.5162 12.2002 10.5138 11.9377 10.5577 11.6693C10.5368 11.667 10.5158 11.6644 10.4952 11.6615C10.3595 11.6697 10.2251 11.6758 10.0921 11.6798C9.1604 11.7075 8.12552 11.6707 7.15756 11.3791C7.19415 11.4261 7.22744 11.4861 7.24976 11.5633C7.28348 11.6799 7.25563 11.8057 7.17586 11.8967C7.09613 11.9876 6.97574 12.0311 6.85681 12.0117C6.03282 11.8774 5.33897 11.1706 4.87818 10.3455C4.63348 10.3254 4.41322 10.2874 4.23441 10.2311C3.85927 10.1128 3.40639 9.8118 3.07425 9.42564C2.91829 9.34702 2.77742 9.25007 2.65281 9.13521C2.20173 8.71935 1.98284 8.10434 2.00215 7.30726C2.02088 6.54634 2.3128 5.98881 2.87151 5.64423C3.03266 5.42889 3.22782 5.22563 3.44691 5.035C3.42702 4.71384 3.54003 4.36031 3.78823 3.96353C4.55763 2.73298 7.09434 2.13671 9.20499 2.18578C9.24556 2.18666 9.28603 2.18783 9.32616 2.1892C10.2145 1.99911 11.2322 2.01941 12.0063 2.53741C12.0849 2.5899 12.1577 2.64503 12.2257 2.70261C12.3069 2.70564 12.3882 2.7095 12.4697 2.7142C12.7587 2.57718 13.156 2.50781 13.7805 2.48061C14.7703 2.43771 15.9969 2.47548 16.6979 3.15422C16.821 3.27329 16.9224 3.40659 17.002 3.55354C17.6862 3.47043 18.3773 3.47811 18.7229 3.57932C19.4415 3.79026 20.1501 4.2816 20.5448 4.93848C21.0988 5.04106 21.6327 5.24989 22.0598 5.67539C22.5715 6.18566 22.7558 6.88857 22.5657 7.60405C22.3664 8.35402 21.7983 8.9727 21.1521 9.14357C20.8578 9.2213 20.5685 9.20227 20.3031 9.09177C19.9244 9.96839 18.3852 10.5404 17.3916 10.826C16.8927 11.5748 16.3102 12.3498 15.1652 12.35C15.1003 12.35 15.0337 12.3475 14.9652 12.3424C14.5521 12.4922 14.0329 12.6001 13.403 12.6678C12.835 12.7288 12.2704 12.7465 11.8074 12.7465Z" fill="#F3EAC3" stroke="#321313" stroke-width="0.151528" mask="url(#path-5-inside-1_850_6551)"/>
<path d="M12.358 8.56678C12.358 8.56678 12.0434 8.04815 12.5942 8.26485L12.358 8.56678Z" fill="#CBCCCB"/>
<path d="M10.9895 7.34508L10.3291 7.08557L12.0862 6.07129L12.7466 6.3308L10.9895 7.34508Z" fill="#009550"/>
<path d="M11.2391 7.11482C11.2273 7.11482 11.2159 7.1086 11.2096 7.09755C11.2002 7.08116 11.2059 7.06022 11.2222 7.05083L12.3993 6.37174C12.4156 6.3623 12.4364 6.36802 12.4456 6.38441C12.455 6.40085 12.4493 6.42179 12.433 6.43113L11.256 7.11027C11.2506 7.11335 11.2448 7.11482 11.2391 7.11482Z" fill="#8AB84C"/>
<path d="M13.3568 0.807104C15.4984 1.30843 15.0996 4.19528 14.6305 5.58324C14.6289 5.58811 14.6267 5.59236 14.6238 5.59657C13.8932 6.63977 12.3863 8.50968 12.1688 7.69131C11.9532 6.88022 9.77862 6.10408 8.68343 5.80702C8.66156 5.80109 8.64645 5.78292 8.64492 5.76026C8.59169 4.97497 8.88884 3.38408 10.5064 3.01366C12.5608 2.54322 10.6752 0.179376 13.3568 0.807104Z" fill="#A1795E" stroke="#4E301A" stroke-width="0.0377853"/>
<path d="M10.8726 5.18296C10.5283 4.51108 9.29739 4.3062 8.92862 4.36075C8.91216 4.36318 8.8988 4.374 8.89148 4.38901L8.77951 4.61856C8.7775 4.62268 8.77602 4.62704 8.77511 4.63154L8.71599 4.9228L8.66248 5.24711L8.64015 5.47849C9.04756 5.03255 10.0708 5.48264 10.2851 5.91121C10.4995 6.33978 11.3356 6.75098 12.1878 6.75612C12.8695 6.76024 12.7766 7.54719 12.4643 7.88205C12.6208 7.8398 12.699 7.8186 13.253 7.27461C13.8583 6.68017 12.6327 5.908 12.1471 5.81743C12.1394 5.81599 12.1321 5.81648 12.1245 5.81844C11.8446 5.89076 11.2207 5.86204 10.8726 5.18296Z" fill="#4E301A"/>
<path d="M12.404 3.58522C12.053 2.90041 11.282 2.81633 10.9457 2.88321C10.9422 2.88392 10.9388 2.88499 10.9355 2.88642L10.7685 2.95834C10.7662 2.95935 10.7638 2.9602 10.7613 2.96086L10.5825 3.00916L10.3218 3.07958L10.0681 3.17628L9.87241 3.2565C9.86851 3.2581 9.86482 3.26015 9.86139 3.26261L9.67894 3.39409L9.51741 3.52223L9.40801 3.63628C9.84422 3.49028 11.6021 3.88489 11.8165 4.31346C12.0309 4.74203 12.867 5.15323 13.7192 5.15837C14.4009 5.16249 14.001 6.11387 13.8761 6.57011C13.9784 6.42983 14.1907 6.32278 14.619 5.58068C15.044 4.84447 14.1591 4.30675 13.6787 4.21968C13.671 4.21828 13.6635 4.21873 13.6559 4.2207C13.376 4.29301 12.752 4.26429 12.404 3.58522Z" fill="#4E301A"/>
<path d="M13.117 1.61541C12.8606 1.11528 12.1573 1.01651 11.882 1.05654C11.8639 1.05918 11.8492 1.07197 11.8427 1.08918L11.7231 1.40283C11.722 1.40561 11.7212 1.40846 11.7206 1.41137L11.6514 1.75223C11.6405 1.80598 11.7186 1.85188 11.7681 1.82883C12.0883 1.6798 12.537 1.88982 12.6743 2.16417C12.8358 2.48711 13.4659 2.79696 14.108 2.80084C14.6217 2.80394 14.906 3.92695 14.9358 4.14424C14.9599 4.02494 14.9729 3.23292 14.8262 2.68102C14.662 2.06296 14.4338 2.15059 14.0807 2.09394C14.0729 2.0927 14.0651 2.09307 14.0575 2.09499C13.8452 2.14855 13.3781 2.12483 13.117 1.61541Z" fill="#4E301A"/>
<path d="M10.0817 6.84794L10.7874 6.91445L9.37455 8.37659L8.66886 8.31008L10.0817 6.84794Z" fill="#009550"/>
<path d="M9.90451 7.13924C9.91585 7.13598 9.92855 7.13878 9.93759 7.14767C9.95111 7.16082 9.95136 7.18252 9.93824 7.19607L8.99166 8.17521C8.97856 8.1888 8.95703 8.18905 8.9437 8.17585C8.93021 8.16264 8.92991 8.14095 8.94309 8.12744L9.88956 7.14828C9.89385 7.14384 9.8991 7.1408 9.90451 7.13924Z" fill="#8AB84C"/>
<path d="M11.7359 6.69635L11.6894 7.40933L10.2007 6.02572L10.2473 5.31274L11.7359 6.69635Z" fill="#009550"/>
<path d="M11.442 6.52625C11.4456 6.53759 11.4431 6.55047 11.4346 6.55981C11.4219 6.5738 11.4004 6.57465 11.3866 6.5618L10.3897 5.6348C10.3759 5.62197 10.375 5.60028 10.3878 5.58648C10.4005 5.57253 10.422 5.57163 10.4357 5.58454L11.4326 6.51143C11.4372 6.51564 11.4403 6.52084 11.442 6.52625Z" fill="#8AB84C"/>
<path d="M14.0382 6.61432L13.9916 7.3273L12.503 5.94369L12.5495 5.23071L14.0382 6.61432Z" fill="#009550"/>
<path d="M13.7443 6.44227C13.7478 6.4536 13.7454 6.46648 13.7368 6.47583C13.7242 6.48981 13.7026 6.49066 13.6888 6.47782L12.692 5.55081C12.6781 5.53798 12.6773 5.51629 12.69 5.50249C12.7027 5.48854 12.7242 5.48765 12.738 5.50055L13.7349 6.42745C13.7394 6.43165 13.7426 6.43686 13.7443 6.44227Z" fill="#8AB84C"/>
<path d="M11.3701 8.08073L10.8716 7.88545L12.195 7.12109L12.6927 7.3175L11.3701 8.08073Z" fill="#007340"/>
<path d="M11.5564 7.9071C11.5475 7.9071 11.5389 7.90241 11.5341 7.89414C11.5271 7.88176 11.5314 7.86606 11.5437 7.85897L12.4308 7.34718C12.4431 7.34004 12.4587 7.34444 12.4657 7.35677C12.4727 7.36914 12.4685 7.38485 12.4562 7.39194L11.5691 7.90373L11.5564 7.9071Z" fill="#8AB84C"/>
<path d="M9.51588 6.24478L10.0484 6.29439L8.98442 7.39605L8.45228 7.34515L9.51588 6.24478Z" fill="#007340"/>
<path d="M9.38371 6.46254C9.39229 6.46006 9.40183 6.4622 9.4087 6.46882C9.4188 6.47878 9.41898 6.49506 9.40911 6.50528L8.69571 7.2432C8.68586 7.25347 8.66963 7.25356 8.65955 7.24365C8.64941 7.2337 8.64924 7.21742 8.65911 7.2072L9.37245 6.46929L9.38371 6.46254Z" fill="#8AB84C"/>
<path d="M12.3186 6.10967L12.284 6.6477L11.1624 5.60573L11.1983 5.06807L12.3186 6.10967Z" fill="#007340"/>
<path d="M12.0984 5.98141C12.1011 5.98999 12.0992 5.99966 12.0928 6.00677C12.0832 6.01722 12.0671 6.01784 12.0567 6.00818L11.3054 5.30954C11.2949 5.29989 11.2944 5.28354 11.3039 5.27311C11.3135 5.26262 11.3297 5.26199 11.3401 5.27166L12.0914 5.97025L12.0984 5.98141Z" fill="#8AB84C"/>
<path d="M14.6203 6.02569L14.5858 6.56371L13.4642 5.52175L13.5 4.98409L14.6203 6.02569Z" fill="#007340"/>
<path d="M14.3996 5.89938C14.4023 5.90796 14.4005 5.91763 14.3941 5.92474C14.3845 5.93518 14.3684 5.93581 14.3579 5.92615L13.6067 5.2275C13.5962 5.21785 13.5957 5.20151 13.6052 5.19108C13.6148 5.18059 13.6309 5.17996 13.6413 5.18963L14.3926 5.88822L14.3996 5.89938Z" fill="#8AB84C"/>
<path d="M9.89404 7.74903L9.90389 7.0332L11.462 8.33679L11.4518 9.053L9.89404 7.74903Z" fill="#007340"/>
<path d="M11.2719 8.79898C11.2642 8.79898 11.2565 8.79638 11.2502 8.79105L10.2061 7.91702C10.1917 7.90499 10.1897 7.88337 10.2017 7.86879C10.2136 7.85426 10.2352 7.85225 10.2495 7.86439L11.2935 8.73841C11.308 8.7505 11.3099 8.77202 11.298 8.7866C11.2913 8.79477 11.2816 8.79898 11.2719 8.79898Z" fill="#8AB84C"/>
<path d="M11.0255 6.15745L11.2112 6.84843L9.35769 6.02687L9.17224 5.33541L11.0255 6.15745Z" fill="#007340"/>
<path d="M9.41501 5.52925C9.42238 5.52712 9.43046 5.52749 9.43803 5.53085L10.6802 6.08188C10.6974 6.08944 10.7051 6.10969 10.6976 6.12703C10.6901 6.1443 10.6699 6.1522 10.6528 6.14452L9.41067 5.59348C9.39352 5.58586 9.38574 5.56572 9.39329 5.54838C9.3975 5.53867 9.40568 5.53194 9.41501 5.52925Z" fill="#8AB84C"/>
<path d="M12.4471 7.62911L11.7671 7.83526L12.5308 5.94478L13.2113 5.73889L12.4471 7.62911Z" fill="#007340"/>
<path d="M13.0248 5.98742C13.0271 5.99479 13.027 6.00294 13.0238 6.01066L12.5116 7.27758C12.5046 7.2951 12.4847 7.30348 12.4673 7.29635C12.45 7.28925 12.4416 7.26914 12.4487 7.25168L12.961 5.98481C12.9681 5.96732 12.9878 5.95892 13.0052 5.96605C13.015 5.97003 13.0219 5.97809 13.0248 5.98742Z" fill="#8AB84C"/>
<path d="M14.7498 7.5461L14.0698 7.75225L14.8335 5.86177L15.514 5.65588L14.7498 7.5461Z" fill="#007340"/>
<path d="M15.3271 5.90539C15.3294 5.91276 15.3292 5.92091 15.3261 5.92863L14.8139 7.19555C14.8068 7.21307 14.787 7.22145 14.7696 7.21432C14.7522 7.20722 14.7438 7.18711 14.751 7.16965L15.2632 5.90278C15.2703 5.88529 15.2901 5.87689 15.3075 5.88402C15.3172 5.888 15.3241 5.89606 15.3271 5.90539Z" fill="#8AB84C"/>
<path d="M12.8155 6.75956L13.5088 6.60742L12.6021 8.43238L11.9087 8.58598L12.8155 6.75956Z" fill="#007340"/>
<path d="M12.1462 8.37626C12.1411 8.37626 12.1359 8.37514 12.1311 8.37269C12.1143 8.36413 12.1075 8.34358 12.1159 8.32666L12.7236 7.10487C12.7321 7.08799 12.7524 7.08109 12.7692 7.08956C12.786 7.09807 12.7927 7.11861 12.7843 7.13554L12.1767 8.35733C12.1707 8.36936 12.1587 8.37626 12.1462 8.37626Z" fill="#8AB84C"/>
<path d="M8.48609 7.91752L7.86092 8.25594L8.23514 6.25L8.8599 5.91016L8.48609 7.91752Z" fill="#007340"/>
<path d="M8.68829 6.17894C8.69319 6.17753 8.69849 6.17717 8.70382 6.17818C8.7223 6.18176 8.73443 6.19963 8.73098 6.21823L8.47987 7.56135C8.47631 7.57993 8.4586 7.59221 8.4402 7.58872C8.42173 7.58519 8.40964 7.5673 8.4131 7.5487L8.6642 6.20558C8.66666 6.19235 8.6763 6.1824 8.68829 6.17894Z" fill="#8AB84C"/>
<path d="M10.6315 5.11764L10.2788 4.49693L12.2781 4.81892L12.6322 5.43919L10.6315 5.11764Z" fill="#007340"/>
<path d="M12.3626 5.27306C12.3641 5.27796 12.3646 5.28329 12.3638 5.28869C12.3607 5.30741 12.3434 5.32013 12.3248 5.31716L10.9861 5.10102C10.9676 5.09794 10.9549 5.08043 10.9579 5.06178C10.9609 5.04308 10.9783 5.03041 10.9968 5.03338L12.3355 5.24952C12.3487 5.25163 12.3588 5.26107 12.3626 5.27306Z" fill="#8AB84C"/>
<path d="M12.9338 5.03464L12.581 4.41393L14.5803 4.73592L14.9345 5.35618L12.9338 5.03464Z" fill="#007340"/>
<path d="M14.6644 5.19005C14.6659 5.19495 14.6664 5.20028 14.6655 5.20568C14.6625 5.2244 14.6451 5.23712 14.6266 5.23415L13.2879 5.01801C13.2694 5.01493 13.2567 4.99742 13.2597 4.97878C13.2627 4.96007 13.2801 4.9474 13.2986 4.95037L14.6373 5.16651C14.6505 5.16862 14.6606 5.17807 14.6644 5.19005Z" fill="#8AB84C"/>
<path d="M11.4049 8.08778L11.1138 7.43652L13.0725 7.95134L13.3645 8.60333L11.4049 8.08778Z" fill="#009550"/>
<path d="M13.0803 8.4526L13.0717 8.45152L11.7593 8.1064C11.7411 8.10161 11.7303 8.08287 11.735 8.06457C11.7397 8.04638 11.758 8.03561 11.7765 8.04007L13.0889 8.38519C13.1071 8.38998 13.1179 8.40872 13.1132 8.42701C13.1092 8.44237 13.0955 8.4526 13.0803 8.4526Z" fill="#8AB84C"/>
<path d="M9.4795 6.24944L9.93701 6.79492L7.91332 6.84277L7.45486 6.2968L9.4795 6.24944Z" fill="#009550"/>
<path d="M7.76944 6.36225L7.77799 6.36091L9.13397 6.32902C9.15272 6.3286 9.16828 6.3436 9.16875 6.3625C9.16914 6.38131 9.15448 6.39673 9.13554 6.39756L7.77956 6.42944C7.7608 6.42986 7.74525 6.41486 7.74478 6.39597C7.74442 6.38009 7.75488 6.36645 7.76944 6.36225Z" fill="#8AB84C"/>
<path d="M12.313 6.07376L11.7847 6.5498L11.6816 4.51175L12.2104 4.03474L12.313 6.07376Z" fill="#009550"/>
<path d="M12.1536 4.35357L12.1551 4.36215L12.224 5.72775C12.2249 5.74664 12.2105 5.76274 12.1918 5.76372C12.1731 5.76463 12.1574 5.75029 12.1561 5.73122L12.0872 4.36562C12.0863 4.34673 12.1007 4.33063 12.1194 4.32965C12.1352 4.32885 12.149 4.33901 12.1536 4.35357Z" fill="#8AB84C"/>
<path d="M14.6147 5.99075L14.0864 6.4668L13.9834 4.42874L14.5121 3.95173L14.6147 5.99075Z" fill="#009550"/>
<path d="M14.4558 4.27056L14.4574 4.27914L14.5263 5.64475C14.5272 5.66364 14.5127 5.67973 14.494 5.68071C14.4754 5.68162 14.4597 5.66728 14.4583 5.64821L14.3895 4.28261C14.3885 4.26372 14.403 4.24763 14.4217 4.24664C14.4374 4.24584 14.4512 4.25601 14.4558 4.27056Z" fill="#8AB84C"/>
<path d="M4.93478 9.77591C2.99487 8.73288 4.12122 6.04845 4.93062 4.83016C4.93345 4.82589 4.93663 4.82234 4.94056 4.81905C5.91408 4.00202 7.84965 2.58901 7.84965 3.43624C7.84965 4.27594 9.75093 5.59305 10.7325 6.16575C10.7521 6.17718 10.7621 6.19864 10.7577 6.22091C10.6075 6.99332 9.9121 8.45253 8.25449 8.38826C6.14931 8.30663 7.36384 11.0819 4.93478 9.77591Z" fill="#A1795E" stroke="#4E301A" stroke-width="0.0377853"/>
<path d="M8.45797 6.19683C8.61809 6.93568 9.75442 7.45474 10.1246 7.49827C10.1412 7.50021 10.1568 7.49325 10.1678 7.48066L10.3349 7.28814C10.3379 7.28469 10.3404 7.28086 10.3424 7.27676L10.4743 7.01085L10.6093 6.71155L10.6902 6.49388C10.1822 6.81832 9.30945 6.1166 9.21241 5.6467C9.11537 5.1768 8.41328 4.56144 7.59148 4.33412C6.93403 4.15226 7.22587 3.41638 7.61343 3.1744C7.45149 3.1744 7.37048 3.17446 6.69573 3.55537C5.95839 3.9716 6.94398 5.03725 7.38981 5.25145C7.3969 5.25486 7.40402 5.25627 7.41187 5.25635C7.70079 5.25954 8.29613 5.45009 8.45797 6.19683Z" fill="#4E301A"/>
<path d="M6.56896 7.33911C6.73217 8.09216 7.45537 8.37456 7.79732 8.3977C7.80095 8.39795 7.80443 8.39778 7.80802 8.39726L7.98775 8.37135C7.99028 8.37099 7.99283 8.37081 7.99538 8.37081L8.18048 8.37081L8.45037 8.37081L8.72027 8.3436L8.9299 8.31718C8.93408 8.31665 8.93817 8.31564 8.94211 8.31415L9.1521 8.23476L9.34103 8.15314L9.47598 8.07151C9.01715 8.09872 7.42044 7.25887 7.3234 6.78898C7.22636 6.31908 6.52427 5.70372 5.70247 5.4764C5.04503 5.29454 5.67555 4.47992 5.91335 4.07183C5.77848 4.18062 5.546 4.22865 4.94172 4.8337C4.34224 5.43394 5.05894 6.18422 5.50061 6.39367C5.50771 6.39704 5.51502 6.39855 5.52286 6.39863C5.81178 6.40182 6.40713 6.59237 6.56896 7.33911Z" fill="#4E301A"/>
<path d="M5.3744 9.05716C5.49359 9.60713 6.14762 9.88605 6.42378 9.91921C6.44199 9.92139 6.45943 9.91287 6.47019 9.89797L6.66625 9.62619C6.66798 9.62379 6.66951 9.62125 6.67083 9.6186L6.82515 9.30744C6.84948 9.25838 6.78573 9.19363 6.73198 9.20296C6.38449 9.26332 6.00501 8.94339 5.94289 8.64261C5.86977 8.28853 5.34072 7.82483 4.72146 7.65354C4.22606 7.5165 4.23979 6.35759 4.26678 6.13992C4.21285 6.24886 3.99694 7.0105 3.99695 7.58187C3.99695 8.22173 4.23982 8.19662 4.56637 8.34348C4.57353 8.3467 4.58121 8.34838 4.58905 8.34851C4.80784 8.35217 5.25299 8.49698 5.3744 9.05716Z" fill="#4E301A"/>
<path d="M18.1302 3.74558C20.2718 4.2469 19.873 7.13375 19.404 8.52172C19.4023 8.52659 19.4002 8.53084 19.3972 8.53505C18.6666 9.57825 17.1598 11.4482 16.9423 10.6298C16.7267 9.8187 14.5521 9.04256 13.4569 8.74549C13.435 8.73956 13.4199 8.7214 13.4184 8.69874C13.3651 7.91345 13.6623 6.32255 15.2799 5.95214C17.3343 5.48169 15.4486 3.11785 18.1302 3.74558Z" fill="#A1795E" stroke="#4E301A" stroke-width="0.0377853"/>
<path d="M15.6461 8.12144C15.3017 7.44955 14.0708 7.24468 13.7021 7.29922C13.6856 7.30166 13.6722 7.31248 13.6649 7.32749L13.5529 7.55704C13.5509 7.56116 13.5495 7.56552 13.5485 7.57002L13.4894 7.86127L13.4359 8.18558L13.4136 8.41696C13.821 7.97102 14.8442 8.42112 15.0586 8.84969C15.2729 9.27825 16.1091 9.68945 16.9612 9.6946C17.643 9.69872 17.55 10.4857 17.2378 10.8205C17.3942 10.7783 17.4724 10.7571 18.0264 10.2131C18.6318 9.61865 17.4061 8.84647 16.9205 8.7559C16.9128 8.75446 16.9056 8.75496 16.898 8.75692C16.6181 8.82923 15.9941 8.80052 15.6461 8.12144Z" fill="#4E301A"/>
<path d="M17.1774 6.52369C16.8265 5.83889 16.0554 5.75481 15.7192 5.82168C15.7156 5.82239 15.7123 5.82346 15.7089 5.8249L15.542 5.89682C15.5396 5.89783 15.5372 5.89867 15.5348 5.89934L15.356 5.94764L15.0953 6.01806L14.8416 6.11476L14.6458 6.19497C14.642 6.19657 14.6383 6.19862 14.6348 6.20109L14.4524 6.33256L14.2908 6.4607L14.1815 6.57476C14.6177 6.42876 16.3756 6.82337 16.5899 7.25194C16.8043 7.6805 17.6405 8.0917 18.4926 8.09685C19.1744 8.10097 18.7745 9.05235 18.6495 9.50859C18.7519 9.36831 18.9641 9.26126 19.3925 8.51915C19.8174 7.78295 18.9325 7.24523 18.4521 7.15816C18.4444 7.15676 18.437 7.15721 18.4294 7.15917C18.1495 7.23148 17.5255 7.20277 17.1774 6.52369Z" fill="#4E301A"/>
<path d="M17.8904 4.55389C17.6341 4.05376 16.9307 3.95499 16.6555 3.99502C16.6373 3.99766 16.6227 4.01045 16.6161 4.02766L16.4965 4.34131C16.4954 4.34408 16.4946 4.34694 16.494 4.34985L16.4248 4.69071C16.4139 4.74446 16.4921 4.79036 16.5416 4.76731C16.8617 4.61827 17.3105 4.82829 17.4477 5.10264C17.6092 5.42558 18.2393 5.73544 18.8815 5.73931C19.3952 5.74242 19.6794 6.86543 19.7092 7.08272C19.7334 6.96342 19.7464 6.17139 19.5997 5.6195C19.4354 5.00144 19.2073 5.08907 18.8541 5.03242C18.8464 5.03117 18.8385 5.03155 18.8309 5.03347C18.6187 5.08703 18.1515 5.06331 17.8904 4.55389Z" fill="#4E301A"/>
</svg>
