<svg width="24" height="22" viewBox="0 0 24 22" fill="none" xmlns="http://www.w3.org/2000/svg">
<g clip-path="url(#clip0_849_5299)">
<path d="M0.20314 7.22465C0.20314 9.63015 5.48473 11.58 12 11.58C18.5152 11.58 23.7969 9.63015 23.7969 7.22465C23.7969 4.81917 18.5152 2.86914 12 2.86914C5.48473 2.86914 0.20314 4.81917 0.20314 7.22465Z" fill="#FF9E2B"/>
<path d="M0.20314 7.22465C0.20314 9.63015 5.48473 11.58 12 11.58C18.5152 11.58 23.7969 9.63015 23.7969 7.22465C23.7969 4.81917 18.5152 2.86914 12 2.86914C5.48473 2.86914 0.20314 4.81917 0.20314 7.22465Z" stroke="#321313" stroke-width="0.409978" stroke-linecap="round" stroke-linejoin="round"/>
<path d="M1.21435 8.78752C1.21435 7.62347 1.83071 6.62373 2.71236 6.18661C2.9055 4.98686 3.76168 4.05149 4.8331 3.88986C5.12315 2.68924 6.08899 1.80685 7.2365 1.80685C7.26412 1.80685 7.29161 1.80821 7.31909 1.80926C7.77606 1.2137 8.44771 0.836938 9.19712 0.836938C9.55811 0.836938 9.90083 0.924919 10.2106 1.08199C10.6637 0.550484 11.2975 0.219727 11.9997 0.219727C12.702 0.219727 13.3358 0.550484 13.7889 1.08199C14.0986 0.924919 14.4414 0.836938 14.8023 0.836938C15.5518 0.836938 16.2234 1.2137 16.6804 1.80926C16.7079 1.80821 16.7353 1.80685 16.763 1.80685C17.9105 1.80685 18.8762 2.68924 19.1663 3.88986C20.2378 4.05149 21.0939 4.98685 21.287 6.18665C22.1687 6.62373 22.7852 7.62347 22.7852 8.78752C22.7852 10.0114 22.1039 11.0542 21.1493 11.4518C20.4947 15.6392 16.6479 18.8543 11.9998 18.8543C7.3516 18.8543 3.50488 15.6392 2.85032 11.4518C1.89562 11.0542 1.21435 10.0114 1.21435 8.78752Z" fill="#F0C23A"/>
<path d="M1.21435 8.78752C1.21435 7.62347 1.83071 6.62374 2.71236 6.18661C2.9055 4.98686 3.76168 4.05149 4.8331 3.88986C5.12315 2.68924 6.08899 1.80685 7.2365 1.80685C7.26412 1.80685 7.29161 1.80821 7.31909 1.80926C7.77606 1.2137 8.44771 0.836938 9.19712 0.836938C9.55811 0.836938 9.90083 0.92492 10.2106 1.08199C10.6637 0.550484 11.2975 0.219727 11.9997 0.219727C12.702 0.219727 13.3358 0.550484 13.7889 1.08199C14.0986 0.92492 14.4414 0.836938 14.8023 0.836938C15.5518 0.836938 16.2234 1.2137 16.6804 1.80926C16.7079 1.80821 16.7353 1.80685 16.763 1.80685C17.9105 1.80685 18.8762 2.68924 19.1663 3.88986C20.2378 4.05149 21.0939 4.98685 21.287 6.18665C22.1687 6.62373 22.7852 7.62347 22.7852 8.78752C22.7852 10.0114 22.1039 11.0542 21.1493 11.4518C20.4947 15.6392 16.6479 18.8543 11.9998 18.8543C7.3516 18.8543 3.50488 15.6392 2.85032 11.4518C1.89562 11.0542 1.21435 10.0114 1.21435 8.78752Z" stroke="#321313" stroke-width="0.409978" stroke-linecap="round" stroke-linejoin="round"/>
<path d="M6.66792 17.4746V19.7405C6.66792 20.8687 9.05524 21.7831 12.0002 21.7831C14.9451 21.7831 17.3325 20.8687 17.3325 19.7405V17.4746H6.66792Z" fill="#CF7D36"/>
<path d="M6.66792 17.4746V19.7405C6.66792 20.8687 9.05524 21.7831 12.0002 21.7831C14.9451 21.7831 17.3325 20.8687 17.3325 19.7405V17.4746H6.66792Z" stroke="#321313" stroke-width="0.409978" stroke-linecap="round" stroke-linejoin="round"/>
<path d="M0.2037 7.77695C0.203521 7.76111 0.203342 7.74538 0.203342 7.72949H0.211914C0.208521 7.74528 0.205664 7.76111 0.2037 7.77695Z" fill="#CF7D36"/>
<path d="M0.2037 7.77695C0.203521 7.76111 0.203342 7.74538 0.203342 7.72949H0.211914C0.208521 7.74528 0.205664 7.76111 0.2037 7.77695Z" stroke="#321313" stroke-width="0.409978" stroke-linecap="round" stroke-linejoin="round"/>
<path d="M23.7883 7.72949H23.7969C23.7969 7.74532 23.7966 7.76103 23.7966 7.77686C23.7945 7.76103 23.7916 7.74524 23.7883 7.72949Z" fill="#CF7D36"/>
<path d="M23.7883 7.72949H23.7969C23.7969 7.74532 23.7966 7.76103 23.7966 7.77686C23.7945 7.76103 23.7916 7.74524 23.7883 7.72949Z" stroke="#321313" stroke-width="0.409978" stroke-linecap="round" stroke-linejoin="round"/>
<path d="M12 11.8879C20.7989 11.8879 23.594 8.81799 23.7954 7.41027C23.733 14.4418 20.7169 20.4981 12 20.4981C3.28319 20.4981 0.26701 14.4418 0.204576 7.41016C0.405668 8.81793 3.20131 11.8879 12 11.8879Z" fill="#CF7D36"/>
<path d="M12 11.8879C20.7989 11.8879 23.594 8.81799 23.7954 7.41027C23.733 14.4418 20.7169 20.4981 12 20.4981C3.28319 20.4981 0.267009 14.4418 0.204577 7.41016C0.405668 8.81793 3.20131 11.8879 12 11.8879Z" stroke="#321313" stroke-width="0.409978" stroke-linecap="round" stroke-linejoin="round"/>
<path d="M15.1387 4.68891C15.6118 4.3392 16.1084 4.41603 16.6492 4.77697C16.7573 4.84905 16.8532 4.93207 16.9361 5.02198C17.24 4.85694 17.7578 4.8321 18.1576 5.09891C18.5852 5.3842 18.7592 5.90743 18.7239 6.29308C18.7497 6.30826 18.7753 6.32399 18.8006 6.3409C19.3415 6.70182 19.6004 7.19816 19.4719 7.88832" stroke="#321313" stroke-width="0.409978" stroke-linecap="round" stroke-linejoin="round"/>
<circle r="0.5" transform="matrix(1 0 0 -1 11.5 8.5)" fill="#FAF4F4"/>
<circle r="0.5" transform="matrix(1 0 0 -1 8.5 5.5)" fill="#FF9E2B"/>
<circle r="0.5" transform="matrix(1 0 0 -1 6.5 5.5)" fill="#FAF4F4"/>
<circle r="0.5" transform="matrix(1 0 0 -1 8.5 9.5)" fill="#FF9E2B"/>
<circle r="0.5" transform="matrix(1 0 0 -1 4.5 8.5)" fill="#CF7D36"/>
<circle r="0.5" transform="matrix(1 0 0 -1 4.5 6.5)" fill="#FF9E2B"/>
<circle r="0.5" transform="matrix(1 0 0 -1 17.5 9.5)" fill="#CF7D36"/>
<circle cx="11.5" cy="3.5" r="0.5" fill="#F0C23A"/>
<circle cx="17.5" cy="3.5" r="0.5" fill="#CF7D36"/>
<circle cx="20.5" cy="7.5" r="0.5" fill="#FAF4F4"/>
<circle cx="14.5" cy="1.5" r="0.5" fill="#321313"/>
<circle cx="12.5" cy="5.5" r="0.5" fill="#CF7D36"/>
<circle cx="8.5" cy="2.5" r="0.5" fill="#321313"/>
<circle cx="14.5" cy="6.5" r="0.5" fill="#FF9E2B"/>
<circle cx="14.5" cy="10.5" r="0.5" fill="#321313"/>
</g>
<defs>
<clipPath id="clip0_849_5299">
<rect width="24" height="22" fill="white" transform="matrix(-1 0 0 1 24 0)"/>
</clipPath>
</defs>
</svg>
