<svg width="24" height="24" viewBox="0 0 24 24" fill="none" xmlns="http://www.w3.org/2000/svg">
<path d="M3.44126 2.99802L3.68363 2.7048L3.70645 2.6772L3.70645 2.67719C4.64392 1.54306 4.97286 1.17159 5.39606 0.972337C5.81926 0.773089 6.31515 0.756226 7.78658 0.756226H16.5159C18.0836 0.756226 18.6113 0.775143 19.0543 0.997715C19.4973 1.22029 19.8274 1.63238 20.7631 2.89017L20.8456 3.00105L21.4523 2.54968L20.8456 3.00106C21.4714 3.84224 21.9025 4.42354 22.1869 4.91188C22.4616 5.38364 22.5594 5.70385 22.5672 6.01034C22.5749 6.31683 22.4933 6.64156 22.2427 7.12655C21.9832 7.62859 21.5819 8.23087 20.9993 9.10248L16.3722 16.0245C15.2165 17.7535 14.3958 18.9777 13.6688 19.7801C12.9518 20.5715 12.4504 20.811 11.9567 20.81C11.463 20.8091 10.9624 20.5677 10.2484 19.7736C9.52451 18.9684 8.70845 17.7411 7.55932 16.0078L3.10936 9.2957C2.50232 8.38006 2.08375 7.74658 1.81617 7.2196C1.55754 6.71025 1.47839 6.37136 1.49516 6.05305C1.51194 5.73473 1.62627 5.40604 1.93701 4.9267C2.2585 4.43076 2.74133 3.84478 3.44126 2.99802Z" fill="#FF9E2B" stroke="#663908" stroke-width="1.51245"/>
<path d="M18.0828 7.95789C18.6135 6.30526 18.1586 3 12.0939 3C6.02921 3 5.6249 6.30526 6.18083 7.95789C6.48407 8.77109 8.09122 10.3975 12.0939 10.3975C17.0973 10.3975 14.9747 15.9063 12.0939 15.5915C9.78933 15.3396 9.56696 13.8077 9.74384 13.0732" stroke="#321313" stroke-width="1.51245" stroke-linecap="round"/>
</svg>
