<svg width="24" height="25" viewBox="0 0 24 25" fill="none" xmlns="http://www.w3.org/2000/svg">
<path fill-rule="evenodd" clip-rule="evenodd" d="M0.674379 11.0583C-0.35057 12.4135 -0.0495809 14.4058 0.552397 18.3903C1.0099 21.4186 1.23866 22.9327 2.23525 23.8844C2.33628 23.9809 2.44225 24.072 2.55273 24.1575C3.64264 25.0008 5.17395 25.0008 8.23657 25.0008H11.2114C14.3128 25.0008 15.8634 25.0008 16.9591 24.1421C17.0701 24.0551 17.1765 23.9623 17.2778 23.8642C17.7797 23.3779 18.0828 22.7486 18.3136 21.8537C18.6966 21.9677 19.1002 22.0286 19.5171 22.0286C21.993 22.0286 24 19.8796 24 17.2287C24 14.5777 21.993 12.4287 19.5171 12.4287C19.443 12.4287 19.3693 12.4306 19.296 12.4345C19.1935 11.888 19.003 11.4333 18.6973 11.0351C18.5951 10.902 18.4847 10.7754 18.3666 10.656C17.1826 9.45801 15.1922 9.45801 11.2114 9.45801H8.23657C4.20684 9.45801 2.19197 9.45801 1.00507 10.6739C0.886887 10.795 0.776438 10.9234 0.674379 11.0583ZM18.5952 20.4583C18.6981 19.8338 18.7966 19.1163 18.9105 18.2868C19.169 16.4051 19.3658 14.9723 19.3895 13.8433C19.4319 13.8413 19.4745 13.8403 19.5171 13.8403C21.124 13.8403 22.5884 15.2649 22.5884 17.2287C22.5884 19.1924 21.124 20.6171 19.5171 20.6171C19.2009 20.6171 18.8903 20.5619 18.5952 20.4583Z" fill="#663908"/>
<path d="M4.3556 7.64281L3.06993 6.32569C2.40699 5.64653 2.52445 4.53205 3.31441 4.00601V4.00601C4.15522 3.44612 4.22312 2.23582 3.4502 1.58539L2.75457 1" stroke="#FF9E2B" stroke-width="1.41159" stroke-linecap="round"/>
<path d="M9.26576 7.64281L7.98009 6.32569C7.31714 5.64653 7.4346 4.53205 8.22457 4.00601V4.00601C9.06538 3.44612 9.13327 2.23582 8.36036 1.58539L7.66472 1" stroke="#FF9E2B" stroke-width="1.41159" stroke-linecap="round"/>
<path d="M13.7487 7.64281L12.463 6.32569C11.8001 5.64653 11.9175 4.53205 12.7075 4.00601V4.00601C13.5483 3.44612 13.6162 2.23582 12.8433 1.58539L12.1476 1" stroke="#FF9E2B" stroke-width="1.41159" stroke-linecap="round"/>
</svg>
