<svg width="24" height="24" viewBox="0 0 24 24" fill="none" xmlns="http://www.w3.org/2000/svg">
<g clip-path="url(#clip0_849_5537)">
<g clip-path="url(#clip1_849_5537)">
<path fill-rule="evenodd" clip-rule="evenodd" d="M12.5517 13.1702C13.3408 14.0805 12.292 15.3112 12.7045 15.4346C12.7045 15.4347 13.2674 14.6406 13.8535 14.7589C12.8665 15.9382 13.3591 16.7372 13.3572 16.7284C13.9724 16.0383 14.7149 16.0627 14.5433 16.1702C13.8257 16.6192 13.9715 17.9331 13.9715 17.9331C13.9715 17.9331 14.7405 17.338 15.0684 17.6884C14.1035 18.1149 14.4801 18.6836 14.4589 19.3478C14.4196 20.667 13.5632 21.2138 13.4089 21.3018L13.8035 21.3231L13.7872 21.6259L10.0555 21.425L10.0718 21.1222L10.5333 21.147C10.2434 21.0031 9.14558 20.3648 9.13417 18.9455C9.13417 18.9455 9.15014 18.1205 9.4412 17.8048C9.49694 18.1115 9.6828 18.1505 9.6828 18.1505C9.79729 18.171 9.56083 17.4621 9.57702 17.1614C9.6143 16.4689 10.1182 16.2357 10.1182 16.2357C10.1182 16.2357 9.96167 16.9938 10.3807 17.2623C10.4772 17.0874 10.2462 15.1016 11.4971 14.7768C11.1452 15.4086 11.2041 15.6578 11.2041 15.6578C11.2041 15.6578 11.2173 15.9878 11.2341 15.9053C11.3626 15.2723 11.9645 14.6862 11.9645 14.6862C11.9645 14.6862 12.2951 14.4293 12.5517 13.1703L12.5517 13.1702ZM11.4448 17.8983C11.2586 18.1342 11.3656 19.3693 11.3656 19.3693C11.082 19.2672 10.7703 18.6833 10.6991 18.5957C10.6099 18.4859 10.6179 19.3002 10.945 19.665C10.5765 19.5599 10.4041 19.2452 10.4041 19.2452C10.4041 19.2452 10.4682 20.6038 12.0375 21.1122C12.3164 21.3008 13.887 20.437 13.1376 18.9295C12.7948 20.1984 12.3193 20.1728 12.3193 20.1728C12.3193 20.1728 12.7415 19.0384 12.4432 18.6753C12.4432 18.6753 12.2405 19.2806 11.9032 19.3114C11.7543 18.3199 11.4448 17.8983 11.4448 17.8983Z" fill="#A4101B" stroke="#A4101B" stroke-width="0.00487784"/>
</g>
<rect x="11.1" y="0.1" width="1.8" height="2.8" fill="#9F9F9F" stroke="#321313" stroke-width="0.2"/>
<path d="M0.295109 10.3691C0.154176 9.32085 0.150119 7.96434 0.150003 6.15H23.85C23.8499 7.96434 23.8458 9.32085 23.7049 10.3691C23.5607 11.4417 23.2756 12.1691 22.7224 12.7224C22.1691 13.2756 21.4417 13.5607 20.3691 13.7049C19.2922 13.8497 17.8899 13.85 16 13.85H8C6.11014 13.85 4.70784 13.8497 3.6309 13.7049C2.55828 13.5607 1.83091 13.2756 1.27764 12.7224C0.724368 12.1691 0.439319 11.4417 0.295109 10.3691Z" fill="#9F9F9F" stroke="#321313" stroke-width="0.3"/>
<path d="M0.152868 5.85C0.231665 3.79322 1.92393 2.15 4 2.15L20 2.15C22.0761 2.15 23.7683 3.79323 23.8471 5.85L0.152868 5.85Z" fill="#9F9F9F" stroke="#321313" stroke-width="0.3"/>
<rect x="10.1" y="0.1" width="3.8" height="0.8" rx="0.2" fill="#9F9F9F" stroke="#321313" stroke-width="0.2"/>
<rect x="5" y="19" width="14" height="5" fill="#321313"/>
<rect x="5" y="14" width="1" height="7" fill="#321313"/>
<rect x="18" y="14" width="1" height="7" fill="#321313"/>
</g>
<defs>
<clipPath id="clip0_849_5537">
<rect width="24" height="24" fill="white"/>
</clipPath>
<clipPath id="clip1_849_5537">
<rect width="5.86382" height="8.38194" fill="white" transform="matrix(-0.998554 -0.0537607 -0.0537607 0.998554 15.3062 13.3154)"/>
</clipPath>
</defs>
</svg>
