<svg width="23" height="24" viewBox="0 0 23 24" fill="none" xmlns="http://www.w3.org/2000/svg">
<path d="M17.2163 7.33301H1.34624C0.982426 7.33301 0.6875 7.62793 0.6875 7.99174V18.9203C0.6875 19.1727 0.831728 19.4029 1.05885 19.5131L3.38366 20.6402C3.41948 20.6576 3.4568 20.6717 3.49516 20.6823L7.95267 21.9173C8.14107 21.9695 8.34292 21.9353 8.50363 21.824L12.9984 18.7108C13.041 18.6813 13.0869 18.6569 13.1352 18.6381L16.2369 17.4351C16.4049 17.3699 16.5389 17.2387 16.6076 17.0721L17.8252 14.1203C17.8581 14.0407 17.875 13.9553 17.875 13.8691V7.99174C17.875 7.62793 17.5801 7.33301 17.2163 7.33301Z" fill="#F0C23A" stroke="#321313" stroke-width="0.658735"/>
<path d="M1.95943 17.1452L1.58978 17.3065C1.17134 17.4891 0.877263 17.8753 0.812535 18.3272L0.215453 22.4959C0.101753 23.2898 0.717678 24.0002 1.51962 24.0002H16.8945C17.6678 24.0002 18.2748 23.3373 18.2069 22.567L17.4166 13.6002L17.0412 13.7641C16.6969 13.9144 16.4331 14.2045 16.3162 14.5615L15.7996 16.1394C15.6642 16.5529 15.3334 16.8729 14.9156 16.9945L14.6643 17.0676C14.1186 17.2264 13.5325 17.0173 13.2105 16.549L13.0651 16.3374C12.9141 16.1178 12.8333 15.8575 12.8333 15.591V14.4002V12.8002C12.8333 12.3143 12.5454 11.8746 12.1 11.6802L11.8522 11.5721C11.3412 11.3491 10.7453 11.4719 10.364 11.8786L10.124 12.1346C9.81355 12.4658 9.69548 12.9335 9.81152 13.3724L10.0395 14.2347C10.0686 14.3446 10.0833 14.4578 10.0833 14.5714V17.6002V18.567C10.0833 18.9672 9.90137 19.3457 9.58888 19.5958L8.80363 20.224C8.45798 20.5006 7.99655 20.5851 7.57534 20.4489L7.19436 20.3258C6.60622 20.1357 6.22932 19.5623 6.28806 18.947L6.40667 17.7045C6.4133 17.6351 6.4144 17.5652 6.40997 17.4956L6.22613 14.6073C6.20162 14.2222 6.00951 13.8672 5.70053 13.636L5.19699 13.2593C4.81763 12.9755 4.31509 12.9172 3.88086 13.1067L3.54054 13.2552C3.06038 13.4648 2.74998 13.9389 2.74998 14.4627V15.2002V15.9377C2.74998 16.4615 2.43959 16.9356 1.95943 17.1452Z" fill="#663908"/>
<path d="M13.1304 0.219299L8.46094 6.4H11.362L14.9633 1.1036C15.0988 0.904223 15.0109 0.630524 14.7847 0.547321L13.554 0.094848C13.4008 0.0385151 13.2288 0.0890512 13.1304 0.219299Z" fill="#321313"/>
<path d="M14.6669 6.40078V5.19602C14.6669 4.97774 14.49 4.80078 14.2717 4.80078H4.06223C3.84395 4.80078 3.66699 4.97774 3.66699 5.19602V6.40078" stroke="#663908" stroke-width="1.05398"/>
<rect x="0.526988" y="6.92738" width="17.2792" height="16.546" rx="0.790483" stroke="#663908" stroke-width="1.05398"/>
<path d="M1.15456 18.9594C0.757125 18.9808 0.359974 18.9136 0 18.7641V16.8892C0 17.125 0.1066 17.3511 0.296348 17.5178C0.486095 17.6845 0.743448 17.7781 1.01179 17.7781C1.28014 17.7781 1.53749 17.6845 1.72724 17.5178C1.91698 17.3511 2.02358 17.125 2.02358 16.8892V14.5188C2.02358 13.9688 2.27232 13.4412 2.71506 13.0523C3.15781 12.6633 3.7583 12.4448 4.38443 12.4448C5.01057 12.4448 5.61106 12.6633 6.05381 13.0523C6.49655 13.4412 6.74528 13.9688 6.74528 14.5188V19.2596C6.74528 19.4953 6.85188 19.7214 7.04163 19.8881C7.23138 20.0548 7.48873 20.1485 7.75707 20.1485C8.02542 20.1485 8.28277 20.0548 8.47252 19.8881C8.66227 19.7214 8.76887 19.4953 8.76887 19.2596V12.7411C8.76887 12.191 9.0176 11.6634 9.46034 11.2745C9.90309 10.8855 10.5036 10.667 11.1297 10.667C11.7559 10.667 12.3563 10.8855 12.7991 11.2745C13.2418 11.6634 13.4906 12.191 13.4906 12.7411V15.704C13.4906 15.9398 13.5972 16.1659 13.7869 16.3326C13.9767 16.4993 14.234 16.5929 14.5024 16.5929C14.7707 16.5929 15.0281 16.4993 15.2178 16.3326C15.4076 16.1659 15.5142 15.9398 15.5142 15.704V14.5188C15.5143 13.9688 15.7631 13.4413 16.2058 13.0524C16.6485 12.6635 17.2489 12.4449 17.875 12.4448V13.63C17.6067 13.63 17.3493 13.7236 17.1596 13.8903C16.9698 14.057 16.8632 14.2831 16.8632 14.5188V15.704C16.8632 16.2541 16.6145 16.7817 16.1717 17.1706C15.729 17.5596 15.1285 17.7781 14.5024 17.7781C13.8762 17.7781 13.2757 17.5596 12.833 17.1706C12.3902 16.7817 12.1415 16.2541 12.1415 15.704V12.7411C12.1415 12.5053 12.0349 12.2792 11.8452 12.1125C11.6554 11.9458 11.3981 11.8522 11.1297 11.8522C10.8614 11.8522 10.604 11.9458 10.4143 12.1125C10.2245 12.2792 10.1179 12.5053 10.1179 12.7411V19.2596C10.1179 19.8097 9.86919 20.3372 9.42645 20.7262C8.9837 21.1151 8.38321 21.3337 7.75707 21.3337C7.13094 21.3337 6.53045 21.1151 6.0877 20.7262C5.64496 20.3372 5.39623 19.8097 5.39623 19.2596V14.5188C5.39623 14.2831 5.28963 14.057 5.09988 13.8903C4.91013 13.7236 4.65278 13.63 4.38443 13.63C4.11609 13.63 3.85874 13.7236 3.66899 13.8903C3.47924 14.057 3.37264 14.2831 3.37264 14.5188V16.8892C3.37233 17.239 3.27139 17.5831 3.07919 17.8895C2.887 18.1958 2.60979 18.4546 2.27331 18.6416C1.93683 18.8287 1.552 18.938 1.15456 18.9594Z" fill="#663908"/>
<path d="M17.4175 12.2666H21.342C21.7059 12.2666 22.0008 12.5615 22.0008 12.9253V19.6079C22.0008 19.9717 21.7059 20.2666 21.342 20.2666H17.4175" stroke="#663908" stroke-width="1.31747"/>
</svg>
