<svg width="24" height="25" viewBox="0 0 24 25" fill="none" xmlns="http://www.w3.org/2000/svg">
<path d="M4.41718 19.7101L2.64395 13.4178C2.26317 12.0666 3.2785 10.7256 4.68233 10.7256H19.3397C20.7365 10.7256 21.7508 12.0542 21.3825 13.4016L19.663 19.6939C19.4114 20.6148 18.5748 21.2535 17.6202 21.2535H6.45557C5.50718 21.2535 4.67443 20.623 4.41718 19.7101Z" fill="#FF9E2B" stroke="#663908" stroke-width="1.05889"/>
<path d="M8.36387 5.28253H7.54073C5.79019 5.28253 4.37109 6.70162 4.37109 8.45216C4.37109 8.91897 4.74952 9.2974 5.21633 9.2974H18.8687C19.3355 9.2974 19.7139 8.91897 19.7139 8.45216V7.07969C19.7139 6.08715 18.9093 5.28253 17.9168 5.28253H16.7345C15.9968 5.28253 15.3829 4.71577 15.324 3.98041C15.1892 2.29724 13.784 1 12.0954 1H9.60506C9.58708 1 9.58266 1.02503 9.59956 1.03119L10.3217 1.29429C10.866 1.49258 11.2282 2.01004 11.2282 2.58932C11.2282 3.14067 10.8997 3.63897 10.3929 3.85617L10.3345 3.88119C9.96349 4.04022 9.63221 4.27929 9.36438 4.5813L8.99375 4.99923C8.83397 5.1794 8.60469 5.28253 8.36387 5.28253Z" fill="#FAF4F4" stroke="#663908" stroke-width="1.23537"/>
<rect x="-0.000488281" y="8.94141" width="24" height="4.46097" rx="1.05889" fill="#663908"/>
<path d="M5.82861 21.2529H18.3429V23.5883C18.3429 24.368 17.7108 25.0001 16.931 25.0001H7.24047C6.46072 25.0001 5.82861 24.368 5.82861 23.5883V21.2529Z" fill="#663908"/>
</svg>
