<svg width="24" height="24" viewBox="0 0 24 24" fill="none" xmlns="http://www.w3.org/2000/svg">
<rect width="13.5907" height="3.53044" rx="0.999889" transform="matrix(0.868329 0.49599 -0.491341 0.870967 1.73486 5.92871)" fill="#663908"/>
<ellipse cx="12.7789" cy="1.47602" rx="1.46686" ry="1.47602" fill="#321313"/>
<rect x="7.08447" y="2.4082" width="11.7349" height="6.08858" rx="1.99978" fill="#FF9E2B"/>
<path fill-rule="evenodd" clip-rule="evenodd" d="M6.90442 5.1748C6.4497 5.1748 6.05225 5.48162 5.93711 5.92152L3.84029 13.9331C3.72725 14.365 3.68732 14.8128 3.72216 15.2578L4.11751 20.3087C4.28043 22.3902 6.01702 23.9962 8.10487 23.9962H11.7952H16.7212H16.9071C19.0389 23.9962 20.796 22.3241 20.9017 20.1949L21.0652 16.9003C22.8029 16.0413 23.9978 14.2524 23.9978 12.1849C23.9978 9.76351 22.359 7.72441 20.1288 7.11341L19.9771 6.03537C19.9076 5.54184 19.4853 5.1748 18.9869 5.1748H6.90442ZM21.1498 15.196L21.1613 14.9649C21.1738 14.7125 21.1624 14.4595 21.1272 14.2093L20.349 8.67889C21.6771 9.29004 22.5979 10.6309 22.5979 12.1849C22.5979 13.4021 22.033 14.4885 21.1498 15.196Z" fill="#663908"/>
</svg>
