<svg width="24" height="24" viewBox="0 0 24 24" fill="none" xmlns="http://www.w3.org/2000/svg">
<path d="M22.2008 10.6245C23.3388 11.2505 23.9996 11.9973 23.9996 12.7993C23.9996 15.0085 18.9852 16.7993 12.7996 16.7993C6.61401 16.7993 1.59961 15.0085 1.59961 12.7993C1.59961 11.5565 3.18601 10.4465 5.67521 9.71289" fill="#321313"/>
<path d="M22.7996 11.5993C22.7996 11.3477 22.7276 11.1025 22.6032 10.8637C22.4768 10.7821 22.3428 10.7025 22.2012 10.6245L5.67561 9.71289C3.18601 10.4465 1.59961 11.5565 1.59961 12.7993C1.59961 13.0489 1.66681 13.2925 1.78921 13.5293C3.69641 14.7633 7.37401 15.5993 11.5996 15.5993C17.7852 15.5993 22.7996 13.8085 22.7996 11.5993Z" fill="#321313"/>
<path d="M19.9774 9.20039H21.0334C21.3958 9.20039 21.743 9.05639 21.999 8.80039C22.255 8.54439 22.399 8.19679 22.399 7.83479V6.00039H19.999V4.40039H22.799C23.4618 4.40039 23.999 4.93759 23.999 5.60039V8.03439C23.999 9.00599 23.489 9.90639 22.6562 10.4064C22.2262 10.664 21.7342 10.8004 21.233 10.8004H19.541L19.9774 9.20039Z" fill="#663908"/>
<path d="M22.799 8.03439V5.60039C22.799 4.93759 22.2618 4.40039 21.599 4.40039H19.999V6.00039H21.199H22.399V7.83479C22.399 8.19719 22.255 8.54439 21.999 8.80039C21.743 9.05639 21.3954 9.20039 21.0334 9.20039H19.9774L19.541 10.8004H20.033C20.5342 10.8004 21.0262 10.664 21.4562 10.406C22.289 9.90639 22.799 9.00599 22.799 8.03439Z" fill="#663908"/>
<path d="M20.0001 2.80078V8.74158C20.0001 10.5064 19.0433 12.1324 17.5009 12.9892C16.7789 13.3904 15.9669 13.6008 15.1409 13.6008H10.4593C9.6337 13.6008 8.8213 13.3904 8.0997 12.9892C6.5569 12.1324 5.6001 10.5064 5.6001 8.74158V2.80078" fill="#663908"/>
<path d="M7.19971 7.54158C7.19971 9.30638 8.15651 10.9324 9.69891 11.7892C10.4209 12.1904 11.2329 12.4008 12.0589 12.4008H16.7405C17.4497 12.4008 18.1457 12.2368 18.7861 11.9384C19.5513 11.066 19.9997 9.93878 19.9997 8.74158V2.80078H7.19971V7.54158Z" fill="#663908"/>
<path d="M12.8001 5.6C16.7765 5.6 20.0001 4.3464 20.0001 2.8C20.0001 1.2536 16.7765 0 12.8001 0C8.82365 0 5.6001 1.2536 5.6001 2.8C5.6001 4.3464 8.82365 5.6 12.8001 5.6Z" fill="#321313"/>
<path d="M12.7998 2.39941C9.93136 2.39941 7.45496 3.05181 6.29736 3.99581C7.45176 4.94301 9.92536 5.59941 12.7998 5.59941C15.6734 5.59941 18.1466 4.94301 19.3014 3.99621L19.2898 3.98541C18.127 3.04701 15.6578 2.39941 12.7998 2.39941Z" fill="#FF9E2B"/>
<path d="M9.2 11.601L9.04 11.441C8.118 10.519 6.8672 10.001 5.5632 10.001C4.0696 10.001 2.6568 10.6798 1.7236 11.8466C0.608 13.241 0 14.9742 0 16.7602C0 18.3446 0.514 19.8858 1.4644 21.1534L1.6988 21.4658C2.8956 23.0618 4.774 24.001 6.7688 24.001C8.0896 24.001 9.3776 23.5882 10.4524 22.8206L10.6256 22.697C12.9944 21.005 14.4 18.2738 14.4 15.363C14.4 14.483 14.0916 13.6306 13.528 12.9546C12.8132 12.097 11.7544 11.601 10.638 11.601H9.2Z" fill="#FF9E2B"/>
<path d="M13.5281 12.9546C12.8133 12.097 11.7545 11.601 10.6381 11.601H9.2001L9.0401 11.441C8.1181 10.519 6.8673 10.001 5.5633 10.001C5.0949 10.001 4.6373 10.075 4.1973 10.2026C3.8761 10.4458 3.5805 10.7258 3.3237 11.0466C2.2081 12.441 1.6001 14.1742 1.6001 15.9602C1.6001 17.5446 2.1137 19.0858 3.0645 20.3534L3.2989 20.6658C4.4957 22.2618 6.3741 23.201 8.3689 23.201C9.0541 23.201 9.7293 23.0878 10.3713 22.8738C10.3981 22.8554 10.4261 22.8394 10.4525 22.8206L10.6257 22.6966C12.9945 21.005 14.4001 18.2738 14.4001 15.363C14.4001 14.483 14.0917 13.6306 13.5281 12.9546Z" fill="#FF9E2B"/>
<path d="M8.00017 13.999L7.32697 14.1914C6.03736 14.5598 5.09217 15.663 4.92577 16.9938C4.84377 17.6494 4.95777 18.3142 5.25337 18.9054L6.00017 20.399L7.69297 19.5526C8.63457 19.0818 9.27856 18.1718 9.40897 17.127C9.52937 16.163 9.19817 15.197 8.51097 14.5102L8.00017 13.999Z" fill="#663908"/>
<path d="M7.92257 14.0215L7.32697 14.1915C6.03737 14.5599 5.09217 15.6631 4.92577 16.9939C4.84377 17.6495 4.95777 18.3143 5.25337 18.9055L5.74017 19.8795L7.19337 19.1531C8.13497 18.6823 8.77897 17.7719 8.90937 16.7275C9.02977 15.7635 8.69857 14.7975 8.01137 14.1107L7.92257 14.0215Z" fill="#663908"/>
<path d="M10.9765 11.6176C10.8645 11.6072 10.7521 11.5988 10.6385 11.5988H9.20049L9.04049 11.4388C8.72849 11.1268 8.37689 10.8656 8.00049 10.6504V13.9988L10.9765 11.6176Z" fill="#A4101B"/>
</svg>
