<svg width="24" height="24" viewBox="0 0 24 24" fill="none" xmlns="http://www.w3.org/2000/svg">
<circle cx="12" cy="12" r="11.8235" fill="#E0DFDF" stroke="#321313" stroke-width="0.352941"/>
<circle cx="12" cy="9" r="6.85" fill="#F0C23A" stroke="#321313" stroke-width="0.3"/>
<path d="M14.6141 14.0489C14.6057 14.0528 14.5899 14.0538 14.5629 14.04C14.5364 14.0265 14.5048 14.0013 14.4703 13.9644C14.4015 13.891 14.327 13.7776 14.2644 13.6413C14.2018 13.5051 14.1642 13.3747 14.1533 13.2747C14.1478 13.2245 14.1492 13.1841 14.1562 13.1552C14.1633 13.1257 14.1743 13.1144 14.1828 13.1105C14.1913 13.1066 14.207 13.1056 14.234 13.1194C14.2605 13.1329 14.2921 13.1581 14.3266 13.195C14.3954 13.2684 14.4699 13.3819 14.5325 13.5181C14.5951 13.6543 14.6327 13.7847 14.6437 13.8847C14.6492 13.9349 14.6477 13.9753 14.6407 14.0043C14.6336 14.0337 14.6226 14.045 14.6141 14.0489Z" fill="#F0C23A" stroke="#321313" stroke-width="0.0737678"/>
<path d="M15.6141 13.0489C15.6057 13.0528 15.5899 13.0538 15.5629 13.04C15.5364 13.0265 15.5048 13.0013 15.4703 12.9644C15.4015 12.891 15.327 12.7776 15.2644 12.6413C15.2018 12.5051 15.1642 12.3747 15.1533 12.2747C15.1478 12.2245 15.1492 12.1841 15.1562 12.1552C15.1633 12.1257 15.1743 12.1144 15.1828 12.1105C15.1913 12.1066 15.207 12.1056 15.234 12.1194C15.2605 12.1329 15.2921 12.1581 15.3266 12.195C15.3954 12.2684 15.4699 12.3819 15.5325 12.5181C15.5951 12.6543 15.6327 12.7847 15.6437 12.8847C15.6492 12.9349 15.6477 12.9753 15.6407 13.0043C15.6336 13.0337 15.6226 13.045 15.6141 13.0489Z" fill="#F0C23A" stroke="#321313" stroke-width="0.0737678"/>
<path d="M17.6141 10.0489C17.6057 10.0528 17.5899 10.0538 17.5629 10.04C17.5364 10.0265 17.5048 10.0013 17.4703 9.96443C17.4015 9.891 17.327 9.77755 17.2644 9.64134C17.2018 9.50512 17.1642 9.37471 17.1533 9.27471C17.1478 9.2245 17.1492 9.18409 17.1562 9.15515C17.1633 9.1257 17.1743 9.11443 17.1828 9.11054C17.1913 9.10665 17.207 9.1056 17.234 9.11939C17.2605 9.13294 17.2921 9.15814 17.3266 9.19501C17.3954 9.26844 17.4699 9.38188 17.5325 9.5181C17.5951 9.65431 17.6327 9.78473 17.6437 9.88473C17.6492 9.93493 17.6477 9.97535 17.6407 10.0043C17.6336 10.0337 17.6226 10.045 17.6141 10.0489Z" fill="#F0C23A" stroke="#321313" stroke-width="0.0737678"/>
<path d="M12.6141 12.0489C12.6057 12.0528 12.5899 12.0538 12.5629 12.04C12.5364 12.0265 12.5048 12.0013 12.4703 11.9644C12.4015 11.891 12.327 11.7776 12.2644 11.6413C12.2018 11.5051 12.1642 11.3747 12.1533 11.2747C12.1478 11.2245 12.1492 11.1841 12.1562 11.1552C12.1633 11.1257 12.1743 11.1144 12.1828 11.1105C12.1913 11.1066 12.207 11.1056 12.234 11.1194C12.2605 11.1329 12.2921 11.1581 12.3266 11.195C12.3954 11.2684 12.4699 11.3819 12.5325 11.5181C12.5951 11.6543 12.6327 11.7847 12.6437 11.8847C12.6492 11.9349 12.6477 11.9753 12.6407 12.0043C12.6336 12.0337 12.6226 12.045 12.6141 12.0489Z" fill="#F0C23A" stroke="#321313" stroke-width="0.0737678"/>
<path d="M13.6141 8.0489C13.6057 8.05279 13.5899 8.05383 13.5629 8.04005C13.5364 8.0265 13.5048 8.00129 13.4703 7.96443C13.4015 7.891 13.327 7.77755 13.2644 7.64134C13.2018 7.50512 13.1642 7.37471 13.1533 7.27471C13.1478 7.2245 13.1492 7.18409 13.1562 7.15515C13.1633 7.1257 13.1743 7.11443 13.1828 7.11054C13.1913 7.10665 13.207 7.1056 13.234 7.11939C13.2605 7.13294 13.2921 7.15814 13.3266 7.19501C13.3954 7.26844 13.4699 7.38188 13.5325 7.5181C13.5951 7.65431 13.6327 7.78473 13.6437 7.88473C13.6492 7.93493 13.6477 7.97535 13.6407 8.00428C13.6336 8.03373 13.6226 8.04501 13.6141 8.0489Z" fill="#F0C23A" stroke="#321313" stroke-width="0.0737678"/>
<path d="M12.6141 5.0489C12.6057 5.05279 12.5899 5.05383 12.5629 5.04005C12.5364 5.0265 12.5048 5.00129 12.4703 4.96443C12.4015 4.891 12.327 4.77755 12.2644 4.64134C12.2018 4.50512 12.1642 4.37471 12.1533 4.27471C12.1478 4.2245 12.1492 4.18409 12.1562 4.15515C12.1633 4.1257 12.1743 4.11443 12.1828 4.11054C12.1913 4.10665 12.207 4.1056 12.234 4.11939C12.2605 4.13294 12.2921 4.15814 12.3266 4.19501C12.3954 4.26844 12.4699 4.38188 12.5325 4.5181C12.5951 4.65431 12.6327 4.78473 12.6437 4.88473C12.6492 4.93493 12.6477 4.97535 12.6407 5.00428C12.6336 5.03373 12.6226 5.04501 12.6141 5.0489Z" fill="#F0C23A" stroke="#321313" stroke-width="0.0737678"/>
<path d="M10.6141 14.0489C10.6057 14.0528 10.5899 14.0538 10.5629 14.04C10.5364 14.0265 10.5048 14.0013 10.4703 13.9644C10.4015 13.891 10.327 13.7776 10.2644 13.6413C10.2018 13.5051 10.1642 13.3747 10.1533 13.2747C10.1478 13.2245 10.1492 13.1841 10.1562 13.1552C10.1633 13.1257 10.1743 13.1144 10.1828 13.1105C10.1913 13.1066 10.207 13.1056 10.234 13.1194C10.2605 13.1329 10.2921 13.1581 10.3266 13.195C10.3954 13.2684 10.4699 13.3819 10.5325 13.5181C10.5951 13.6543 10.6327 13.7847 10.6437 13.8847C10.6492 13.9349 10.6477 13.9753 10.6407 14.0043C10.6336 14.0337 10.6226 14.045 10.6141 14.0489Z" fill="#F0C23A" stroke="#321313" stroke-width="0.0737678"/>
<path d="M7.61413 9.0489C7.60567 9.05279 7.58992 9.05383 7.56294 9.04005C7.53644 9.0265 7.50482 9.00129 7.47029 8.96443C7.40153 8.891 7.32703 8.77755 7.26442 8.64134C7.2018 8.50512 7.16421 8.37471 7.15325 8.27471C7.14775 8.2245 7.14921 8.18409 7.15619 8.15515C7.16329 8.1257 7.17433 8.11443 7.1828 8.11054C7.19127 8.10665 7.20702 8.1056 7.23399 8.11939C7.2605 8.13294 7.29212 8.15814 7.32664 8.19501C7.39541 8.26844 7.46991 8.38188 7.53252 8.5181C7.59513 8.65431 7.63273 8.78473 7.64368 8.88473C7.64918 8.93493 7.64772 8.97535 7.64075 9.00428C7.63365 9.03373 7.6226 9.04501 7.61413 9.0489Z" fill="#F0C23A" stroke="#321313" stroke-width="0.0737678"/>
<path d="M10.6141 7.0489C10.6057 7.05279 10.5899 7.05383 10.5629 7.04005C10.5364 7.0265 10.5048 7.00129 10.4703 6.96443C10.4015 6.891 10.327 6.77755 10.2644 6.64134C10.2018 6.50512 10.1642 6.37471 10.1533 6.27471C10.1478 6.2245 10.1492 6.18409 10.1562 6.15515C10.1633 6.1257 10.1743 6.11443 10.1828 6.11054C10.1913 6.10665 10.207 6.1056 10.234 6.11939C10.2605 6.13294 10.2921 6.15814 10.3266 6.19501C10.3954 6.26844 10.4699 6.38188 10.5325 6.5181C10.5951 6.65431 10.6327 6.78473 10.6437 6.88473C10.6492 6.93493 10.6477 6.97535 10.6407 7.00428C10.6336 7.03373 10.6226 7.04501 10.6141 7.0489Z" fill="#F0C23A" stroke="#321313" stroke-width="0.0737678"/>
<path d="M14.6141 5.0489C14.6057 5.05279 14.5899 5.05383 14.5629 5.04005C14.5364 5.0265 14.5048 5.00129 14.4703 4.96443C14.4015 4.891 14.327 4.77755 14.2644 4.64134C14.2018 4.50512 14.1642 4.37471 14.1533 4.27471C14.1478 4.2245 14.1492 4.18409 14.1562 4.15515C14.1633 4.1257 14.1743 4.11443 14.1828 4.11054C14.1913 4.10665 14.207 4.1056 14.234 4.11939C14.2605 4.13294 14.2921 4.15814 14.3266 4.19501C14.3954 4.26844 14.4699 4.38188 14.5325 4.5181C14.5951 4.65431 14.6327 4.78473 14.6437 4.88473C14.6492 4.93493 14.6477 4.97535 14.6407 5.00428C14.6336 5.03373 14.6226 5.04501 14.6141 5.0489Z" fill="#F0C23A" stroke="#321313" stroke-width="0.0737678"/>
<path d="M8.61413 6.0489C8.60567 6.05279 8.58992 6.05383 8.56294 6.04005C8.53644 6.0265 8.50482 6.00129 8.47029 5.96443C8.40153 5.891 8.32703 5.77755 8.26442 5.64134C8.2018 5.50512 8.16421 5.37471 8.15325 5.27471C8.14775 5.2245 8.14921 5.18409 8.15619 5.15515C8.16329 5.1257 8.17433 5.11443 8.1828 5.11054C8.19127 5.10665 8.20702 5.1056 8.23399 5.11939C8.2605 5.13294 8.29212 5.15814 8.32664 5.19501C8.39541 5.26844 8.46991 5.38188 8.53252 5.5181C8.59513 5.65431 8.63273 5.78473 8.64368 5.88473C8.64918 5.93493 8.64772 5.97535 8.64075 6.00428C8.63365 6.03373 8.6226 6.04501 8.61413 6.0489Z" fill="#F0C23A" stroke="#321313" stroke-width="0.0737678"/>
<path d="M16.6141 7.0489C16.6057 7.05279 16.5899 7.05383 16.5629 7.04005C16.5364 7.0265 16.5048 7.00129 16.4703 6.96443C16.4015 6.891 16.327 6.77755 16.2644 6.64134C16.2018 6.50512 16.1642 6.37471 16.1533 6.27471C16.1478 6.2245 16.1492 6.18409 16.1562 6.15515C16.1633 6.1257 16.1743 6.11443 16.1828 6.11054C16.1913 6.10665 16.207 6.1056 16.234 6.11939C16.2605 6.13294 16.2921 6.15814 16.3266 6.19501C16.3954 6.26844 16.4699 6.38188 16.5325 6.5181C16.5951 6.65431 16.6327 6.78473 16.6437 6.88473C16.6492 6.93493 16.6477 6.97535 16.6407 7.00428C16.6336 7.03373 16.6226 7.04501 16.6141 7.0489Z" fill="#F0C23A" stroke="#321313" stroke-width="0.0737678"/>
<path d="M9.61413 12.0489C9.60567 12.0528 9.58992 12.0538 9.56294 12.04C9.53644 12.0265 9.50482 12.0013 9.47029 11.9644C9.40153 11.891 9.32703 11.7776 9.26442 11.6413C9.2018 11.5051 9.16421 11.3747 9.15325 11.2747C9.14775 11.2245 9.14921 11.1841 9.15619 11.1552C9.16329 11.1257 9.17433 11.1144 9.1828 11.1105C9.19127 11.1066 9.20702 11.1056 9.23399 11.1194C9.2605 11.1329 9.29212 11.1581 9.32664 11.195C9.39541 11.2684 9.46991 11.3819 9.53252 11.5181C9.59513 11.6543 9.63273 11.7847 9.64368 11.8847C9.64918 11.9349 9.64772 11.9753 9.64075 12.0043C9.63365 12.0337 9.6226 12.045 9.61413 12.0489Z" fill="#F0C23A" stroke="#321313" stroke-width="0.0737678"/>
<path d="M9.61413 9.0489C9.60567 9.05279 9.58992 9.05383 9.56294 9.04005C9.53644 9.0265 9.50482 9.00129 9.47029 8.96443C9.40153 8.891 9.32703 8.77755 9.26442 8.64134C9.2018 8.50512 9.16421 8.37471 9.15325 8.27471C9.14775 8.2245 9.14921 8.18409 9.15619 8.15515C9.16329 8.1257 9.17433 8.11443 9.1828 8.11054C9.19127 8.10665 9.20702 8.1056 9.23399 8.11939C9.2605 8.13294 9.29212 8.15814 9.32664 8.19501C9.39541 8.26844 9.46991 8.38188 9.53252 8.5181C9.59513 8.65431 9.63273 8.78473 9.64368 8.88473C9.64918 8.93493 9.64772 8.97535 9.64075 9.00428C9.63365 9.03373 9.6226 9.04501 9.61413 9.0489Z" fill="#F0C23A" stroke="#321313" stroke-width="0.0737678"/>
<path d="M7.61413 12.0489C7.60567 12.0528 7.58992 12.0538 7.56294 12.04C7.53644 12.0265 7.50482 12.0013 7.47029 11.9644C7.40153 11.891 7.32703 11.7776 7.26442 11.6413C7.2018 11.5051 7.16421 11.3747 7.15325 11.2747C7.14775 11.2245 7.14921 11.1841 7.15619 11.1552C7.16329 11.1257 7.17433 11.1144 7.1828 11.1105C7.19127 11.1066 7.20702 11.1056 7.23399 11.1194C7.2605 11.1329 7.29212 11.1581 7.32664 11.195C7.39541 11.2684 7.46991 11.3819 7.53252 11.5181C7.59513 11.6543 7.63273 11.7847 7.64368 11.8847C7.64918 11.9349 7.64772 11.9753 7.64075 12.0043C7.63365 12.0337 7.6226 12.045 7.61413 12.0489Z" fill="#F0C23A" stroke="#321313" stroke-width="0.0737678"/>
<path d="M10.4621 14.4899C10.4533 14.4866 10.4415 14.4762 10.4321 14.4474C10.423 14.4191 10.4184 14.3789 10.4201 14.3284C10.4234 14.2279 10.4509 14.095 10.503 13.9544C10.555 13.8138 10.6206 13.695 10.6836 13.6165C10.7152 13.5772 10.7448 13.5496 10.7702 13.5341C10.7961 13.5183 10.8119 13.5181 10.8206 13.5213C10.8293 13.5246 10.8412 13.535 10.8505 13.5638C10.8597 13.5921 10.8642 13.6323 10.8626 13.6828C10.8593 13.7833 10.8317 13.9162 10.7797 14.0568C10.7276 14.1974 10.662 14.3162 10.599 14.3947C10.5674 14.4341 10.5378 14.4616 10.5124 14.4771C10.4866 14.4929 10.4708 14.4931 10.4621 14.4899Z" fill="#F0C23A" stroke="#321313" stroke-width="0.0737678"/>
<path d="M11.8761 14.4899C11.8674 14.4866 11.8555 14.4762 11.8462 14.4474C11.837 14.4191 11.8325 14.3789 11.8342 14.3284C11.8374 14.2279 11.865 14.095 11.917 13.9544C11.9691 13.8138 12.0347 13.695 12.0977 13.6165C12.1293 13.5772 12.1589 13.5496 12.1843 13.5341C12.2101 13.5183 12.2259 13.5181 12.2347 13.5213C12.2434 13.5246 12.2553 13.535 12.2646 13.5638C12.2738 13.5921 12.2783 13.6323 12.2766 13.6828C12.2733 13.7833 12.2458 13.9162 12.1938 14.0568C12.1417 14.1974 12.0761 14.3162 12.0131 14.3947C11.9815 14.4341 11.9519 14.4616 11.9265 14.4771C11.9007 14.4929 11.8849 14.4931 11.8761 14.4899Z" fill="#F0C23A" stroke="#321313" stroke-width="0.0737678"/>
<path d="M15.4118 13.7828C15.403 13.7796 15.3912 13.7692 15.3818 13.7404C15.3727 13.7121 15.3681 13.6719 15.3698 13.6214C15.3731 13.5209 15.4006 13.388 15.4527 13.2474C15.5047 13.1068 15.5704 12.988 15.6333 12.9095C15.6649 12.8701 15.6945 12.8426 15.7199 12.827C15.7458 12.8112 15.7616 12.8111 15.7703 12.8143C15.779 12.8176 15.7909 12.828 15.8002 12.8568C15.8094 12.8851 15.8139 12.9253 15.8123 12.9758C15.809 13.0763 15.7814 13.2092 15.7294 13.3498C15.6774 13.4904 15.6117 13.6092 15.5488 13.6876C15.5171 13.727 15.4875 13.7546 15.4621 13.7701C15.4363 13.7859 15.4205 13.7861 15.4118 13.7828Z" fill="#F0C23A" stroke="#321313" stroke-width="0.0737678"/>
<path d="M10.4621 11.6617C10.4533 11.6585 10.4415 11.6481 10.4321 11.6193C10.423 11.591 10.4184 11.5508 10.4201 11.5003C10.4234 11.3998 10.4509 11.2669 10.503 11.1263C10.555 10.9857 10.6206 10.8669 10.6836 10.7884C10.7152 10.749 10.7448 10.7215 10.7702 10.706C10.7961 10.6902 10.8119 10.69 10.8206 10.6932C10.8293 10.6965 10.8412 10.7069 10.8505 10.7357C10.8597 10.764 10.8642 10.8042 10.8626 10.8547C10.8593 10.9552 10.8317 11.0881 10.7797 11.2287C10.7276 11.3693 10.662 11.4881 10.599 11.5666C10.5674 11.6059 10.5378 11.6335 10.5124 11.649C10.4866 11.6648 10.4708 11.665 10.4621 11.6617Z" fill="#F0C23A" stroke="#321313" stroke-width="0.0737678"/>
<path d="M13.9977 9.53967C13.989 9.53644 13.9771 9.52604 13.9678 9.49722C13.9586 9.4689 13.9541 9.42871 13.9557 9.37824C13.959 9.27769 13.9866 9.14479 14.0386 9.0042C14.0907 8.8636 14.1563 8.74481 14.2193 8.66635C14.2509 8.62696 14.2805 8.59941 14.3059 8.58388C14.3317 8.56808 14.3475 8.56792 14.3562 8.57115C14.365 8.57439 14.3769 8.58479 14.3862 8.61361C14.3953 8.64193 14.3999 8.68212 14.3982 8.73259C14.3949 8.83314 14.3674 8.96604 14.3153 9.10663C14.2633 9.24723 14.1977 9.36602 14.1347 9.44448C14.1031 9.48387 14.0735 9.51142 14.0481 9.52694C14.0222 9.54275 14.0065 9.54291 13.9977 9.53967Z" fill="#F0C23A" stroke="#321313" stroke-width="0.0737678"/>
<path d="M15.4118 6.71155C15.403 6.70831 15.3912 6.69791 15.3818 6.66909C15.3727 6.64077 15.3681 6.60059 15.3698 6.55011C15.3731 6.44956 15.4006 6.31666 15.4527 6.17607C15.5047 6.03548 15.5704 5.91668 15.6333 5.83822C15.6649 5.79883 15.6945 5.77129 15.7199 5.75576C15.7458 5.73996 15.7616 5.73979 15.7703 5.74303C15.779 5.74626 15.7909 5.75666 15.8002 5.78549C15.8094 5.81381 15.8139 5.85399 15.8123 5.90447C15.809 6.00502 15.7814 6.13791 15.7294 6.27851C15.6774 6.4191 15.6117 6.5379 15.5488 6.61636C15.5171 6.65574 15.4875 6.68329 15.4621 6.69882C15.4363 6.71462 15.4205 6.71478 15.4118 6.71155Z" fill="#F0C23A" stroke="#321313" stroke-width="0.0737678"/>
<path d="M7.63346 11.6617C7.62472 11.6585 7.61284 11.6481 7.60352 11.6193C7.59436 11.591 7.58982 11.5508 7.59148 11.5003C7.59477 11.3998 7.62231 11.2669 7.67436 11.1263C7.7264 10.9857 7.79203 10.8669 7.855 10.7884C7.88661 10.749 7.91622 10.7215 7.94161 10.706C7.96746 10.6902 7.98324 10.69 7.99198 10.6932C8.00072 10.6965 8.01259 10.7069 8.02192 10.7357C8.03108 10.764 8.03561 10.8042 8.03396 10.8547C8.03066 10.9552 8.00312 11.0881 7.95108 11.2287C7.89903 11.3693 7.8334 11.4881 7.77043 11.5666C7.73882 11.6059 7.70922 11.6335 7.68382 11.649C7.65798 11.6648 7.64219 11.665 7.63346 11.6617Z" fill="#F0C23A" stroke="#321313" stroke-width="0.0737678"/>
<path d="M9.04801 6.00452C9.03927 6.00128 9.02739 5.99088 9.01807 5.96206C9.00891 5.93374 9.00437 5.89356 9.00603 5.84308C9.00932 5.74253 9.03686 5.60963 9.08891 5.46904C9.14095 5.32845 9.20659 5.20965 9.26955 5.13119C9.30116 5.0918 9.33077 5.06426 9.35616 5.04873C9.38201 5.03292 9.39779 5.03276 9.40653 5.036C9.41527 5.03923 9.42714 5.04963 9.43647 5.07846C9.44563 5.10677 9.45017 5.14696 9.44851 5.19744C9.44521 5.29798 9.41767 5.43088 9.36563 5.57148C9.31358 5.71207 9.24795 5.83087 9.18499 5.90933C9.15337 5.94871 9.12377 5.97626 9.09837 5.99179C9.07253 6.00759 9.05674 6.00775 9.04801 6.00452Z" fill="#F0C23A" stroke="#321313" stroke-width="0.0737678"/>
<path d="M12.5832 6.71155C12.5744 6.70831 12.5625 6.69791 12.5532 6.66909C12.5441 6.64077 12.5395 6.60059 12.5412 6.55011C12.5445 6.44956 12.572 6.31666 12.6241 6.17607C12.6761 6.03548 12.7417 5.91668 12.8047 5.83822C12.8363 5.79883 12.8659 5.77129 12.8913 5.75576C12.9172 5.73996 12.9329 5.73979 12.9417 5.74303C12.9504 5.74626 12.9623 5.75666 12.9716 5.78549C12.9808 5.81381 12.9853 5.85399 12.9837 5.90447C12.9804 6.00502 12.9528 6.13791 12.9008 6.27851C12.8487 6.4191 12.7831 6.5379 12.7201 6.61636C12.6885 6.65574 12.6589 6.68329 12.6335 6.69882C12.6077 6.71462 12.5919 6.71478 12.5832 6.71155Z" fill="#F0C23A" stroke="#321313" stroke-width="0.0737678"/>
<path d="M16.8258 8.12561C16.8171 8.12238 16.8052 8.11198 16.7959 8.08315C16.7867 8.05484 16.7822 8.01465 16.7839 7.96417C16.7872 7.86363 16.8147 7.73073 16.8667 7.59013C16.9188 7.44954 16.9844 7.33074 17.0474 7.25228C17.079 7.2129 17.1086 7.18535 17.134 7.16982C17.1598 7.15402 17.1756 7.15386 17.1844 7.15709C17.1931 7.16033 17.205 7.17073 17.2143 7.19955C17.2235 7.22787 17.228 7.26805 17.2263 7.31853C17.223 7.41908 17.1955 7.55198 17.1435 7.69257C17.0914 7.83316 17.0258 7.95196 16.9628 8.03042C16.9312 8.06981 16.9016 8.09735 16.8762 8.11288C16.8504 8.12868 16.8346 8.12885 16.8258 8.12561Z" fill="#F0C23A" stroke="#321313" stroke-width="0.0737678"/>
<path d="M11.8761 4.59046C11.8674 4.58722 11.8555 4.57682 11.8462 4.548C11.837 4.51968 11.8325 4.47949 11.8342 4.42902C11.8374 4.32847 11.865 4.19557 11.917 4.05498C11.9691 3.91438 12.0347 3.79559 12.0977 3.71713C12.1293 3.67774 12.1589 3.65019 12.1843 3.63467C12.2101 3.61886 12.2259 3.6187 12.2347 3.62194C12.2434 3.62517 12.2553 3.63557 12.2646 3.66439C12.2738 3.69271 12.2783 3.7329 12.2766 3.78337C12.2733 3.88392 12.2458 4.01682 12.1938 4.15741C12.1417 4.29801 12.0761 4.4168 12.0131 4.49526C11.9815 4.53465 11.9519 4.5622 11.9265 4.57773C11.9007 4.59353 11.8849 4.59369 11.8761 4.59046Z" fill="#F0C23A" stroke="#321313" stroke-width="0.0737678"/>
<path d="M16.8258 10.9547C16.8171 10.9515 16.8052 10.9411 16.7959 10.9123C16.7867 10.8839 16.7822 10.8438 16.7839 10.7933C16.7872 10.6927 16.8147 10.5598 16.8667 10.4192C16.9188 10.2786 16.9844 10.1598 17.0474 10.0814C17.079 10.042 17.1086 10.0145 17.134 9.99892C17.1598 9.98312 17.1756 9.98296 17.1844 9.98619C17.1931 9.98943 17.205 9.99983 17.2143 10.0287C17.2235 10.057 17.228 10.0972 17.2263 10.1476C17.223 10.2482 17.1955 10.3811 17.1435 10.5217C17.0914 10.6623 17.0258 10.7811 16.9628 10.8595C16.9312 10.8989 16.9016 10.9265 16.8762 10.942C16.8504 10.9578 16.8346 10.9579 16.8258 10.9547Z" fill="#F0C23A" stroke="#321313" stroke-width="0.0737678"/>
<path d="M8.34098 9.53967C8.33224 9.53644 8.32036 9.52604 8.31104 9.49722C8.30188 9.4689 8.29734 9.42871 8.299 9.37824C8.30229 9.27769 8.32983 9.14479 8.38188 9.0042C8.43392 8.8636 8.49955 8.74481 8.56252 8.66635C8.59413 8.62696 8.62374 8.59941 8.64913 8.58388C8.67498 8.56808 8.69076 8.56792 8.6995 8.57115C8.70824 8.57439 8.72011 8.58479 8.72944 8.61361C8.7386 8.64193 8.74313 8.68212 8.74148 8.73259C8.73818 8.83314 8.71064 8.96604 8.6586 9.10663C8.60655 9.24723 8.54092 9.36602 8.47795 9.44448C8.44634 9.48387 8.41674 9.51142 8.39134 9.52694C8.3655 9.54275 8.34971 9.54291 8.34098 9.53967Z" fill="#F0C23A" stroke="#321313" stroke-width="0.0737678"/>
<path d="M10.4621 7.41858C10.4533 7.41535 10.4415 7.40495 10.4321 7.37612C10.423 7.3478 10.4184 7.30762 10.4201 7.25714C10.4234 7.15659 10.4509 7.0237 10.503 6.8831C10.555 6.74251 10.6206 6.62371 10.6836 6.54525C10.7152 6.50586 10.7448 6.47832 10.7702 6.46279C10.7961 6.44699 10.8119 6.44683 10.8206 6.45006C10.8293 6.45329 10.8412 6.4637 10.8505 6.49252C10.8597 6.52084 10.8642 6.56102 10.8626 6.6115C10.8593 6.71205 10.8317 6.84494 10.7797 6.98554C10.7276 7.12613 10.662 7.24493 10.599 7.32339C10.5674 7.36278 10.5378 7.39032 10.5124 7.40585C10.4866 7.42165 10.4708 7.42182 10.4621 7.41858Z" fill="#F0C23A" stroke="#321313" stroke-width="0.0737678"/>
<path d="M6.92642 8.12561C6.91769 8.12238 6.90581 8.11198 6.89649 8.08315C6.88732 8.05484 6.88279 8.01465 6.88444 7.96417C6.88774 7.86363 6.91528 7.73073 6.96733 7.59013C7.01937 7.44954 7.085 7.33074 7.14797 7.25228C7.17958 7.2129 7.20919 7.18535 7.23458 7.16982C7.26043 7.15402 7.27621 7.15386 7.28495 7.15709C7.29369 7.16033 7.30556 7.17073 7.31489 7.19955C7.32405 7.22787 7.32858 7.26805 7.32693 7.31853C7.32363 7.41908 7.29609 7.55198 7.24405 7.69257C7.192 7.83316 7.12637 7.95196 7.0634 8.03042C7.03179 8.06981 7.00218 8.09735 6.97679 8.11288C6.95095 8.12868 6.93516 8.12885 6.92642 8.12561Z" fill="#F0C23A" stroke="#321313" stroke-width="0.0737678"/>
<path d="M7.11077 11.6249C7.10688 11.6164 7.10584 11.6007 7.11962 11.5737C7.13317 11.5472 7.15838 11.5156 7.19524 11.481C7.26867 11.4123 7.38212 11.3378 7.51833 11.2752C7.65455 11.2125 7.78496 11.175 7.88496 11.164C7.93516 11.1585 7.97558 11.16 8.00451 11.1669C8.03396 11.174 8.04524 11.1851 8.04913 11.1935C8.05302 11.202 8.05407 11.2178 8.04028 11.2447C8.02673 11.2712 8.00152 11.3029 7.96466 11.3374C7.89123 11.4061 7.77778 11.4806 7.64157 11.5433C7.50535 11.6059 7.37494 11.6435 7.27494 11.6544C7.22474 11.6599 7.18432 11.6585 7.15539 11.6515C7.12594 11.6444 7.11466 11.6333 7.11077 11.6249Z" fill="#F0C23A" stroke="#321313" stroke-width="0.0737678"/>
<path d="M8.11077 12.6249C8.10688 12.6164 8.10584 12.6007 8.11962 12.5737C8.13317 12.5472 8.15838 12.5156 8.19524 12.481C8.26867 12.4123 8.38212 12.3378 8.51833 12.2752C8.65455 12.2125 8.78496 12.175 8.88496 12.164C8.93516 12.1585 8.97558 12.16 9.00451 12.1669C9.03396 12.174 9.04524 12.1851 9.04913 12.1935C9.05302 12.202 9.05407 12.2178 9.04028 12.2447C9.02673 12.2712 9.00152 12.3029 8.96466 12.3374C8.89123 12.4061 8.77778 12.4806 8.64157 12.5433C8.50535 12.6059 8.37494 12.6435 8.27494 12.6544C8.22474 12.6599 8.18432 12.6585 8.15539 12.6515C8.12594 12.6444 8.11466 12.6333 8.11077 12.6249Z" fill="#F0C23A" stroke="#321313" stroke-width="0.0737678"/>
<path d="M11.1108 14.6249C11.1069 14.6164 11.1058 14.6007 11.1196 14.5737C11.1332 14.5472 11.1584 14.5156 11.1952 14.481C11.2687 14.4123 11.3821 14.3378 11.5183 14.2752C11.6545 14.2125 11.785 14.175 11.885 14.164C11.9352 14.1585 11.9756 14.16 12.0045 14.1669C12.034 14.174 12.0452 14.1851 12.0491 14.1935C12.053 14.202 12.0541 14.2178 12.0403 14.2447C12.0267 14.2712 12.0015 14.3029 11.9647 14.3374C11.8912 14.4061 11.7778 14.4806 11.6416 14.5433C11.5054 14.6059 11.3749 14.6435 11.2749 14.6544C11.2247 14.6599 11.1843 14.6585 11.1554 14.6515C11.1259 14.6444 11.1147 14.6333 11.1108 14.6249Z" fill="#F0C23A" stroke="#321313" stroke-width="0.0737678"/>
<path d="M9.11077 9.62488C9.10688 9.61641 9.10584 9.60066 9.11962 9.57368C9.13317 9.54718 9.15838 9.51556 9.19524 9.48104C9.26867 9.41227 9.38212 9.33777 9.51833 9.27516C9.65455 9.21254 9.78496 9.17495 9.88496 9.164C9.93516 9.1585 9.97558 9.15995 10.0045 9.16693C10.034 9.17403 10.0452 9.18508 10.0491 9.19354C10.053 9.20201 10.0541 9.21776 10.0403 9.24473C10.0267 9.27124 10.0015 9.30286 9.96466 9.33738C9.89123 9.40615 9.77778 9.48065 9.64157 9.54326C9.50535 9.60587 9.37494 9.64347 9.27494 9.65442C9.22474 9.65992 9.18432 9.65846 9.15539 9.65149C9.12594 9.64439 9.11466 9.63334 9.11077 9.62488Z" fill="#F0C23A" stroke="#321313" stroke-width="0.0737678"/>
<path d="M13.1108 10.6249C13.1069 10.6164 13.1058 10.6007 13.1196 10.5737C13.1332 10.5472 13.1584 10.5156 13.1952 10.481C13.2687 10.4123 13.3821 10.3378 13.5183 10.2752C13.6545 10.2125 13.785 10.175 13.885 10.164C13.9352 10.1585 13.9756 10.16 14.0045 10.1669C14.034 10.174 14.0452 10.1851 14.0491 10.1935C14.053 10.202 14.0541 10.2178 14.0403 10.2447C14.0267 10.2712 14.0015 10.3029 13.9647 10.3374C13.8912 10.4061 13.7778 10.4806 13.6416 10.5433C13.5054 10.6059 13.3749 10.6435 13.2749 10.6544C13.2247 10.6599 13.1843 10.6585 13.1554 10.6515C13.1259 10.6444 13.1147 10.6333 13.1108 10.6249Z" fill="#F0C23A" stroke="#321313" stroke-width="0.0737678"/>
<path d="M16.1108 9.62488C16.1069 9.61641 16.1058 9.60066 16.1196 9.57368C16.1332 9.54718 16.1584 9.51556 16.1952 9.48104C16.2687 9.41227 16.3821 9.33777 16.5183 9.27516C16.6545 9.21254 16.785 9.17495 16.885 9.164C16.9352 9.1585 16.9756 9.15995 17.0045 9.16693C17.034 9.17403 17.0452 9.18508 17.0491 9.19354C17.053 9.20201 17.0541 9.21776 17.0403 9.24473C17.0267 9.27124 17.0015 9.30286 16.9647 9.33738C16.8912 9.40615 16.7778 9.48065 16.6416 9.54326C16.5054 9.60587 16.3749 9.64347 16.2749 9.65442C16.2247 9.65992 16.1843 9.65846 16.1554 9.65149C16.1259 9.64439 16.1147 9.63334 16.1108 9.62488Z" fill="#F0C23A" stroke="#321313" stroke-width="0.0737678"/>
<path d="M7.11077 7.62488C7.10688 7.61641 7.10584 7.60066 7.11962 7.57368C7.13317 7.54718 7.15838 7.51556 7.19524 7.48104C7.26867 7.41227 7.38212 7.33777 7.51833 7.27516C7.65455 7.21254 7.78496 7.17495 7.88496 7.164C7.93516 7.1585 7.97558 7.15995 8.00451 7.16693C8.03396 7.17403 8.04524 7.18508 8.04913 7.19354C8.05302 7.20201 8.05407 7.21776 8.04028 7.24473C8.02673 7.27124 8.00152 7.30286 7.96466 7.33738C7.89123 7.40615 7.77778 7.48065 7.64157 7.54326C7.50535 7.60587 7.37494 7.64347 7.27494 7.65442C7.22474 7.65992 7.18432 7.65846 7.15539 7.65149C7.12594 7.64439 7.11466 7.63334 7.11077 7.62488Z" fill="#F0C23A" stroke="#321313" stroke-width="0.0737678"/>
<path d="M12.1108 4.62488C12.1069 4.61641 12.1058 4.60066 12.1196 4.57368C12.1332 4.54718 12.1584 4.51556 12.1952 4.48104C12.2687 4.41227 12.3821 4.33777 12.5183 4.27516C12.6545 4.21254 12.785 4.17495 12.885 4.164C12.9352 4.1585 12.9756 4.15995 13.0045 4.16693C13.034 4.17403 13.0452 4.18508 13.0491 4.19354C13.053 4.20201 13.0541 4.21776 13.0403 4.24473C13.0267 4.27124 13.0015 4.30286 12.9647 4.33738C12.8912 4.40615 12.7778 4.48065 12.6416 4.54326C12.5054 4.60587 12.3749 4.64347 12.2749 4.65442C12.2247 4.65992 12.1843 4.65846 12.1554 4.65149C12.1259 4.64439 12.1147 4.63334 12.1108 4.62488Z" fill="#F0C23A" stroke="#321313" stroke-width="0.0737678"/>
<path d="M14.1108 7.62488C14.1069 7.61641 14.1058 7.60066 14.1196 7.57368C14.1332 7.54718 14.1584 7.51556 14.1952 7.48104C14.2687 7.41227 14.3821 7.33777 14.5183 7.27516C14.6545 7.21254 14.785 7.17495 14.885 7.164C14.9352 7.1585 14.9756 7.15995 15.0045 7.16693C15.034 7.17403 15.0452 7.18508 15.0491 7.19354C15.053 7.20201 15.0541 7.21776 15.0403 7.24473C15.0267 7.27124 15.0015 7.30286 14.9647 7.33738C14.8912 7.40615 14.7778 7.48065 14.6416 7.54326C14.5054 7.60587 14.3749 7.64347 14.2749 7.65442C14.2247 7.65992 14.1843 7.65846 14.1554 7.65149C14.1259 7.64439 14.1147 7.63334 14.1108 7.62488Z" fill="#F0C23A" stroke="#321313" stroke-width="0.0737678"/>
<path d="M16.1108 11.6249C16.1069 11.6164 16.1058 11.6007 16.1196 11.5737C16.1332 11.5472 16.1584 11.5156 16.1952 11.481C16.2687 11.4123 16.3821 11.3378 16.5183 11.2752C16.6545 11.2125 16.785 11.175 16.885 11.164C16.9352 11.1585 16.9756 11.16 17.0045 11.1669C17.034 11.174 17.0452 11.1851 17.0491 11.1935C17.053 11.202 17.0541 11.2178 17.0403 11.2447C17.0267 11.2712 17.0015 11.3029 16.9647 11.3374C16.8912 11.4061 16.7778 11.4806 16.6416 11.5433C16.5054 11.6059 16.3749 11.6435 16.2749 11.6544C16.2247 11.6599 16.1843 11.6585 16.1554 11.6515C16.1259 11.6444 16.1147 11.6333 16.1108 11.6249Z" fill="#F0C23A" stroke="#321313" stroke-width="0.0737678"/>
<path d="M15.1108 5.62488C15.1069 5.61641 15.1058 5.60066 15.1196 5.57368C15.1332 5.54718 15.1584 5.51556 15.1952 5.48104C15.2687 5.41227 15.3821 5.33777 15.5183 5.27516C15.6545 5.21254 15.785 5.17495 15.885 5.164C15.9352 5.1585 15.9756 5.15995 16.0045 5.16693C16.034 5.17403 16.0452 5.18508 16.0491 5.19354C16.053 5.20201 16.0541 5.21776 16.0403 5.24473C16.0267 5.27124 16.0015 5.30286 15.9647 5.33738C15.8912 5.40615 15.7778 5.48065 15.6416 5.54326C15.5054 5.60587 15.3749 5.64347 15.2749 5.65442C15.2247 5.65992 15.1843 5.65846 15.1554 5.65149C15.1259 5.64439 15.1147 5.63334 15.1108 5.62488Z" fill="#F0C23A" stroke="#321313" stroke-width="0.0737678"/>
<path d="M14.1108 13.6249C14.1069 13.6164 14.1058 13.6007 14.1196 13.5737C14.1332 13.5472 14.1584 13.5156 14.1952 13.481C14.2687 13.4123 14.3821 13.3378 14.5183 13.2752C14.6545 13.2125 14.785 13.175 14.885 13.164C14.9352 13.1585 14.9756 13.16 15.0045 13.1669C15.034 13.174 15.0452 13.1851 15.0491 13.1935C15.053 13.202 15.0541 13.2178 15.0403 13.2447C15.0267 13.2712 15.0015 13.3029 14.9647 13.3374C14.8912 13.4061 14.7778 13.4806 14.6416 13.5433C14.5054 13.6059 14.3749 13.6435 14.2749 13.6544C14.2247 13.6599 14.1843 13.6585 14.1554 13.6515C14.1259 13.6444 14.1147 13.6333 14.1108 13.6249Z" fill="#F0C23A" stroke="#321313" stroke-width="0.0737678"/>
<path d="M9.11077 6.62488C9.10688 6.61641 9.10584 6.60066 9.11962 6.57368C9.13317 6.54718 9.15838 6.51556 9.19524 6.48104C9.26867 6.41227 9.38212 6.33777 9.51833 6.27516C9.65455 6.21254 9.78496 6.17495 9.88496 6.164C9.93516 6.1585 9.97558 6.15995 10.0045 6.16693C10.034 6.17403 10.0452 6.18508 10.0491 6.19354C10.053 6.20201 10.0541 6.21776 10.0403 6.24473C10.0267 6.27124 10.0015 6.30286 9.96466 6.33738C9.89123 6.40615 9.77778 6.48065 9.64157 6.54326C9.50535 6.60587 9.37494 6.64347 9.27494 6.65442C9.22474 6.65992 9.18432 6.65846 9.15539 6.65149C9.12594 6.64439 9.11466 6.63334 9.11077 6.62488Z" fill="#F0C23A" stroke="#321313" stroke-width="0.0737678"/>
<path d="M12.1108 6.62488C12.1069 6.61641 12.1058 6.60066 12.1196 6.57368C12.1332 6.54718 12.1584 6.51556 12.1952 6.48104C12.2687 6.41227 12.3821 6.33777 12.5183 6.27516C12.6545 6.21254 12.785 6.17495 12.885 6.164C12.9352 6.1585 12.9756 6.15995 13.0045 6.16693C13.034 6.17403 13.0452 6.18508 13.0491 6.19354C13.053 6.20201 13.0541 6.21776 13.0403 6.24473C13.0267 6.27124 13.0015 6.30286 12.9647 6.33738C12.8912 6.40615 12.7778 6.48065 12.6416 6.54326C12.5054 6.60587 12.3749 6.64347 12.2749 6.65442C12.2247 6.65992 12.1843 6.65846 12.1554 6.65149C12.1259 6.64439 12.1147 6.63334 12.1108 6.62488Z" fill="#F0C23A" stroke="#321313" stroke-width="0.0737678"/>
<path d="M9.11077 4.62488C9.10688 4.61641 9.10584 4.60066 9.11962 4.57368C9.13317 4.54718 9.15838 4.51556 9.19524 4.48104C9.26867 4.41227 9.38212 4.33777 9.51833 4.27516C9.65455 4.21254 9.78496 4.17495 9.88496 4.164C9.93516 4.1585 9.97558 4.15995 10.0045 4.16693C10.034 4.17403 10.0452 4.18508 10.0491 4.19354C10.053 4.20201 10.0541 4.21776 10.0403 4.24473C10.0267 4.27124 10.0015 4.30286 9.96466 4.33738C9.89123 4.40615 9.77778 4.48065 9.64157 4.54326C9.50535 4.60587 9.37494 4.64347 9.27494 4.65442C9.22474 4.65992 9.18432 4.65846 9.15539 4.65149C9.12594 4.64439 9.11466 4.63334 9.11077 4.62488Z" fill="#F0C23A" stroke="#321313" stroke-width="0.0737678"/>
<path d="M6.32898 7.46256C6.33221 7.45382 6.34261 7.44194 6.37144 7.43262C6.39975 7.42346 6.43994 7.41892 6.49042 7.42058C6.59096 7.42388 6.72386 7.45141 6.86446 7.50346C7.00505 7.5555 7.12385 7.62114 7.20231 7.6841C7.24169 7.71571 7.26924 7.74532 7.28477 7.77071C7.30057 7.79656 7.30073 7.81234 7.2975 7.82108C7.29426 7.82982 7.28386 7.84169 7.25504 7.85102C7.22672 7.86018 7.18654 7.86472 7.13606 7.86306C7.03551 7.85976 6.90261 7.83222 6.76202 7.78018C6.62143 7.72813 6.50263 7.6625 6.42417 7.59954C6.38478 7.56793 6.35724 7.53832 6.34171 7.51292C6.3259 7.48708 6.32574 7.4713 6.32898 7.46256Z" fill="#F0C23A" stroke="#321313" stroke-width="0.0737678"/>
<path d="M6.32898 8.87662C6.33221 8.86788 6.34261 8.85601 6.37144 8.84668C6.39975 8.83752 6.43994 8.83298 6.49042 8.83464C6.59096 8.83794 6.72386 8.86548 6.86446 8.91752C7.00505 8.96957 7.12385 9.0352 7.20231 9.09817C7.24169 9.12978 7.26924 9.15938 7.28477 9.18478C7.30057 9.21062 7.30073 9.22641 7.2975 9.23514C7.29426 9.24388 7.28386 9.25576 7.25504 9.26508C7.22672 9.27424 7.18654 9.27878 7.13606 9.27712C7.03551 9.27383 6.90261 9.24629 6.76202 9.19424C6.62143 9.1422 6.50263 9.07657 6.42417 9.0136C6.38478 8.98199 6.35724 8.95238 6.34171 8.92699C6.3259 8.90114 6.32574 8.88536 6.32898 8.87662Z" fill="#F0C23A" stroke="#321313" stroke-width="0.0737678"/>
<path d="M7.03601 12.4118C7.03924 12.403 7.04964 12.3912 7.07847 12.3818C7.10679 12.3727 7.14697 12.3681 7.19745 12.3698C7.298 12.3731 7.43089 12.4006 7.57149 12.4527C7.71208 12.5047 7.83088 12.5704 7.90934 12.6333C7.94872 12.6649 7.97627 12.6945 7.9918 12.7199C8.0076 12.7458 8.00776 12.7616 8.00453 12.7703C8.0013 12.779 7.99089 12.7909 7.96207 12.8002C7.93375 12.8094 7.89357 12.8139 7.84309 12.8123C7.74254 12.809 7.60965 12.7814 7.46905 12.7294C7.32846 12.6774 7.20966 12.6117 7.1312 12.5488C7.09181 12.5171 7.06427 12.4875 7.04874 12.4621C7.03294 12.4363 7.03277 12.4205 7.03601 12.4118Z" fill="#F0C23A" stroke="#321313" stroke-width="0.0737678"/>
<path d="M9.15759 7.46256C9.16083 7.45382 9.17123 7.44194 9.20005 7.43262C9.22837 7.42346 9.26855 7.41892 9.31903 7.42058C9.41958 7.42388 9.55248 7.45141 9.69307 7.50346C9.83366 7.5555 9.95246 7.62114 10.0309 7.6841C10.0703 7.71571 10.0979 7.74532 10.1134 7.77071C10.1292 7.79656 10.1293 7.81234 10.1261 7.82108C10.1229 7.82982 10.1125 7.84169 10.0837 7.85102C10.0553 7.86018 10.0151 7.86472 9.96467 7.86306C9.86413 7.85976 9.73123 7.83222 9.59063 7.78018C9.45004 7.72813 9.33124 7.6625 9.25278 7.59954C9.2134 7.56793 9.18585 7.53832 9.17032 7.51292C9.15452 7.48708 9.15436 7.4713 9.15759 7.46256Z" fill="#F0C23A" stroke="#321313" stroke-width="0.0737678"/>
<path d="M11.2787 10.9977C11.2819 10.989 11.2923 10.9771 11.3211 10.9678C11.3495 10.9586 11.3896 10.9541 11.4401 10.9557C11.5407 10.959 11.6736 10.9866 11.8142 11.0386C11.9548 11.0907 12.0736 11.1563 12.152 11.2193C12.1914 11.2509 12.2189 11.2805 12.2345 11.3059C12.2503 11.3317 12.2504 11.3475 12.2472 11.3562C12.244 11.365 12.2336 11.3769 12.2047 11.3862C12.1764 11.3953 12.1362 11.3999 12.0858 11.3982C11.9852 11.3949 11.8523 11.3674 11.7117 11.3153C11.5711 11.2633 11.4523 11.1977 11.3739 11.1347C11.3345 11.1031 11.3069 11.0735 11.2914 11.0481C11.2756 11.0222 11.2755 11.0065 11.2787 10.9977Z" fill="#F0C23A" stroke="#321313" stroke-width="0.0737678"/>
<path d="M14.1073 12.4118C14.1105 12.403 14.1209 12.3912 14.1498 12.3818C14.1781 12.3727 14.2183 12.3681 14.2687 12.3698C14.3693 12.3731 14.5022 12.4006 14.6428 12.4527C14.7834 12.5047 14.9022 12.5704 14.9806 12.6333C15.02 12.6649 15.0476 12.6945 15.0631 12.7199C15.0789 12.7458 15.0791 12.7616 15.0758 12.7703C15.0726 12.779 15.0622 12.7909 15.0334 12.8002C15.005 12.8094 14.9649 12.8139 14.9144 12.8123C14.8138 12.809 14.6809 12.7814 14.5403 12.7294C14.3997 12.6774 14.281 12.6117 14.2025 12.5488C14.1631 12.5171 14.1356 12.4875 14.12 12.4621C14.1042 12.4363 14.1041 12.4205 14.1073 12.4118Z" fill="#F0C23A" stroke="#321313" stroke-width="0.0737678"/>
<path d="M9.15759 4.63346C9.16083 4.62472 9.17123 4.61284 9.20005 4.60352C9.22837 4.59436 9.26855 4.58982 9.31903 4.59148C9.41958 4.59477 9.55248 4.62231 9.69307 4.67436C9.83366 4.7264 9.95246 4.79203 10.0309 4.855C10.0703 4.88661 10.0979 4.91622 10.1134 4.94161C10.1292 4.96746 10.1293 4.98324 10.1261 4.99198C10.1229 5.00072 10.1125 5.01259 10.0837 5.02192C10.0553 5.03108 10.0151 5.03561 9.96467 5.03396C9.86413 5.03066 9.73123 5.00312 9.59063 4.95108C9.45004 4.89903 9.33124 4.8334 9.25278 4.77043C9.2134 4.73882 9.18585 4.70922 9.17032 4.68382C9.15452 4.65798 9.15436 4.64219 9.15759 4.63346Z" fill="#F0C23A" stroke="#321313" stroke-width="0.0737678"/>
<path d="M14.8143 6.04752C14.8176 6.03878 14.828 6.02691 14.8568 6.01758C14.8851 6.00842 14.9253 6.00388 14.9758 6.00554C15.0763 6.00884 15.2092 6.03638 15.3498 6.08842C15.4904 6.14046 15.6092 6.2061 15.6877 6.26906C15.727 6.30067 15.7546 6.33028 15.7701 6.35568C15.7859 6.38152 15.7861 6.3973 15.7829 6.40604C15.7796 6.41478 15.7692 6.42666 15.7404 6.43598C15.7121 6.44514 15.6719 6.44968 15.6214 6.44802C15.5209 6.44472 15.388 6.41718 15.2474 6.36514C15.1068 6.3131 14.988 6.24746 14.9095 6.1845C14.8701 6.15289 14.8426 6.12328 14.8271 6.09789C14.8113 6.07204 14.8111 6.05626 14.8143 6.04752Z" fill="#F0C23A" stroke="#321313" stroke-width="0.0737678"/>
<path d="M14.1073 9.58365C14.1105 9.57491 14.1209 9.56304 14.1498 9.55371C14.1781 9.54455 14.2183 9.54002 14.2687 9.54167C14.3693 9.54497 14.5022 9.57251 14.6428 9.62455C14.7834 9.6766 14.9022 9.74223 14.9806 9.8052C15.02 9.83681 15.0476 9.86642 15.0631 9.89181C15.0789 9.91765 15.0791 9.93344 15.0758 9.94218C15.0726 9.95091 15.0622 9.96279 15.0334 9.97211C15.005 9.98127 14.9649 9.98581 14.9144 9.98415C14.8138 9.98086 14.6809 9.95332 14.5403 9.90127C14.3997 9.84923 14.281 9.7836 14.2025 9.72063C14.1631 9.68902 14.1356 9.65941 14.12 9.63402C14.1042 9.60817 14.1041 9.59239 14.1073 9.58365Z" fill="#F0C23A" stroke="#321313" stroke-width="0.0737678"/>
<path d="M12.6932 13.8258C12.6965 13.8171 12.7069 13.8052 12.7357 13.7959C12.764 13.7867 12.8042 13.7822 12.8547 13.7839C12.9552 13.7872 13.0881 13.8147 13.2287 13.8667C13.3693 13.9188 13.4881 13.9844 13.5666 14.0474C13.606 14.079 13.6335 14.1086 13.649 14.134C13.6648 14.1598 13.665 14.1756 13.6618 14.1844C13.6585 14.1931 13.6481 14.205 13.6193 14.2143C13.591 14.2235 13.5508 14.228 13.5003 14.2263C13.3998 14.223 13.2669 14.1955 13.1263 14.1435C12.9857 14.0914 12.8669 14.0258 12.7884 13.9628C12.749 13.9312 12.7215 13.9016 12.706 13.8762C12.6902 13.8504 12.69 13.8346 12.6932 13.8258Z" fill="#F0C23A" stroke="#321313" stroke-width="0.0737678"/>
<path d="M16.2284 8.87662C16.2316 8.86788 16.242 8.85601 16.2708 8.84668C16.2992 8.83752 16.3394 8.83298 16.3898 8.83464C16.4904 8.83794 16.6233 8.86548 16.7639 8.91752C16.9045 8.96957 17.0233 9.0352 17.1017 9.09817C17.1411 9.12978 17.1687 9.15938 17.1842 9.18478C17.2 9.21062 17.2001 9.22641 17.1969 9.23514C17.1937 9.24388 17.1833 9.25576 17.1545 9.26508C17.1261 9.27424 17.086 9.27878 17.0355 9.27712C16.9349 9.27383 16.802 9.24629 16.6614 9.19424C16.5208 9.1422 16.402 9.07657 16.3236 9.0136C16.2842 8.98199 16.2566 8.95238 16.2411 8.92699C16.2253 8.90114 16.2252 8.88536 16.2284 8.87662Z" fill="#F0C23A" stroke="#321313" stroke-width="0.0737678"/>
<path d="M9.86462 13.8258C9.86786 13.8171 9.87826 13.8052 9.90708 13.7959C9.9354 13.7867 9.97558 13.7822 10.0261 13.7839C10.1266 13.7872 10.2595 13.8147 10.4001 13.8667C10.5407 13.9188 10.6595 13.9844 10.738 14.0474C10.7773 14.079 10.8049 14.1086 10.8204 14.134C10.8362 14.1598 10.8364 14.1756 10.8331 14.1844C10.8299 14.1931 10.8195 14.205 10.7907 14.2143C10.7624 14.2235 10.7222 14.228 10.6717 14.2263C10.5712 14.223 10.4383 14.1955 10.2977 14.1435C10.1571 14.0914 10.0383 14.0258 9.95982 13.9628C9.92043 13.9312 9.89288 13.9016 9.87735 13.8762C9.86155 13.8504 9.86139 13.8346 9.86462 13.8258Z" fill="#F0C23A" stroke="#321313" stroke-width="0.0737678"/>
<path d="M11.2787 5.34049C11.2819 5.33175 11.2923 5.31987 11.3211 5.31055C11.3495 5.30139 11.3896 5.29685 11.4401 5.29851C11.5407 5.30181 11.6736 5.32934 11.8142 5.38139C11.9548 5.43343 12.0736 5.49907 12.152 5.56203C12.1914 5.59364 12.2189 5.62325 12.2345 5.64864C12.2503 5.67449 12.2504 5.69027 12.2472 5.69901C12.244 5.70775 12.2336 5.71962 12.2047 5.72895C12.1764 5.73811 12.1362 5.74265 12.0858 5.74099C11.9852 5.73769 11.8523 5.71015 11.7117 5.65811C11.5711 5.60606 11.4523 5.54043 11.3739 5.47747C11.3345 5.44586 11.3069 5.41625 11.2914 5.39085C11.2756 5.36501 11.2755 5.34923 11.2787 5.34049Z" fill="#F0C23A" stroke="#321313" stroke-width="0.0737678"/>
<path d="M13.4003 7.46256C13.4035 7.45382 13.4139 7.44194 13.4427 7.43262C13.471 7.42346 13.5112 7.41892 13.5617 7.42058C13.6623 7.42388 13.7952 7.45141 13.9357 7.50346C14.0763 7.5555 14.1951 7.62114 14.2736 7.6841C14.313 7.71571 14.3405 7.74532 14.3561 7.77071C14.3719 7.79656 14.372 7.81234 14.3688 7.82108C14.3656 7.82982 14.3552 7.84169 14.3263 7.85102C14.298 7.86018 14.2578 7.86472 14.2073 7.86306C14.1068 7.85976 13.9739 7.83222 13.8333 7.78018C13.6927 7.72813 13.5739 7.6625 13.4955 7.59954C13.4561 7.56793 13.4285 7.53832 13.413 7.51292C13.3972 7.48708 13.397 7.4713 13.4003 7.46256Z" fill="#F0C23A" stroke="#321313" stroke-width="0.0737678"/>
<path d="M12.6932 3.92642C12.6965 3.91769 12.7069 3.90581 12.7357 3.89649C12.764 3.88732 12.8042 3.88279 12.8547 3.88444C12.9552 3.88774 13.0881 3.91528 13.2287 3.96733C13.3693 4.01937 13.4881 4.085 13.5666 4.14797C13.606 4.17958 13.6335 4.20919 13.649 4.23458C13.6648 4.26043 13.665 4.27621 13.6618 4.28495C13.6585 4.29369 13.6481 4.30556 13.6193 4.31489C13.591 4.32405 13.5508 4.32858 13.5003 4.32693C13.3998 4.32363 13.2669 4.29609 13.1263 4.24405C12.9857 4.192 12.8669 4.12637 12.7884 4.0634C12.749 4.03179 12.7215 4.00218 12.706 3.97679C12.6902 3.95095 12.69 3.93516 12.6932 3.92642Z" fill="#F0C23A" stroke="#321313" stroke-width="0.0737678"/>
<path d="M7.98328 5.18312C7.99045 5.17717 8.00539 5.17209 8.03502 5.17842C8.06412 5.18465 8.10119 5.20081 8.14408 5.22748C8.22951 5.28061 8.33083 5.37091 8.42657 5.48628C8.5223 5.60165 8.59237 5.71789 8.62883 5.81165C8.64714 5.85872 8.65619 5.89813 8.65694 5.92789C8.6577 5.95817 8.64995 5.97192 8.64278 5.97787C8.63561 5.98382 8.62067 5.98891 8.59104 5.98257C8.56194 5.97634 8.52487 5.96018 8.48198 5.93351C8.39655 5.88038 8.29523 5.79008 8.19949 5.67471C8.10376 5.55934 8.03369 5.4431 7.99723 5.34934C7.97892 5.30227 7.96987 5.26286 7.96912 5.2331C7.96836 5.20282 7.97611 5.18907 7.98328 5.18312Z" fill="#F0C23A" stroke="#321313" stroke-width="0.0737678"/>
<path d="M7.27625 6.40773C7.28342 6.40178 7.29836 6.3967 7.32799 6.40303C7.35709 6.40926 7.39416 6.42542 7.43705 6.45209C7.52248 6.50522 7.6238 6.59552 7.71953 6.71089C7.81527 6.82626 7.88533 6.9425 7.9218 7.03626C7.9401 7.08333 7.94916 7.12274 7.94991 7.1525C7.95067 7.18278 7.94292 7.19653 7.93575 7.20248C7.92858 7.20843 7.91363 7.21351 7.88401 7.20718C7.85491 7.20095 7.81784 7.18479 7.77495 7.15812C7.68952 7.10499 7.5882 7.01469 7.49246 6.89932C7.39673 6.78395 7.32666 6.66771 7.2902 6.57395C7.27189 6.52688 7.26284 6.48747 7.26209 6.45771C7.26132 6.42743 7.26908 6.41368 7.27625 6.40773Z" fill="#F0C23A" stroke="#321313" stroke-width="0.0737678"/>
<path d="M6.12097 9.82375C6.12814 9.81779 6.14309 9.81271 6.17271 9.81905C6.20182 9.82527 6.23889 9.84144 6.28177 9.86811C6.3672 9.92124 6.46853 10.0115 6.56426 10.1269C6.66 10.2423 6.73006 10.3585 6.76653 10.4523C6.78483 10.4993 6.79388 10.5388 6.79463 10.5685C6.7954 10.5988 6.78765 10.6125 6.78048 10.6185C6.77331 10.6244 6.75836 10.6295 6.72874 10.6232C6.69963 10.617 6.66256 10.6008 6.61968 10.5741C6.53425 10.521 6.43292 10.4307 6.33719 10.3153C6.24145 10.2 6.17139 10.0837 6.13492 9.98997C6.11662 9.9429 6.10757 9.90348 6.10682 9.87373C6.10605 9.84345 6.1138 9.8297 6.12097 9.82375Z" fill="#F0C23A" stroke="#321313" stroke-width="0.0737678"/>
<path d="M10.433 6.59718C10.4402 6.59123 10.4551 6.58615 10.4847 6.59248C10.5138 6.59871 10.5509 6.61487 10.5938 6.64155C10.6792 6.69468 10.7805 6.78498 10.8763 6.90034C10.972 7.01571 11.0421 7.13195 11.0785 7.22571C11.0968 7.27278 11.1059 7.31219 11.1066 7.34195C11.1074 7.37223 11.0997 7.38598 11.0925 7.39193C11.0853 7.39788 11.0704 7.40297 11.0407 7.39663C11.0116 7.39041 10.9746 7.37424 10.9317 7.34757C10.8463 7.29444 10.7449 7.20414 10.6492 7.08877C10.5535 6.9734 10.4834 6.85717 10.4469 6.76341C10.4286 6.71634 10.4196 6.67692 10.4188 6.64717C10.4181 6.61688 10.4258 6.60313 10.433 6.59718Z" fill="#F0C23A" stroke="#321313" stroke-width="0.0737678"/>
<path d="M10.5023 10.7202C10.5095 10.7143 10.5244 10.7092 10.5541 10.7155C10.5832 10.7218 10.6202 10.7379 10.6631 10.7646C10.7485 10.8177 10.8499 10.908 10.9456 11.0234C11.0413 11.1388 11.1114 11.255 11.1479 11.3488C11.1662 11.3958 11.1752 11.4352 11.176 11.465C11.1767 11.4953 11.169 11.509 11.1618 11.515C11.1547 11.5209 11.1397 11.526 11.1101 11.5197C11.081 11.5135 11.0439 11.4973 11.001 11.4706C10.9156 11.4175 10.8143 11.3272 10.7185 11.2118C10.6228 11.0965 10.5527 10.9802 10.5163 10.8865C10.498 10.8394 10.4889 10.8 10.4882 10.7702C10.4874 10.7399 10.4952 10.7262 10.5023 10.7202Z" fill="#F0C23A" stroke="#321313" stroke-width="0.0737678"/>
<path d="M12.2445 13.3589C12.2517 13.353 12.2666 13.3479 12.2962 13.3542C12.3254 13.3604 12.3624 13.3766 12.4053 13.4033C12.4907 13.4564 12.5921 13.5467 12.6878 13.6621C12.7835 13.7774 12.8536 13.8937 12.8901 13.9874C12.9084 14.0345 12.9174 14.0739 12.9182 14.1037C12.9189 14.134 12.9112 14.1477 12.904 14.1537C12.8968 14.1596 12.8819 14.1647 12.8523 14.1584C12.8232 14.1521 12.7861 14.136 12.7432 14.1093C12.6578 14.0562 12.5565 13.9659 12.4607 13.8505C12.365 13.7351 12.2949 13.6189 12.2585 13.5251C12.2402 13.4781 12.2311 13.4386 12.2304 13.4089C12.2296 13.3786 12.2373 13.3649 12.2445 13.3589Z" fill="#F0C23A" stroke="#321313" stroke-width="0.0737678"/>
<path d="M11.847 4.14796C11.8542 4.14201 11.8692 4.13693 11.8988 4.14327C11.9279 4.14949 11.965 4.16566 12.0078 4.19233C12.0933 4.24546 12.1946 4.33576 12.2903 4.45112C12.3861 4.56649 12.4561 4.68273 12.4926 4.77649C12.5109 4.82356 12.52 4.86298 12.5207 4.89273C12.5215 4.92301 12.5137 4.93676 12.5065 4.94272C12.4994 4.94867 12.4844 4.95375 12.4548 4.94741C12.4257 4.94119 12.3886 4.92502 12.3457 4.89835C12.2603 4.84522 12.159 4.75492 12.0633 4.63955C11.9675 4.52419 11.8975 4.40795 11.861 4.31419C11.8427 4.26712 11.8336 4.2277 11.8329 4.19795C11.8321 4.16766 11.8399 4.15391 11.847 4.14796Z" fill="#F0C23A" stroke="#321313" stroke-width="0.0737678"/>
<path d="M16.0389 8.2007C16.0461 8.19475 16.0611 8.18966 16.0907 8.196C16.1198 8.20223 16.1569 8.21839 16.1997 8.24506C16.2852 8.29819 16.3865 8.38849 16.4822 8.50386C16.578 8.61923 16.648 8.73547 16.6845 8.82923C16.7028 8.8763 16.7119 8.91571 16.7126 8.94546C16.7134 8.97575 16.7056 8.9895 16.6984 8.99545C16.6913 9.0014 16.6763 9.00648 16.6467 9.00015C16.6176 8.99392 16.5805 8.97776 16.5376 8.95109C16.4522 8.89796 16.3509 8.80766 16.2552 8.69229C16.1594 8.57692 16.0894 8.46068 16.0529 8.36692C16.0346 8.31985 16.0255 8.28044 16.0248 8.25068C16.024 8.2204 16.0318 8.20665 16.0389 8.2007Z" fill="#F0C23A" stroke="#321313" stroke-width="0.0737678"/>
<path d="M13.6586 10.9097C13.6657 10.9037 13.6807 10.8986 13.7103 10.905C13.7394 10.9112 13.7765 10.9274 13.8194 10.954C13.9048 11.0072 14.0061 11.0975 14.1019 11.2128C14.1976 11.3282 14.2677 11.4445 14.3041 11.5382C14.3224 11.5853 14.3315 11.6247 14.3322 11.6544C14.333 11.6847 14.3252 11.6985 14.3181 11.7044C14.3109 11.7104 14.296 11.7155 14.2663 11.7091C14.2372 11.7029 14.2002 11.6867 14.1573 11.6601C14.0718 11.6069 13.9705 11.5166 13.8748 11.4013C13.7791 11.2859 13.709 11.1697 13.6725 11.0759C13.6542 11.0288 13.6452 10.9894 13.6444 10.9597C13.6436 10.9294 13.6514 10.9156 13.6586 10.9097Z" fill="#F0C23A" stroke="#321313" stroke-width="0.0737678"/>
<path d="M10.3129 13.8765C10.32 13.8705 10.335 13.8654 10.3646 13.8718C10.3937 13.878 10.4308 13.8942 10.4737 13.9208C10.5591 13.974 10.6604 14.0643 10.7562 14.1796C10.8519 14.295 10.922 14.4112 10.9584 14.505C10.9767 14.5521 10.9858 14.5915 10.9865 14.6212C10.9873 14.6515 10.9795 14.6653 10.9724 14.6712C10.9652 14.6772 10.9503 14.6823 10.9206 14.6759C10.8915 14.6697 10.8545 14.6535 10.8116 14.6269C10.7261 14.5737 10.6248 14.4834 10.5291 14.3681C10.4333 14.2527 10.3633 14.1365 10.3268 14.0427C10.3085 13.9956 10.2995 13.9562 10.2987 13.9265C10.2979 13.8962 10.3057 13.8824 10.3129 13.8765Z" fill="#F0C23A" stroke="#321313" stroke-width="0.0737678"/>
<path d="M15.8495 11.3579C15.8567 11.352 15.8716 11.3469 15.9012 11.3532C15.9303 11.3595 15.9674 11.3756 16.0103 11.4023C16.0957 11.4554 16.197 11.5457 16.2928 11.6611C16.3885 11.7765 16.4586 11.8927 16.495 11.9865C16.5133 12.0335 16.5224 12.0729 16.5231 12.1027C16.5239 12.133 16.5162 12.1467 16.509 12.1527C16.5018 12.1586 16.4869 12.1637 16.4573 12.1574C16.4281 12.1511 16.3911 12.135 16.3482 12.1083C16.2628 12.0552 16.1614 11.9649 16.0657 11.8495C15.97 11.7341 15.8999 11.6179 15.8634 11.5241C15.8451 11.4771 15.8361 11.4377 15.8353 11.4079C15.8346 11.3776 15.8423 11.3639 15.8495 11.3579Z" fill="#F0C23A" stroke="#321313" stroke-width="0.0737678"/>
<path d="M7.86316 12.4624C7.87033 12.4565 7.88528 12.4514 7.9149 12.4577C7.94401 12.4639 7.98108 12.4801 8.02396 12.5068C8.10939 12.5599 8.21071 12.6502 8.30645 12.7656C8.40218 12.8809 8.47225 12.9972 8.50871 13.0909C8.52702 13.138 8.53607 13.1774 8.53682 13.2072C8.53759 13.2375 8.52983 13.2512 8.52266 13.2572C8.51549 13.2631 8.50055 13.2682 8.47092 13.2619C8.44182 13.2556 8.40475 13.2395 8.36186 13.2128C8.27644 13.1597 8.17511 13.0694 8.07938 12.954C7.98364 12.8386 7.91358 12.7224 7.87711 12.6286C7.85881 12.5816 7.84975 12.5422 7.849 12.5124C7.84824 12.4821 7.85599 12.4684 7.86316 12.4624Z" fill="#F0C23A" stroke="#321313" stroke-width="0.0737678"/>
<path d="M13.3304 5.82082C13.3376 5.81487 13.3526 5.80978 13.3822 5.81612C13.4113 5.82234 13.4484 5.83851 13.4912 5.86518C13.5767 5.91831 13.678 6.00861 13.7737 6.12398C13.8695 6.23935 13.9395 6.35558 13.976 6.44934C13.9943 6.49641 14.0034 6.53583 14.0041 6.56558C14.0049 6.59587 13.9971 6.60962 13.9899 6.61557C13.9828 6.62152 13.9678 6.6266 13.9382 6.62026C13.9091 6.61404 13.872 6.59787 13.8291 6.5712C13.7437 6.51807 13.6424 6.42777 13.5467 6.31241C13.4509 6.19704 13.3809 6.0808 13.3444 5.98704C13.3261 5.93997 13.317 5.90055 13.3163 5.8708C13.3155 5.84052 13.3233 5.82677 13.3304 5.82082Z" fill="#F0C23A" stroke="#321313" stroke-width="0.0737678"/>
<path d="M14.1068 8.71828C14.114 8.71233 14.1289 8.70724 14.1586 8.71358C14.1877 8.7198 14.2247 8.73597 14.2676 8.76264C14.353 8.81577 14.4544 8.90607 14.5501 9.02144C14.6458 9.13681 14.7159 9.25304 14.7524 9.3468C14.7707 9.39387 14.7797 9.43329 14.7805 9.46304C14.7812 9.49333 14.7735 9.50708 14.7663 9.51303C14.7591 9.51898 14.7442 9.52406 14.7146 9.51773C14.6855 9.5115 14.6484 9.49534 14.6055 9.46866C14.5201 9.41553 14.4188 9.32523 14.323 9.20987C14.2273 9.0945 14.1572 8.97826 14.1208 8.8845C14.1025 8.83743 14.0934 8.79802 14.0927 8.76826C14.0919 8.73798 14.0996 8.72423 14.1068 8.71828Z" fill="#F0C23A" stroke="#321313" stroke-width="0.0737678"/>
<path d="M15.2626 5.30324C15.2697 5.29729 15.2847 5.2922 15.3143 5.29854C15.3434 5.30476 15.3805 5.32093 15.4234 5.3476C15.5088 5.40073 15.6101 5.49103 15.7059 5.6064C15.8016 5.72177 15.8717 5.838 15.9081 5.93176C15.9264 5.97883 15.9355 6.01825 15.9362 6.048C15.937 6.07829 15.9292 6.09204 15.9221 6.09799C15.9149 6.10394 15.9 6.10902 15.8703 6.10269C15.8412 6.09646 15.8042 6.0803 15.7613 6.05362C15.6758 6.00049 15.5745 5.9102 15.4788 5.79483C15.3831 5.67946 15.313 5.56322 15.2765 5.46946C15.2582 5.42239 15.2492 5.38298 15.2484 5.35322C15.2477 5.32294 15.2554 5.30919 15.2626 5.30324Z" fill="#F0C23A" stroke="#321313" stroke-width="0.0737678"/>
<path d="M12.0947 3.89247C12.104 3.89333 12.1181 3.90031 12.1346 3.92573C12.1508 3.95072 12.1656 3.98836 12.177 4.03754C12.1999 4.13552 12.2077 4.27102 12.1938 4.42029C12.1799 4.56956 12.1472 4.7013 12.1067 4.79338C12.0864 4.83961 12.0649 4.87388 12.0444 4.89545C12.0235 4.9174 12.0083 4.92164 11.9991 4.92078C11.9898 4.91992 11.9756 4.91295 11.9591 4.88752C11.943 4.86254 11.9282 4.82489 11.9167 4.77571C11.8939 4.67773 11.8861 4.54224 11.9 4.39296C11.9139 4.24369 11.9465 4.11195 11.987 4.01987C12.0074 3.97364 12.0288 3.93937 12.0493 3.9178C12.0702 3.89585 12.0854 3.89161 12.0947 3.89247Z" fill="#F0C23A" stroke="#321313" stroke-width="0.0737678"/>
<path d="M10.729 4.25868C10.7382 4.25954 10.7524 4.26652 10.7689 4.29194C10.7851 4.31693 10.7998 4.35457 10.8113 4.40375C10.8341 4.50173 10.8419 4.63723 10.8281 4.7865C10.8142 4.93577 10.7815 5.06751 10.741 5.15959C10.7207 5.20582 10.6992 5.24009 10.6787 5.26166C10.6578 5.28361 10.6426 5.28786 10.6333 5.28699C10.6241 5.28613 10.6099 5.27916 10.5934 5.25373C10.5772 5.22875 10.5625 5.19111 10.551 5.14192C10.5282 5.04395 10.5204 4.90845 10.5342 4.75917C10.5481 4.6099 10.5808 4.47817 10.6213 4.38608C10.6416 4.33986 10.6631 4.30558 10.6836 4.28401C10.7045 4.26206 10.7197 4.25782 10.729 4.25868Z" fill="#F0C23A" stroke="#321313" stroke-width="0.0737678"/>
<path d="M7.49655 5.85634C7.50582 5.8572 7.51999 5.86417 7.53645 5.8896C7.55263 5.91458 7.56741 5.95223 7.57888 6.00141C7.60172 6.09939 7.60951 6.23488 7.59563 6.38416C7.58175 6.53343 7.5491 6.66516 7.50858 6.75725C7.48824 6.80347 7.46677 6.83775 7.44627 6.85932C7.42539 6.88127 7.41019 6.88551 7.40091 6.88465C7.39163 6.88379 7.37747 6.87681 7.361 6.85139C7.34482 6.8264 7.33004 6.78876 7.31858 6.73958C7.29574 6.6416 7.28794 6.5061 7.30183 6.35683C7.31571 6.20756 7.34836 6.07582 7.38887 5.98374C7.40921 5.93751 7.43068 5.90324 7.45119 5.88167C7.47206 5.85972 7.48727 5.85547 7.49655 5.85634Z" fill="#F0C23A" stroke="#321313" stroke-width="0.0737678"/>
<path d="M12.8271 6.62489C12.8364 6.62575 12.8506 6.63273 12.867 6.65815C12.8832 6.68314 12.898 6.72078 12.9094 6.76997C12.9323 6.86794 12.9401 7.00344 12.9262 7.15271C12.9123 7.30198 12.8797 7.43372 12.8391 7.5258C12.8188 7.57203 12.7973 7.6063 12.7768 7.62787C12.756 7.64983 12.7408 7.65407 12.7315 7.6532C12.7222 7.65234 12.708 7.64537 12.6916 7.61994C12.6754 7.59496 12.6606 7.55732 12.6491 7.50813C12.6263 7.41016 12.6185 7.27466 12.6324 7.12539C12.6463 6.97611 12.6789 6.84438 12.7194 6.75229C12.7398 6.70607 12.7612 6.6718 12.7818 6.65022C12.8026 6.62827 12.8178 6.62403 12.8271 6.62489Z" fill="#F0C23A" stroke="#321313" stroke-width="0.0737678"/>
<path d="M9.9609 9.58876C9.97018 9.58962 9.98434 9.59659 10.0008 9.62202C10.017 9.647 10.0318 9.68465 10.0432 9.73383C10.0661 9.83181 10.0739 9.9673 10.06 10.1166C10.0461 10.2659 10.0135 10.3976 9.97294 10.4897C9.9526 10.5359 9.93113 10.5702 9.91062 10.5917C9.88975 10.6137 9.87454 10.6179 9.86527 10.6171C9.85599 10.6162 9.84183 10.6092 9.82536 10.5838C9.80918 10.5588 9.7944 10.5212 9.78293 10.472C9.76009 10.374 9.7523 10.2385 9.76618 10.0893C9.78006 9.93998 9.81271 9.80824 9.85323 9.71616C9.87357 9.66993 9.89504 9.63566 9.91555 9.61409C9.93642 9.59214 9.95162 9.5879 9.9609 9.58876Z" fill="#F0C23A" stroke="#321313" stroke-width="0.0737678"/>
<path d="M9.32711 12.6864C9.33639 12.6873 9.35055 12.6943 9.36702 12.7197C9.3832 12.7447 9.39798 12.7823 9.40945 12.8315C9.43228 12.9295 9.44008 13.065 9.4262 13.2142C9.41231 13.3635 9.37966 13.4952 9.33915 13.5873C9.31881 13.6336 9.29734 13.6678 9.27683 13.6894C9.25596 13.7113 9.24075 13.7156 9.23148 13.7147C9.2222 13.7139 9.20804 13.7069 9.19157 13.6815C9.17539 13.6565 9.16061 13.6188 9.14914 13.5697C9.12631 13.4717 9.11851 13.3362 9.13239 13.1869C9.14628 13.0376 9.17892 12.9059 9.21944 12.8138C9.23978 12.7676 9.26125 12.7333 9.28176 12.7117C9.30263 12.6898 9.31783 12.6856 9.32711 12.6864Z" fill="#F0C23A" stroke="#321313" stroke-width="0.0737678"/>
<path d="M15.559 5.89247C15.5683 5.89333 15.5825 5.90031 15.599 5.92573C15.6151 5.95072 15.6299 5.98836 15.6414 6.03754C15.6642 6.13552 15.672 6.27102 15.6581 6.42029C15.6442 6.56956 15.6116 6.7013 15.5711 6.79338C15.5507 6.83961 15.5293 6.87388 15.5088 6.89545C15.4879 6.9174 15.4727 6.92164 15.4634 6.92078C15.4541 6.91992 15.44 6.91295 15.4235 6.88752C15.4073 6.86254 15.3925 6.82489 15.3811 6.77571C15.3582 6.67773 15.3504 6.54224 15.3643 6.39296C15.3782 6.24369 15.4109 6.11195 15.4514 6.01987C15.4717 5.97364 15.4932 5.93937 15.5137 5.9178C15.5346 5.89585 15.5498 5.89161 15.559 5.89247Z" fill="#F0C23A" stroke="#321313" stroke-width="0.0737678"/>
<path d="M15.6572 11.7225C15.6665 11.7234 15.6806 11.7304 15.6971 11.7558C15.7133 11.7808 15.7281 11.8184 15.7395 11.8676C15.7624 11.9656 15.7702 12.1011 15.7563 12.2504C15.7424 12.3996 15.7097 12.5314 15.6692 12.6235C15.6489 12.6697 15.6274 12.704 15.6069 12.7255C15.586 12.7475 15.5708 12.7517 15.5616 12.7509C15.5523 12.75 15.5381 12.743 15.5216 12.7176C15.5055 12.6926 15.4907 12.655 15.4792 12.6058C15.4564 12.5078 15.4486 12.3723 15.4625 12.223C15.4764 12.0738 15.509 11.942 15.5495 11.85C15.5699 11.8037 15.5913 11.7695 15.6118 11.7479C15.6327 11.7259 15.6479 11.7217 15.6572 11.7225Z" fill="#F0C23A" stroke="#321313" stroke-width="0.0737678"/>
<path d="M12.059 11.955C12.0683 11.9558 12.0825 11.9628 12.099 11.9882C12.1151 12.0132 12.1299 12.0509 12.1414 12.1C12.1642 12.198 12.172 12.3335 12.1581 12.4828C12.1442 12.6321 12.1116 12.7638 12.0711 12.8559C12.0507 12.9021 12.0293 12.9364 12.0088 12.9579C11.9879 12.9799 11.9727 12.9841 11.9634 12.9833C11.9541 12.9824 11.94 12.9754 11.9235 12.95C11.9073 12.925 11.8925 12.8874 11.8811 12.8382C11.8582 12.7402 11.8504 12.6047 11.8643 12.4555C11.8782 12.3062 11.9109 12.1745 11.9514 12.0824C11.9717 12.0361 11.9932 12.0019 12.0137 11.9803C12.0346 11.9583 12.0498 11.9541 12.059 11.955Z" fill="#F0C23A" stroke="#321313" stroke-width="0.0737678"/>
<path d="M7.59469 11.6864C7.60397 11.6873 7.61813 11.6943 7.6346 11.7197C7.65078 11.7447 7.66556 11.7823 7.67702 11.8315C7.69986 11.9295 7.70766 12.065 7.69377 12.2142C7.67989 12.3635 7.64724 12.4952 7.60673 12.5873C7.58639 12.6336 7.56492 12.6678 7.54441 12.6894C7.52354 12.7113 7.50833 12.7156 7.49905 12.7147C7.48978 12.7139 7.47561 12.7069 7.45915 12.6815C7.44297 12.6565 7.42819 12.6188 7.41672 12.5697C7.39388 12.4717 7.38609 12.3362 7.39997 12.1869C7.41385 12.0376 7.4465 11.9059 7.48702 11.8138C7.50736 11.7676 7.52883 11.7333 7.54933 11.7117C7.57021 11.6898 7.58541 11.6856 7.59469 11.6864Z" fill="#F0C23A" stroke="#321313" stroke-width="0.0737678"/>
<path d="M13.291 13.8212C13.3003 13.822 13.3144 13.829 13.3309 13.8544C13.3471 13.8794 13.3618 13.9171 13.3733 13.9663C13.3962 14.0642 13.4039 14.1997 13.3901 14.349C13.3762 14.4983 13.3435 14.63 13.303 14.7221C13.2827 14.7683 13.2612 14.8026 13.2407 14.8242C13.2198 14.8461 13.2046 14.8504 13.1953 14.8495C13.1861 14.8486 13.1719 14.8417 13.1554 14.8162C13.1393 14.7912 13.1245 14.7536 13.113 14.7044C13.0902 14.6064 13.0824 14.4709 13.0963 14.3217C13.1101 14.1724 13.1428 14.0407 13.1833 13.9486C13.2036 13.9024 13.2251 13.8681 13.2456 13.8465C13.2665 13.8246 13.2817 13.8203 13.291 13.8212Z" fill="#F0C23A" stroke="#321313" stroke-width="0.0737678"/>
<path d="M6.86276 8.95497C6.87203 8.95583 6.8862 8.96281 6.90266 8.98823C6.91884 9.01322 6.93362 9.05086 6.94509 9.10004C6.96793 9.19802 6.97572 9.33352 6.96184 9.48279C6.94796 9.63206 6.91531 9.7638 6.87479 9.85588C6.85446 9.90211 6.83299 9.93638 6.81248 9.95795C6.7916 9.9799 6.7764 9.98414 6.76712 9.98328C6.75784 9.98242 6.74368 9.97545 6.72721 9.95002C6.71104 9.92504 6.69625 9.88739 6.68479 9.83821C6.66195 9.74023 6.65415 9.60474 6.66804 9.45546C6.68192 9.30619 6.71457 9.17445 6.75508 9.08237C6.77542 9.03614 6.79689 9.00187 6.8174 8.9803C6.83827 8.95835 6.85348 8.95411 6.86276 8.95497Z" fill="#F0C23A" stroke="#321313" stroke-width="0.0737678"/>
<path d="M15.4248 8.12489C15.434 8.12575 15.4482 8.13273 15.4647 8.15815C15.4809 8.18314 15.4956 8.22078 15.5071 8.26997C15.5299 8.36794 15.5377 8.50344 15.5239 8.65271C15.51 8.80198 15.4773 8.93372 15.4368 9.0258C15.4165 9.07203 15.395 9.1063 15.3745 9.12787C15.3536 9.14983 15.3384 9.15407 15.3291 9.1532C15.3199 9.15234 15.3057 9.14537 15.2892 9.11994C15.273 9.09496 15.2583 9.05732 15.2468 9.00813C15.224 8.91016 15.2162 8.77466 15.23 8.62539C15.2439 8.47611 15.2766 8.34438 15.3171 8.25229C15.3374 8.20607 15.3589 8.1718 15.3794 8.15022C15.4003 8.12827 15.4155 8.12403 15.4248 8.12489Z" fill="#F0C23A" stroke="#321313" stroke-width="0.0737678"/>
<path d="M13.9248 10.7225C13.934 10.7234 13.9482 10.7304 13.9647 10.7558C13.9809 10.7808 13.9956 10.8184 14.0071 10.8676C14.0299 10.9656 14.0377 11.1011 14.0239 11.2504C14.01 11.3996 13.9773 11.5314 13.9368 11.6235C13.9165 11.6697 13.895 11.704 13.8745 11.7255C13.8536 11.7475 13.8384 11.7517 13.8291 11.7509C13.8199 11.75 13.8057 11.743 13.7892 11.7176C13.773 11.6926 13.7583 11.655 13.7468 11.6058C13.724 11.5078 13.7162 11.3723 13.73 11.223C13.7439 11.0738 13.7766 10.942 13.8171 10.85C13.8374 10.8037 13.8589 10.7695 13.8794 10.7479C13.9003 10.7259 13.9155 10.7217 13.9248 10.7225Z" fill="#F0C23A" stroke="#321313" stroke-width="0.0737678"/>
<path d="M17.1572 9.12489C17.1665 9.12575 17.1806 9.13273 17.1971 9.15815C17.2133 9.18314 17.2281 9.22078 17.2395 9.26997C17.2624 9.36794 17.2702 9.50344 17.2563 9.65271C17.2424 9.80198 17.2097 9.93372 17.1692 10.0258C17.1489 10.072 17.1274 10.1063 17.1069 10.1279C17.086 10.1498 17.0708 10.1541 17.0616 10.1532C17.0523 10.1523 17.0381 10.1454 17.0216 10.1199C17.0055 10.095 16.9907 10.0573 16.9792 10.0081C16.9564 9.91016 16.9486 9.77466 16.9625 9.62539C16.9764 9.47611 17.009 9.34438 17.0495 9.25229C17.0699 9.20607 17.0913 9.1718 17.1118 9.15022C17.1327 9.12827 17.1479 9.12403 17.1572 9.12489Z" fill="#F0C23A" stroke="#321313" stroke-width="0.0737678"/>
<path d="M11.2674 10.9535L10.6741 11.2274C10.515 11.3008 10.3333 11.1846 10.3333 11.0093C10.3333 10.8767 10.2258 10.7692 10.0932 10.7692H9.46357C8.91364 10.7692 8.53043 10.2234 8.71721 9.70618L8.73252 9.6638C8.87812 9.26059 8.65702 8.81754 8.24728 8.69147C7.69399 8.52123 7.53354 7.8152 7.95891 7.42254L8.73299 6.70801C8.86013 6.59065 8.82716 6.38177 8.67007 6.30926C8.43376 6.2002 8.51152 5.84615 8.77179 5.84615H10.5547C10.8219 5.84615 11.0605 5.67865 11.1513 5.42728L11.2965 5.025C11.4956 4.47371 12.124 4.21106 12.6561 4.45668L14.1339 5.13873C14.2653 5.19937 14.4083 5.23077 14.553 5.23077H14.9944C15.6459 5.23077 16.0998 5.87735 15.8786 6.49009C15.7502 6.84571 15.8473 7.24366 16.1251 7.50012L16.5252 7.86943C16.7811 8.1056 16.7811 8.50979 16.5252 8.74595C16.4029 8.85886 16.3333 9.01775 16.3333 9.18421V9.76923C16.3333 10.3215 15.8856 10.7692 15.3333 10.7692H14.7243C14.4729 10.7692 14.2308 10.8639 14.046 11.0344L13.6783 11.3739C13.2952 11.7275 12.7048 11.7275 12.3217 11.3739L11.9898 11.0675C11.7942 10.8869 11.5091 10.8419 11.2674 10.9535Z" fill="#CF7D36"/>
<path d="M7.43832 15.2087C7.18389 14.4863 6.08031 12.8958 3 10.5C3 10.9861 5.36274 13.5199 6.41308 15.345C6.46784 15.4402 6.56831 15.5 6.67809 15.5H7.2C7.36569 15.5 7.49335 15.365 7.43832 15.2087Z" fill="#FFD2BF" stroke="#321313" stroke-width="0.1"/>
<path d="M11.4383 19.7087C11.1839 18.9863 10.0803 17.3958 7 15C7 15.4861 9.36274 18.0199 10.4131 19.845C10.4678 19.9402 10.5683 20 10.6781 20H11.2C11.3657 20 11.4934 19.865 11.4383 19.7087Z" fill="#D68B6B" stroke="#321313" stroke-width="0.1"/>
<path d="M9.19573 15.9639C9.41381 16.5832 10.3597 17.9465 13 20C13 19.5834 10.9748 17.4115 10.0745 15.8471C10.0276 15.7656 9.94145 15.7143 9.84735 15.7143L9.4 15.7143C9.25798 15.7143 9.14855 15.83 9.19573 15.9639Z" fill="#E0C4B8" stroke="#321313" stroke-width="0.0857143"/>
<path d="M10.4383 16.7087C10.1839 15.9863 9.08031 14.3958 6 12C6 12.4861 8.36274 15.0199 9.41308 16.845C9.46784 16.9402 9.56831 17 9.67809 17H10.2C10.3657 17 10.4934 16.865 10.4383 16.7087Z" fill="#D68B6B" stroke="#321313" stroke-width="0.1"/>
<path d="M14.0617 14.2913C14.3161 15.0137 15.4197 16.6042 18.5 19C18.5 18.5139 16.1373 15.9801 15.0869 14.155C15.0322 14.0598 14.9317 14 14.8219 14L14.3 14C14.1343 14 14.0066 14.135 14.0617 14.2913Z" fill="#D68B6B" stroke="#321313" stroke-width="0.1"/>
<path d="M14.4383 16.7087C14.1839 15.9863 13.0803 14.3958 10 12C10 12.4861 12.3627 15.0199 13.4131 16.845C13.4678 16.9402 13.5683 17 13.6781 17H14.2C14.3657 17 14.4934 16.865 14.4383 16.7087Z" fill="#E0C4B8" stroke="#321313" stroke-width="0.1"/>
<path d="M14.4383 16.7087C14.1839 15.9863 13.0803 14.3958 10 12C10 12.4861 12.3627 15.0199 13.4131 16.845C13.4678 16.9402 13.5683 17 13.6781 17H14.2C14.3657 17 14.4934 16.865 14.4383 16.7087Z" fill="#D68B6B" stroke="#321313" stroke-width="0.1"/>
<path d="M16.9452 19.1855C16.719 18.5433 15.7381 17.1296 13 15C13 15.4321 15.1002 17.6843 16.0338 19.3067C16.0825 19.3913 16.1718 19.4444 16.2694 19.4444H16.7333C16.8806 19.4444 16.9941 19.3245 16.9452 19.1855Z" fill="#D68B6B" stroke="#321313" stroke-width="0.0888889"/>
<path d="M10.0617 14.2913C10.3161 15.0137 11.4197 16.6042 14.5 19C14.5 18.5139 12.1373 15.9801 11.0869 14.155C11.0322 14.0598 10.9317 14 10.8219 14L10.3 14C10.1343 14 10.0066 14.135 10.0617 14.2913Z" fill="#FFD2BF" stroke="#321313" stroke-width="0.1"/>
<path d="M16.4587 14.3117C15.7363 14.5661 14.1458 15.6697 11.75 18.75C12.2361 18.75 14.7699 16.3873 16.595 15.3369C16.6902 15.2822 16.75 15.1817 16.75 15.0719L16.75 14.55C16.75 14.3843 16.615 14.2566 16.4587 14.3117Z" fill="#E0C4B8" stroke="#321313" stroke-width="0.1"/>
<path d="M18.4383 16.7087C18.1839 15.9863 17.0803 14.3958 14 12C14 12.4861 16.3627 15.0199 17.4131 16.845C17.4678 16.9402 17.5683 17 17.6781 17H18.2C18.3657 17 18.4934 16.865 18.4383 16.7087Z" fill="#D68B6B" stroke="#321313" stroke-width="0.1"/>
<path d="M10.9499 14.958C10.1862 15.0168 8.36433 15.6711 5.25293 18.0264C5.72245 18.1522 8.78142 16.5257 10.8162 15.9836C10.9223 15.9553 11.0061 15.8737 11.0345 15.7677L11.1696 15.2636C11.2125 15.1035 11.1151 14.9453 10.9499 14.958Z" fill="#EDA88A" stroke="#321313" stroke-width="0.1"/>
<path d="M13.697 16.2783C12.9333 16.3371 11.1114 16.9914 8 19.3467C8.46952 19.4725 11.5285 17.846 13.5633 17.3039C13.6694 17.2756 13.7532 17.1941 13.7816 17.088L13.9167 16.5839C13.9596 16.4238 13.8622 16.2656 13.697 16.2783Z" fill="#EDA88A" stroke="#321313" stroke-width="0.1"/>
<path d="M20.697 13.2783C19.9333 13.3371 18.1114 13.9914 15 16.3467C15.4695 16.4725 18.5285 14.846 20.5633 14.3039C20.6694 14.2756 20.7532 14.1941 20.7816 14.088L20.9167 13.5839C20.9596 13.4238 20.8622 13.2656 20.697 13.2783Z" fill="#FFD2BF" stroke="#321313" stroke-width="0.1"/>
<path d="M18.697 16.2783C17.9333 16.3371 16.1114 16.9914 13 19.3467C13.4695 19.4725 16.5285 17.846 18.5633 17.3039C18.6694 17.2756 18.7532 17.1941 18.7816 17.088L18.9167 16.5839C18.9596 16.4238 18.8622 16.2656 18.697 16.2783Z" fill="#EDA88A" stroke="#321313" stroke-width="0.1"/>
<path d="M19.4383 16.7087C19.1839 15.9863 18.0803 14.3958 15 12C15 12.4861 17.3627 15.0199 18.4131 16.845C18.4678 16.9402 18.5683 17 18.6781 17H19.2C19.3657 17 19.4934 16.865 19.4383 16.7087Z" fill="#D68B6B" stroke="#321313" stroke-width="0.1"/>
<path d="M4.05266 14.2501C4.27074 14.8693 5.21667 16.2326 7.85693 18.2861C7.85693 17.8695 5.83173 15.6977 4.93144 14.1333C4.8845 14.0517 4.79839 14.0004 4.70429 14.0004L4.25693 14.0004C4.11492 14.0004 4.00549 14.1161 4.05266 14.2501Z" fill="#D68B6B" stroke="#321313" stroke-width="0.0857143"/>
</svg>
