<svg width="106" height="14" viewBox="0 0 106 14" fill="none" xmlns="http://www.w3.org/2000/svg">
<path d="M12.5655 10.1791L11.0916 9.33603C10.8563 9.19965 10.559 9.26164 10.398 9.48481C9.60537 10.5635 8.34206 11.2206 6.97968 11.2206C4.60169 11.2206 2.66958 9.23684 2.75628 6.84394C2.83059 4.59982 4.73793 2.76485 6.97968 2.75245C8.32968 2.75245 9.55583 3.37238 10.3609 4.42624C10.5219 4.63702 10.8315 4.69901 11.0545 4.56263L12.5035 3.69474C12.7389 3.52116 12.8751 3.2236 12.6645 2.91363C11.3641 1.10346 9.23381 0 6.99206 0C3.02876 0 -0.166656 3.31038 0.00673855 7.31508C0.142977 10.2783 2.19894 12.9068 5.04757 13.7251C8.03243 14.5806 11.0916 13.3779 12.7512 10.9726C12.9246 10.6999 12.8379 10.3403 12.5655 10.1791Z" fill="#663908"/>
<path d="M26.6351 0.222656H24.9507C24.6535 0.222656 24.4058 0.470625 24.4058 0.768188V5.50439H18.3617V0.768188C18.3617 0.470625 18.114 0.222656 17.8168 0.222656H16.1324C15.8351 0.222656 15.5874 0.470625 15.5874 0.768188V13.2038C15.5874 13.5014 15.8351 13.7494 16.1324 13.7494H17.8168C18.114 13.7494 18.3617 13.5014 18.3617 13.2038V8.26925H24.4058V13.2038C24.4058 13.5014 24.6535 13.7494 24.9507 13.7494H26.6351C26.9324 13.7494 27.1801 13.5014 27.1801 13.2038V0.768188C27.1677 0.470625 26.9324 0.222656 26.6351 0.222656Z" fill="#663908"/>
<path d="M58.7256 0.222656H56.6697C56.4591 0.222656 56.2734 0.334242 56.1867 0.520219L51.7775 9.24872L47.3559 0.520219C47.2692 0.334242 47.0711 0.222656 46.8729 0.222656H44.8169C44.5197 0.222656 44.272 0.470625 44.272 0.768188V13.2038C44.272 13.5014 44.5197 13.7494 44.8169 13.7494H46.5013C46.7986 13.7494 47.0463 13.5014 47.0463 13.2038V6.01273L50.8114 13.4518C50.8981 13.6378 51.0963 13.7494 51.2944 13.7494H52.2605C52.4711 13.7494 52.6568 13.6378 52.7435 13.4518L56.5087 6.01273V13.2038C56.5087 13.5014 56.7564 13.7494 57.0536 13.7494H58.738C59.0353 13.7494 59.283 13.5014 59.283 13.2038V0.768188C59.2706 0.470625 59.0229 0.222656 58.7256 0.222656Z" fill="#663908"/>
<path d="M40.9774 0.235055H39.293C38.9957 0.235055 38.748 0.483024 38.748 0.780586V8.19486C38.748 9.86865 37.398 11.2201 35.726 11.2201C34.054 11.2201 32.704 9.86865 32.704 8.19486V0.768188C32.704 0.470625 32.4563 0.222656 32.159 0.222656H30.4746C30.1774 0.222656 29.9297 0.470625 29.9297 0.768188V8.19486C29.9297 11.3937 32.5182 13.9849 35.7136 13.9849C38.909 13.9849 41.4976 11.3937 41.4976 8.19486V0.768188C41.51 0.470625 41.2746 0.235055 40.9774 0.235055Z" fill="#663908"/>
<path d="M74.0211 12.0017C73.9344 11.9149 73.7858 11.9149 73.6867 12.0017C73.2532 12.3489 72.7702 12.5348 72.2624 12.5348C71.0982 12.5348 70.1941 11.5926 70.1941 10.3899C70.1941 9.17487 71.0982 8.23259 72.2624 8.23259C72.7702 8.23259 73.2904 8.43096 73.6867 8.77812C73.7363 8.82771 73.7982 8.85251 73.8601 8.85251C73.9221 8.85251 73.9716 8.82771 74.0211 8.77812L74.6032 8.17059C74.6528 8.121 74.6776 8.05901 74.6776 7.98462C74.6776 7.92263 74.6404 7.84824 74.5909 7.79864C73.8973 7.16632 73.1665 6.89355 72.2377 6.89355C70.2932 6.89355 68.7202 8.46816 68.7202 10.4147C68.7202 12.3489 70.2932 13.9111 72.2377 13.9111C73.1542 13.9111 73.9716 13.5887 74.6032 12.9688C74.6528 12.9192 74.6899 12.8448 74.6776 12.7704C74.6776 12.7084 74.6528 12.6464 74.6032 12.6216L74.0211 12.0017Z" fill="#CF7D36"/>
<path d="M78.6655 7.00504C78.6283 6.94304 78.5788 6.86865 78.4426 6.86865H78.3435C78.2692 6.86865 78.1825 6.89345 78.1205 7.01743L75.1481 13.4274C75.1109 13.5142 75.1109 13.5886 75.1605 13.663C75.21 13.725 75.2843 13.7746 75.371 13.7746H76.2008C76.3618 13.7746 76.4857 13.6878 76.5352 13.539L76.9811 12.5471H79.7554L80.2013 13.539C80.2756 13.6754 80.3499 13.7622 80.5357 13.7622H81.3655C81.4522 13.7622 81.5389 13.725 81.576 13.6506C81.6256 13.5762 81.6256 13.5018 81.5884 13.415L78.6655 7.00504ZM79.2352 11.3445H77.5137L78.3559 9.44753L79.2352 11.3445Z" fill="#CF7D36"/>
<path d="M85.5764 6.99316H83.3346C83.1984 6.99316 83.0869 7.10475 83.0869 7.24113V13.5147C83.0869 13.6511 83.1984 13.7627 83.3346 13.7627H84.214C84.3502 13.7627 84.4617 13.6511 84.4617 13.5147V11.4194H85.5888C86.8025 11.4194 87.7933 10.4151 87.7933 9.18769C87.781 7.97264 86.7901 6.99316 85.5764 6.99316ZM86.4186 9.17529C86.4186 9.68363 86.0099 10.1052 85.5021 10.1052H84.4617V8.3074H85.5021C86.0099 8.3074 86.4186 8.69175 86.4186 9.17529Z" fill="#CF7D36"/>
<path d="M94.4444 6.99316H93.565C93.4288 6.99316 93.3173 7.10475 93.3173 7.24113V9.72082H90.3325V7.24113C90.3325 7.10475 90.221 6.99316 90.0848 6.99316H89.193C89.0568 6.99316 88.9453 7.10475 88.9453 7.24113V13.5147C88.9453 13.6511 89.0568 13.7627 89.193 13.7627H90.0848C90.221 13.7627 90.3325 13.6511 90.3325 13.5147V11.0227H93.3173V13.5147C93.3173 13.6511 93.4288 13.7627 93.565 13.7627H94.4444C94.5806 13.7627 94.6921 13.6511 94.6921 13.5147V7.24113C94.6921 7.10475 94.5683 6.99316 94.4444 6.99316Z" fill="#CF7D36"/>
<path d="M97.194 6.43496C97.2807 6.54654 97.3674 6.55894 97.5037 6.48455L98.4078 5.92662L99.2995 6.49695C99.3615 6.53414 99.411 6.54654 99.4481 6.54654C99.5101 6.54654 99.5596 6.50935 99.6092 6.44735L99.8569 6.0878C99.8816 6.0506 99.894 6.00101 99.8816 5.96381C99.8692 5.90182 99.8321 5.85223 99.7826 5.81503L98.5316 4.83556C98.4449 4.77356 98.3335 4.77356 98.2468 4.83556L97.0082 5.80264C96.9587 5.83983 96.9092 5.88942 96.9092 5.95142C96.8968 6.00101 96.9092 6.03821 96.9339 6.0754L97.194 6.43496Z" fill="#CF7D36"/>
<path d="M100.34 8.2826C100.476 8.2826 100.588 8.17102 100.588 8.03463V7.24113C100.588 7.10475 100.476 6.99316 100.34 6.99316H96.4508C96.3146 6.99316 96.2031 7.10475 96.2031 7.24113V13.5147C96.2031 13.6511 96.3146 13.7627 96.4508 13.7627H100.34C100.476 13.7627 100.588 13.6511 100.588 13.5147V12.7212C100.588 12.5849 100.476 12.4733 100.34 12.4733H97.5779V11.0227H100.34C100.476 11.0227 100.588 10.9111 100.588 10.7747V9.98119C100.588 9.84481 100.476 9.73322 100.34 9.73322H97.5779V8.295H100.34V8.2826Z" fill="#CF7D36"/>
<path d="M77.0681 7.94734L76.3621 6.23636C76.3126 6.09997 76.1763 6.01318 76.0277 6.01318H75.2103C75.0864 6.01318 75.0121 6.14957 75.074 6.24875L76.1763 7.99693C76.2382 8.09612 76.3497 8.15811 76.4736 8.15811H76.907C77.0309 8.15811 77.1052 8.04653 77.0681 7.94734Z" fill="#CF7D36"/>
<path d="M105.814 10.0552H103.399C103.3 10.0552 103.213 10.142 103.213 10.2412V10.7495C103.213 10.8487 103.3 10.9355 103.399 10.9355H105.814C105.913 10.9355 106 10.8487 106 10.7495V10.2412C106 10.142 105.913 10.0552 105.814 10.0552Z" fill="#CF7D36"/>
<path d="M65.9085 10.0552H63.4934C63.3943 10.0552 63.3076 10.142 63.3076 10.2412V10.7495C63.3076 10.8487 63.3943 10.9355 63.4934 10.9355H65.9085C66.0076 10.9355 66.0943 10.8487 66.0943 10.7495V10.2412C66.0943 10.142 66.0076 10.0552 65.9085 10.0552Z" fill="#CF7D36"/>
</svg>
