<svg width="24" height="24" viewBox="0 0 24 24" fill="none" xmlns="http://www.w3.org/2000/svg">
<path d="M1 5.0311C1 2.80478 2.80478 1 5.0311 1C5.54393 1 6.05206 1.09786 6.52821 1.28832L7.12861 1.52848C8.32993 2.00901 9.67007 2.00901 10.8714 1.52848C11.5959 1.23868 12.4041 1.23868 13.1286 1.52848C14.3299 2.00901 15.6701 2.00901 16.8714 1.52848L17.4718 1.28832C17.9479 1.09786 18.4561 1 18.9689 1C21.1952 1 23 2.80478 23 5.0311V18.9689C23 21.1952 21.1952 23 18.9689 23C18.4561 23 17.9479 22.9021 17.4718 22.7117L16.8714 22.4715C15.6701 21.991 14.3299 21.991 13.1286 22.4715C12.4041 22.7613 11.5959 22.7613 10.8714 22.4715C9.67007 21.991 8.32993 21.991 7.12861 22.4715L6.52821 22.7117L6.8996 23.6402L6.52821 22.7117C6.05206 22.9021 5.54393 23 5.0311 23C2.80478 23 1 21.1952 1 18.9689V5.0311Z" stroke="#9F9F9F" stroke-width="2"/>
<path d="M10.8003 7.2002H17.867" stroke="#9F9F9F" stroke-width="2" stroke-linecap="round"/>
<path d="M6.1333 7.2002H7.3333" stroke="#9F9F9F" stroke-width="2" stroke-linecap="round"/>
<path d="M6.1333 12H7.3333" stroke="#9F9F9F" stroke-width="2" stroke-linecap="round"/>
<path d="M6.1333 16.7998H7.3333" stroke="#9F9F9F" stroke-width="2" stroke-linecap="round"/>
<path d="M10.8003 12H17.867" stroke="#9F9F9F" stroke-width="2" stroke-linecap="round"/>
<path d="M10.8003 16.7998H17.867" stroke="#9F9F9F" stroke-width="2" stroke-linecap="round"/>
</svg>
