<svg width="24" height="25" viewBox="0 0 24 25" fill="none" xmlns="http://www.w3.org/2000/svg">
<path d="M2.3999 12.7998V17.8634C2.3999 20.7562 2.3999 22.2025 3.29855 23.1012C4.1972 23.9998 5.64355 23.9998 8.53626 23.9998H15.4635C18.3563 23.9998 19.8026 23.9998 20.7013 23.1012C21.5999 22.2025 21.5999 20.7562 21.5999 17.8634V12.7998" stroke="#FF9E2B" stroke-width="2"/>
<path d="M23.8425 8.27417L20.7825 0.990758C20.6583 0.693341 20.4669 0.443048 20.2297 0.268022C19.9925 0.0929958 19.7191 0.000176232 19.44 0H4.56001C4.28094 0.000176232 4.00746 0.0929958 3.77029 0.268022C3.53313 0.443048 3.34169 0.693341 3.21751 0.990758L0.157511 8.27417C0.0530337 8.52364 -0.000906233 8.79875 1.15178e-05 9.07749V11.8266C-0.000673251 12.2437 0.12139 12.6479 0.345011 12.9691C0.675505 13.42 1.08368 13.7809 1.54181 14.0273C1.99994 14.2737 2.49727 14.3999 3.00001 14.3972C3.82034 14.3988 4.61564 14.0612 5.25001 13.4422C5.88436 14.0615 6.6795 14.4 7.5 14.4C8.32051 14.4 9.11565 14.0615 9.75 13.4422C10.3844 14.0615 11.1795 14.4 12 14.4C12.8205 14.4 13.6156 14.0615 14.25 13.4422C14.8844 14.0615 15.6795 14.4 16.5 14.4C17.3205 14.4 18.1156 14.0615 18.75 13.4422C19.4581 14.1341 20.3641 14.4724 21.2774 14.3858C22.1908 14.2993 23.0403 13.7946 23.6475 12.978C23.8738 12.6581 23.9986 12.2538 24 11.8355V9.07749C24.0009 8.79875 23.947 8.52364 23.8425 8.27417ZM9.75 9.28278V9.49604C9.75 10.2428 9.53663 10.9739 9.135 11.6035C8.94621 11.9097 8.69948 12.1587 8.41477 12.3304C8.13007 12.502 7.81541 12.5915 7.49625 12.5915C7.1771 12.5915 6.86244 12.502 6.57774 12.3304C6.29303 12.1587 6.0463 11.9097 5.85751 11.6035C5.46015 10.9496 5.25001 10.1991 5.25001 9.43399V9.28278L7.1925 1.78515H10.5L9.75 9.28278ZM18.75 9.64636C18.75 10.2726 18.578 10.8868 18.2528 11.422L18.1425 11.6035C17.9537 11.9097 17.707 12.1587 17.4223 12.3304C17.1376 12.502 16.8229 12.5915 16.5037 12.5915C16.1846 12.5915 15.8699 12.502 15.5852 12.3304C15.3005 12.1587 15.0538 11.9097 14.865 11.6035C14.4629 10.9498 14.25 10.1975 14.25 9.43008V9.28278L13.5 1.78515H16.8375L18.6601 8.93048C18.7198 9.16443 18.75 9.40492 18.75 9.64636Z" fill="#FF9E2B"/>
</svg>
