<svg width="24" height="24" viewBox="0 0 24 24" fill="none" xmlns="http://www.w3.org/2000/svg">
<path d="M6 1H18C19.4425 1 20.4237 1.00212 21.1586 1.10092C21.8646 1.19584 22.1916 1.36322 22.4142 1.58579C22.6368 1.80836 22.8042 2.13538 22.8991 2.84143C22.9979 3.57625 23 4.55752 23 6V8.01233C22.9441 8.01481 22.8899 8.01778 22.8376 8.02135C22.5078 8.04385 22.1779 8.09336 21.8519 8.22836C21.1169 8.53284 20.5328 9.11687 20.2284 9.85195C20.0934 10.1779 20.0439 10.5078 20.0213 10.8376C20 11.1509 20 11.5294 20 11.968V12V12.032C20 12.4706 20 12.8491 20.0213 13.1624C20.0439 13.4922 20.0934 13.8221 20.2284 14.148C20.5328 14.8831 21.1169 15.4672 21.8519 15.7716C22.1779 15.9066 22.5078 15.9561 22.8376 15.9787C22.8899 15.9822 22.9441 15.9852 23 15.9877V18C23 19.4425 22.9979 20.4237 22.8991 21.1586C22.8042 21.8646 22.6368 22.1916 22.4142 22.4142C22.1916 22.6368 21.8646 22.8042 21.1586 22.8991C20.4237 22.9979 19.4425 23 18 23H6C4.55752 23 3.57625 22.9979 2.84143 22.8991C2.13538 22.8042 1.80836 22.6368 1.58579 22.4142C1.36322 22.1916 1.19584 21.8646 1.10092 21.1586C1.00212 20.4237 1 19.4425 1 18V15.9877C1.05593 15.9852 1.11007 15.9822 1.16238 15.9787C1.49221 15.9561 1.82212 15.9066 2.14805 15.7716C2.88314 15.4672 3.46716 14.8831 3.77164 14.1481C3.90664 13.8221 3.95615 13.4922 3.97865 13.1624C4.00002 12.8491 4.00001 12.4706 4 12.032L4 12L4 11.968C4.00001 11.5294 4.00002 11.1509 3.97865 10.8376C3.95615 10.5078 3.90664 10.1779 3.77164 9.85195C3.46716 9.11687 2.88314 8.53284 2.14805 8.22836C1.82212 8.09336 1.49221 8.04385 1.16238 8.02135C1.11007 8.01778 1.05593 8.01481 1 8.01233V6C1 4.55752 1.00212 3.57625 1.10092 2.84143C1.19584 2.13538 1.36322 1.80836 1.58579 1.58579C1.80836 1.36322 2.13538 1.19584 2.84143 1.10092C3.57625 1.00212 4.55752 1 6 1Z" stroke="#9F9F9F" stroke-width="2"/>
<path d="M15.5 0V24" stroke="#9F9F9F" stroke-width="2"/>
</svg>
