<svg width="16" height="16" viewBox="0 0 16 16" fill="none" xmlns="http://www.w3.org/2000/svg">
<path fill-rule="evenodd" clip-rule="evenodd" d="M14.0002 6.18212C14.0002 8.46332 12.1142 10.3642 9.7235 10.3642C7.3328 10.3642 5.44679 8.46332 5.44679 6.18212C5.44679 3.90092 7.3328 2 9.7235 2C12.1142 2 14.0002 3.90092 14.0002 6.18212ZM16.0002 6.18212C16.0002 9.59641 13.19 12.3642 9.7235 12.3642C8.41312 12.3642 7.19652 11.9687 6.19005 11.2923L1.80585 15.6105L1.80584 15.6105C1.64134 15.7725 1.55908 15.8535 1.47345 15.9021C1.24274 16.0329 0.958789 16.0329 0.728083 15.9021C0.642448 15.8535 0.560192 15.7725 0.39568 15.6105L0.395667 15.6104C0.231164 15.4484 0.148911 15.3674 0.0996123 15.2831C-0.0332041 15.0558 -0.0332041 14.7762 0.0996123 14.5489C0.148912 14.4646 0.231168 14.3836 0.39568 14.2215L4.74069 9.94201C3.92914 8.90025 3.44679 7.59666 3.44679 6.18212C3.44679 2.76783 6.25697 0 9.7235 0C13.19 0 16.0002 2.76783 16.0002 6.18212Z" fill="#C4C4C4"/>
</svg>
