<svg width="16" height="16" viewBox="0 0 16 16" fill="none" xmlns="http://www.w3.org/2000/svg">
<path d="M15.9846 12.9174C15.9474 12.7934 15.8603 12.6877 15.7417 12.6228C15.6231 12.5578 15.4823 12.5387 15.3489 12.5693L14.0297 12.9025C14.7516 11.9036 15.1893 10.7479 15.3012 9.54545C15.4094 8.42041 15.2342 7.28725 14.7897 6.23754C14.3451 5.18783 13.6438 4.25101 12.7423 3.50277C12.6381 3.42186 12.5049 3.38142 12.3699 3.38974C12.235 3.39806 12.1085 3.45452 12.0165 3.54753C11.9239 3.64651 11.8769 3.77594 11.8858 3.90741C11.8948 4.03888 11.9589 4.16165 12.0642 4.24878C12.841 4.89245 13.4453 5.69887 13.8282 6.60268C14.2111 7.50649 14.3618 8.48227 14.2681 9.45095C14.1774 10.4713 13.8128 11.4534 13.2085 12.3057L13.0761 11.0574C13.0861 10.9839 13.0785 10.9093 13.0538 10.8389C13.0291 10.7686 12.988 10.7043 12.9335 10.6507C12.879 10.5972 12.8124 10.5558 12.7387 10.5295C12.6649 10.5032 12.5859 10.4927 12.5072 10.4987C12.4286 10.5048 12.3524 10.5272 12.2842 10.5645C12.216 10.6017 12.1575 10.6528 12.113 10.7139C12.0686 10.7751 12.0392 10.8448 12.0271 10.918C12.0149 10.9912 12.0204 11.066 12.043 11.1369L12.3079 14.3398L15.6191 13.5142C15.7503 13.4782 15.8615 13.396 15.9296 13.2848C15.9978 13.1736 16.0175 13.0419 15.9846 12.9174Z" fill="#321313"/>
<path d="M0.524989 8.34212C0.595402 8.38462 0.675048 8.41181 0.758097 8.42169C0.896362 8.43872 1.0362 8.40388 1.14728 8.32474C1.25837 8.2456 1.33173 8.12854 1.35146 7.99895C1.57037 6.48164 2.39179 5.09797 3.65124 4.12502C4.91068 3.15207 6.51516 2.66167 8.14339 2.75202L6.95666 3.51295C6.87269 3.57233 6.80944 3.65382 6.77496 3.74705C6.74048 3.84028 6.73632 3.94103 6.76302 4.03648C6.78972 4.13194 6.84606 4.21778 6.92489 4.28308C7.00371 4.34838 7.10145 4.39019 7.20566 4.40318C7.32502 4.41343 7.44455 4.38538 7.54473 4.32361L10.3685 2.50335L7.95267 0.225531C7.90968 0.163693 7.85256 0.111617 7.78546 0.073084C7.71836 0.0345512 7.64296 0.0105285 7.56473 0.00276C7.48651 -0.0050085 7.40742 0.00367214 7.33322 0.0281717C7.25902 0.0526713 7.19155 0.092375 7.13573 0.1444C7.07991 0.196426 7.03713 0.259467 7.0105 0.328947C6.98386 0.398428 6.97405 0.472604 6.98176 0.54609C6.98947 0.619576 7.01451 0.690529 7.05507 0.753796C7.09563 0.817064 7.1507 0.871058 7.21626 0.91186L8.1169 1.75734C6.23658 1.67294 4.39088 2.25337 2.94416 3.38404C1.49745 4.51472 0.554859 6.11346 0.302477 7.86467C0.288893 7.95579 0.302499 8.04865 0.341783 8.13294C0.381066 8.21723 0.444486 8.28964 0.524989 8.34212Z" fill="#321313"/>
<path d="M9.75415 14.7327C8.92685 14.9808 8.05418 15.0671 7.18996 14.9864C6.13746 14.8895 5.12588 14.5537 4.24255 14.0078C3.35922 13.4619 2.63069 12.7224 2.11986 11.8532L3.43904 12.3157C3.56064 12.3355 3.68579 12.3148 3.79289 12.2572C3.89998 12.1996 3.9823 12.1088 4.02564 12.0003C4.06897 11.8918 4.0706 11.7725 4.03025 11.663C3.98989 11.5535 3.91008 11.4607 3.8046 11.4006L1.37285 10.5551L0.59406 10.2915L0.00599097 13.4496C-0.0143961 13.5758 0.0176837 13.7045 0.0955909 13.8091C0.173498 13.9138 0.291268 13.9862 0.424526 14.0116H0.514591C0.639283 14.0137 0.760777 13.9745 0.857687 13.9008C0.954596 13.8271 1.02071 13.7237 1.04438 13.6088L1.26689 12.4151C1.8661 13.4005 2.70775 14.237 3.72156 14.8547C4.73537 15.4725 5.89191 15.8536 7.0946 15.9661C8.10012 16.0597 9.11539 15.9581 10.0773 15.6677C10.1998 15.6201 10.2988 15.5311 10.3548 15.4184C10.4108 15.3056 10.4198 15.1771 10.3798 15.0585C10.3399 14.9398 10.2541 14.8395 10.1392 14.7774C10.0243 14.7152 9.88885 14.6957 9.75945 14.7228L9.75415 14.7327Z" fill="#321313"/>
<path d="M9.89752 6.31299H5.65919C5.51868 6.31299 5.38392 6.36539 5.28457 6.45866C5.18521 6.55193 5.12939 6.67843 5.12939 6.81033V10.789C5.12939 10.9209 5.18521 11.0474 5.28457 11.1407C5.38392 11.234 5.51868 11.2864 5.65919 11.2864H9.89752C10.038 11.2864 10.1728 11.234 10.2721 11.1407C10.3715 11.0474 10.4273 10.9209 10.4273 10.789V6.81033C10.4273 6.67843 10.3715 6.55193 10.2721 6.45866C10.1728 6.36539 10.038 6.31299 9.89752 6.31299ZM9.36773 10.2917H6.18898V7.30767H9.36773V10.2917Z" fill="#321313"/>
</svg>
