<svg width="16" height="16" viewBox="0 0 16 16" fill="none" xmlns="http://www.w3.org/2000/svg">
<path d="M16 7.73844C16 12.3013 12.419 16 8.00014 16C3.58127 16 0 12.3015 0 7.73844C0 3.17647 3.581 0 7.99986 0C12.4187 0 16 3.17619 16 7.73844Z" fill="#9F9F9F"/>
<path d="M13.9871 7.80404C13.9871 11.2195 11.3065 13.9879 7.99868 13.9879C4.69089 13.9879 2.01025 11.2195 2.01025 7.80404C2.01025 4.38942 4.69116 2.01221 7.99868 2.01221C11.3062 2.01221 13.9871 4.38942 13.9871 7.80404Z" fill="#FAF4F4"/>
<path d="M8.74046 8.32629C8.74046 8.82772 8.3547 9.2332 7.87853 9.2332C7.40235 9.2332 7.0166 8.82772 7.0166 8.32629V4.06417C7.0166 3.56417 7.40235 3.15869 7.87853 3.15869C8.35498 3.15869 8.74046 3.56417 8.74046 4.06417V8.32629Z" fill="#321313"/>
<path d="M7.92954 9.23391C7.42405 9.23391 7.01562 8.95751 7.01562 8.61687C7.01562 8.27709 7.42405 8.00098 7.92954 8.00098H12.2314C12.7366 8.00098 13.1462 8.27709 13.1462 8.61687C13.1462 8.95751 12.7369 9.23391 12.2314 9.23391H7.92954Z" fill="#321313"/>
</svg>
