<svg width="32" height="32" viewBox="0 0 32 32" fill="none" xmlns="http://www.w3.org/2000/svg">
<path d="M2 31H30" stroke="#321313" stroke-width="2" stroke-linecap="round"/>
<path d="M6 30L6 8" stroke="#321313" stroke-width="2" stroke-linecap="square"/>
<path d="M4 8H28" stroke="#321313" stroke-width="4" stroke-linecap="round"/>
<path d="M26 30V8" stroke="#321313" stroke-width="2" stroke-linecap="square"/>
<path d="M13 2.43961C13 2.02202 13.0018 1.7997 13.0209 1.64391C13.0211 1.64175 13.0214 1.63964 13.0217 1.63757C13.0236 1.63691 13.0257 1.63623 13.0277 1.63555C13.1767 1.58625 13.3944 1.54092 13.8039 1.45903L15.8039 1.05903C15.9088 1.03803 15.9601 1.02796 15.9976 1.02197C15.9985 1.02184 15.9992 1.02172 16 1.0216C16.0008 1.02172 16.0015 1.02184 16.0024 1.02197C16.0399 1.02796 16.0912 1.03803 16.1961 1.05903L18.1961 1.45903C18.6056 1.54092 18.8233 1.58625 18.9723 1.63555C18.9743 1.63623 18.9763 1.63691 18.9783 1.63757C18.9786 1.63964 18.9789 1.64175 18.9791 1.64392C18.9982 1.7997 19 2.02202 19 2.43961V10C19 10.4997 18.9979 10.7738 18.9723 10.964C18.972 10.9665 18.9716 10.9689 18.9713 10.9713C18.9689 10.9716 18.9665 10.972 18.964 10.9723C18.7738 10.9979 18.4997 11 18 11H14C13.5003 11 13.2262 10.9979 13.036 10.9723C13.0335 10.972 13.0311 10.9716 13.0287 10.9713C13.0284 10.9689 13.028 10.9665 13.0277 10.964C13.0021 10.7738 13 10.4997 13 10V2.43961Z" stroke="#321313" stroke-width="2"/>
<rect x="14" y="10" width="4" height="4" rx="0.4" fill="#321313"/>
<rect x="14" y="6" width="4" height="6" fill="#321313"/>
<path d="M19.2346 20.6659L19.6173 19.7421L19.2346 20.6659C19.4687 20.7629 19.6944 20.7934 19.8848 20.8063C20.0589 20.8182 20.2635 20.8182 20.4735 20.8182L20.5 20.8182C20.7467 20.8182 20.8816 20.8187 20.9791 20.8254C20.9836 20.8257 20.9879 20.826 20.9919 20.8263C20.9922 20.8303 20.9925 20.8346 20.9928 20.8391C20.9995 20.9366 21 21.0715 21 21.3182V28C21 28.4997 20.9979 28.7738 20.9723 28.964C20.972 28.9665 20.9716 28.9689 20.9713 28.9713C20.9689 28.9716 20.9665 28.972 20.964 28.9723C20.7738 28.9979 20.4997 29 20 29H12C11.5003 29 11.2262 28.9979 11.036 28.9723C11.0335 28.972 11.0311 28.9716 11.0287 28.9713C11.0284 28.9689 11.028 28.9665 11.0277 28.964C11.0021 28.7738 11 28.4997 11 28V21.3182C11 21.0715 11.0005 20.9366 11.0072 20.8391C11.0075 20.8346 11.0078 20.8303 11.0081 20.8263C11.0121 20.826 11.0164 20.8257 11.0209 20.8254C11.1184 20.8187 11.2533 20.8182 11.5 20.8182C11.5088 20.8182 11.5176 20.8182 11.5265 20.8182C11.7365 20.8182 11.9411 20.8182 12.1152 20.8063C12.3056 20.7934 12.5313 20.7629 12.7654 20.6659L12.3827 19.7421L12.7654 20.6659C13.2554 20.463 13.6448 20.0736 13.8478 19.5835L12.9239 19.2009L13.8478 19.5835C13.9447 19.3495 13.9752 19.1238 13.9882 18.9334C14 18.7593 14 18.5547 14 18.3447C14 18.3358 14 18.327 14 18.3182V17.9091C14 17.4562 14.0018 17.2079 14.0231 17.034C14.0235 17.0307 14.0239 17.0275 14.0243 17.0243C14.0275 17.0239 14.0307 17.0235 14.034 17.0231C14.2079 17.0018 14.4562 17 14.9091 17H17.0909C17.5438 17 17.7921 17.0018 17.966 17.0231C17.9693 17.0235 17.9725 17.0239 17.9757 17.0243C17.9761 17.0275 17.9765 17.0307 17.9769 17.034C17.9982 17.2079 18 17.4562 18 17.9091V18.3182L18 18.3447C18 18.5547 18 18.7593 18.0118 18.9334C18.0248 19.1238 18.0553 19.3495 18.1522 19.5835C18.3552 20.0736 18.7446 20.463 19.2346 20.6659Z" stroke="#FF9E2B" stroke-width="2"/>
<rect x="12" y="23.6367" width="8" height="5.09091" fill="#321313"/>
<path d="M12 17H20" stroke="#FF9E2B" stroke-width="2" stroke-linecap="round"/>
</svg>
