<svg width="33" height="33" viewBox="0 0 33 33" fill="none" xmlns="http://www.w3.org/2000/svg">
<path d="M3 21.2567V12C3 11.0572 3 10.5858 3.29289 10.2929C3.58579 10 4.05719 10 5 10H29C29.9428 10 30.4142 10 30.7071 10.2929C31 10.5858 31 11.0572 31 12V21.2222C31 21.7745 30.5523 22.2222 30 22.2222C29.4477 22.2222 29 22.6699 29 23.2222V30C29 30.9428 29 31.4142 28.7071 31.7071C28.4142 32 27.9428 32 27 32H6.93103C5.98823 32 5.51682 32 5.22393 31.7071C4.93103 31.4142 4.93103 30.9428 4.93103 30V23.1877C4.93103 22.6545 4.49876 22.2222 3.96552 22.2222C3.43228 22.2222 3 21.7899 3 21.2567Z" fill="#FF9E2B"/>
<rect x="1" width="32" height="12" rx="1" fill="#321313"/>
<circle cx="7" cy="6" r="2" fill="#FF9E2B"/>
<circle cx="17" cy="6" r="2" fill="#FF9E2B"/>
<circle cx="27" cy="6" r="2" fill="#FF9E2B"/>
<path d="M11 12H23V16C23 16.9428 23 17.4142 22.7071 17.7071C22.4142 18 21.9428 18 21 18H13C12.0572 18 11.5858 18 11.2929 17.7071C11 17.4142 11 16.9428 11 16V12Z" fill="#321313"/>
<path d="M13 18H15V19.6C15 19.8209 14.8209 20 14.6 20H13.4C13.1791 20 13 19.8209 13 19.6V18Z" fill="#321313"/>
<path d="M19 18H21V19.6C21 19.8209 20.8209 20 20.6 20H19.4C19.1791 20 19 19.8209 19 19.6V18Z" fill="#321313"/>
<path d="M23 14H32.2C32.5771 14 32.7657 14 32.8828 14.1172C33 14.2343 33 14.4229 33 14.8V15.2C33 15.5771 33 15.7657 32.8828 15.8828C32.7657 16 32.5771 16 32.2 16H23V14Z" fill="#321313"/>
<path d="M9.83331 26.3333C9.83331 25.2334 9.83331 24.6834 10.175 24.3417C10.5167 24 11.0667 24 12.1666 24H21.5C22.5999 24 23.1499 24 23.4916 24.3417C23.8333 24.6834 23.8333 25.2334 23.8333 26.3333V26.7935C23.8333 27.1442 23.8333 27.3195 23.7833 27.4848C23.7332 27.6502 23.6359 27.7961 23.4414 28.0878L22.1927 29.961C21.8536 30.4696 21.684 30.7239 21.4261 30.862C21.1682 31 20.8625 31 20.2512 31H13.4154C12.8041 31 12.4985 31 12.2405 30.862C11.9826 30.7239 11.813 30.4696 11.474 29.961L10.2252 28.0878C10.0307 27.7961 9.93343 27.6502 9.88337 27.4848C9.83331 27.3195 9.83331 27.1442 9.83331 26.7935V26.3333Z" fill="#321313"/>
<path d="M22.4332 26.3335H24.9998C25.6441 26.3335 26.1665 26.8558 26.1665 27.5002V27.5002C26.1665 28.1445 25.6441 28.6668 24.9998 28.6668H21.4998" stroke="#321313" stroke-width="1.16667"/>
<path d="M1 32H32" stroke="#321313" stroke-width="2" stroke-linecap="round"/>
</svg>
