<svg width="32" height="32" viewBox="0 0 32 32" fill="none" xmlns="http://www.w3.org/2000/svg">
<g clip-path="url(#clip0_1153_3599)">
<path fill-rule="evenodd" clip-rule="evenodd" d="M7.125 15.9412V6.80577C7.125 6.61638 7.07122 6.43089 6.96992 6.27087L3.9717 1.5349C3.55018 0.86907 4.02858 0 4.81662 0H23.3418C24.0947 0 24.5776 0.800661 24.2263 1.46661L22.5484 4.64697H24L24.0544 4.64697C24.4785 4.64688 24.8906 4.6468 25.2305 4.6925C25.6137 4.74402 26.051 4.86954 26.4142 5.23276C26.7774 5.59597 26.9029 6.03325 26.9545 6.41645C27.0002 6.75637 27.0001 7.16849 27 7.59256L27 7.64697V10.2352L27 10.2896C27.0001 10.7137 27.0002 11.1258 26.9545 11.4657C26.9029 11.8489 26.7774 12.2862 26.4142 12.6494C26.051 13.0126 25.6137 13.1382 25.2305 13.1897C24.8906 13.2354 24.4785 13.2353 24.0544 13.2352L24 13.2352H22.25V15.9412C22.25 16.4935 21.8023 16.9412 21.25 16.9412H8.125C7.57271 16.9412 7.125 16.4935 7.125 15.9412ZM22.25 11.2352H24C24.4997 11.2352 24.7738 11.2331 24.964 11.2075L24.9713 11.2065L24.9723 11.1992C24.9979 11.009 25 10.7349 25 10.2352V7.64697C25 7.1473 24.9979 6.87314 24.9723 6.68295L24.9713 6.67567L24.964 6.67467C24.7738 6.6491 24.4997 6.64697 24 6.64697H22.25V11.2352Z" fill="#FF9E2B"/>
<path fill-rule="evenodd" clip-rule="evenodd" d="M4 14.0005C2.89543 14.0005 2 14.8959 2 16.0005C2 17.1051 2.89543 18.0005 4 18.0005H7.02013C7 18.2486 7 18.5557 7 18.9419V30.0007C7 30.9435 7 31.4149 7.29289 31.7078C7.58579 32.0007 8.05719 32.0007 9 32.0007H21C21.9428 32.0007 22.4142 32.0007 22.7071 31.7078C23 31.4149 23 30.9435 23 30.0007V27.3534H25L25.0544 27.3534C25.4785 27.3535 25.8906 27.3535 26.2305 27.3078C26.6137 27.2563 27.051 27.1308 27.4142 26.7676C27.7774 26.4044 27.903 25.9671 27.9545 25.5839C28.0002 25.244 28.0001 24.8319 28 24.4078V24.4078L28 24.3534V21.7651L28 21.7107V21.7107C28.0001 21.2866 28.0002 20.8745 27.9545 20.5346C27.903 20.1514 27.7774 19.7141 27.4142 19.3509C27.051 18.9877 26.6137 18.8622 26.2305 18.8107C25.8906 18.765 25.4785 18.765 25.0544 18.7651L25 18.7651H22.9999C22.9995 18.4604 22.9968 18.2095 22.9799 18.0005H25C26.1046 18.0005 27 17.1051 27 16.0005C27 14.8959 26.1046 14.0005 25 14.0005H4ZM23 25.3534V20.7651H25C25.4997 20.7651 25.7738 20.7673 25.964 20.7928L25.9713 20.7938L25.9723 20.8011C25.9979 20.9913 26 21.2655 26 21.7651V24.3534C26 24.853 25.9979 25.1272 25.9723 25.3174L25.9713 25.3247L25.964 25.3257C25.7738 25.3512 25.4997 25.3534 25 25.3534H23Z" fill="#321313"/>
</g>
<defs>
<clipPath id="clip0_1153_3599">
<rect width="32" height="32" fill="white"/>
</clipPath>
</defs>
</svg>
