<svg width="32" height="32" viewBox="0 0 32 32" fill="none" xmlns="http://www.w3.org/2000/svg">
<g clip-path="url(#clip0_1153_3660)">
<path d="M8.72361 1.44722L12.7236 9.44721C12.893 9.786 13.2393 10 13.618 10H16.382C16.7607 10 17.107 9.786 17.2764 9.44721L21.2764 1.44721C21.6088 0.782313 21.1253 0 20.382 0H9.61803C8.87465 0 8.39116 0.782315 8.72361 1.44722Z" fill="#FF9E2B"/>
<path d="M5.57921 23.0443L8.16518 18.7775C8.4577 18.2948 8.98108 18 9.54545 18H21.3636L24.4208 23.0443C24.7086 23.5192 24.8525 23.7566 24.9262 24.0206C25 24.2846 25 24.5623 25 25.1175V26.8825C25 27.4377 25 27.7154 24.9262 27.9794C24.8525 28.2434 24.7086 28.4808 24.4208 28.9557L24.4208 28.9557L24.3496 29.0732C23.7791 30.0145 23.4938 30.4852 23.0368 30.7426C22.5798 31 22.0295 31 20.9288 31H8.5219C7.43888 31 6.89736 31 6.45918 30.7687C6.27892 30.6735 6.11427 30.5514 5.97092 30.4065C5.62249 30.0542 5.46544 29.536 5.15136 28.4995C5.08609 28.2841 5.05345 28.1764 5.03314 28.0662C5.02463 28.0201 5.01776 27.9737 5.01252 27.9271C5 27.8157 5 27.7032 5 27.4781V25.1175C5 24.5623 5 24.2846 5.07376 24.0206C5.14752 23.7566 5.29142 23.5192 5.57921 23.0443Z" fill="#321313" stroke="#321313" stroke-width="2" stroke-linecap="round"/>
<path d="M4 10H9.57143M26.2857 10H20.7143M20.7143 10L21.1463 15.7391M20.7143 10H9.57143M21.1463 15.7391L21.7879 15.6197C23.9513 15.2171 25.033 15.0158 25.9376 15.4724C26.8421 15.9289 27.3226 16.9188 28.2835 18.8984L30 22.4348M21.1463 15.7391L25.2934 22.6856C25.9428 23.7734 26.2857 25.0168 26.2857 26.2837V26.2837C26.2857 28.1093 25.5745 29.8631 24.3029 31.173L23.5222 31.9771C23.508 31.9917 23.4885 32 23.4681 32H5.90501C5.87516 32 5.84735 31.9849 5.83113 31.9598L5.29926 31.138C4.4512 29.8276 4 28.3 4 26.7391V26.7391C4 25.1783 4.4512 23.6507 5.29926 22.3403L9.52879 15.805C9.55662 15.762 9.57143 15.7119 9.57143 15.6607V10" stroke="#321313" stroke-width="2" stroke-linecap="round"/>
<path d="M20.6667 2H22C22.9428 2 23.4142 2 23.7071 2.29289C24 2.58579 24 3.05719 24 4V4C24 4.94281 24 5.41421 23.7071 5.70711C23.4142 6 22.9428 6 22 6H18" stroke="#FF9E2B" stroke-linecap="round"/>
</g>
<defs>
<clipPath id="clip0_1153_3660">
<rect width="32" height="32" fill="white"/>
</clipPath>
</defs>
</svg>
