<svg width="38" height="24" viewBox="0 0 38 24" fill="none" xmlns="http://www.w3.org/2000/svg">
<path d="M4.51177 9.0542L6.1413 10.7619L5.95807 10.9539C5.95807 10.9539 4.32902 9.23612 4.271 9.18566L4.51177 9.0542Z" fill="#9F9F9F"/>
<path d="M12.3514 5.66894C12.525 5.70931 12.7366 5.74968 12.9492 5.7903H12.9589C13.4885 5.88114 14.058 5.95179 14.2992 5.98232C14.3825 5.99073 14.4662 5.9941 14.5498 5.99241H17.6834C17.9526 5.99336 18.2198 6.04111 18.4741 6.13371C18.5336 6.15278 18.5916 6.17648 18.6477 6.20462C18.7212 6.2355 18.7921 6.27263 18.8598 6.31564L18.9949 6.39663C19.0915 6.4574 19.1715 6.54325 19.2272 6.64588C19.2829 6.7485 19.3125 6.86445 19.3129 6.98252V7.73041C19.3133 7.77562 19.3051 7.82045 19.2888 7.8623C19.2725 7.90415 19.2483 7.94217 19.2178 7.97414C19.1873 8.0061 19.151 8.03138 19.1111 8.0485C19.0712 8.06561 19.0284 8.07422 18.9853 8.07382H12.8334C12.7151 8.07384 12.6002 8.03192 12.5074 7.95488C12.4147 7.87783 12.3495 7.77018 12.3225 7.64941L12.2356 7.26487L11.9657 6.05373C11.9547 5.99901 11.9573 5.94225 11.9731 5.88886C11.9889 5.83546 12.0175 5.78719 12.0562 5.74864C12.0948 5.71008 12.1422 5.68252 12.1939 5.66857C12.2456 5.65462 12.2998 5.65475 12.3514 5.66894Z" fill="#FF9E2B"/>
<path d="M12.3713 8.28616V8.22561C12.3723 8.18578 12.3878 8.14786 12.4147 8.11969C12.4416 8.09152 12.4778 8.07524 12.5158 8.07422H19.1593C19.1973 8.07524 19.2335 8.09152 19.2604 8.11969C19.2873 8.14786 19.3028 8.18578 19.3038 8.22561V8.28616C19.3029 8.32601 19.2873 8.36396 19.2604 8.39214C19.2336 8.42033 19.1973 8.43658 19.1593 8.43755H12.516C12.4967 8.4388 12.4774 8.43574 12.4593 8.42858C12.4413 8.42142 12.4248 8.41031 12.4112 8.396C12.3975 8.38169 12.3869 8.3645 12.38 8.34556C12.3731 8.32663 12.3702 8.30638 12.3713 8.28616Z" fill="#9F9F9F"/>
<path d="M14.9359 8.4375L14.8394 9.02366L17.4139 8.84173V8.4375H14.9359Z" fill="#9F9F9F"/>
<path d="M13.0351 18.5127C13.0737 18.6445 13.1517 18.7597 13.2576 18.8415C13.3635 18.9233 13.4917 18.9672 13.6233 18.9669H18.9072C18.9072 18.9669 18.3481 20.1187 15.9664 20.1187C15.9664 20.1187 15.6481 21.0183 14.4236 21.0183H11.4838L11.3198 20.1187C12.0041 19.7322 12.5918 19.1819 13.0351 18.5127Z" fill="#321313"/>
<path d="M13.0351 18.5127C13.0737 18.6445 13.1517 18.7597 13.2576 18.8415C13.3635 18.9233 13.4917 18.9672 13.6233 18.9669H16.2854C16.1891 19.664 15.9674 20.1187 15.9674 20.1187C15.9674 20.1187 15.6491 21.0183 14.4245 21.0183H11.4838L11.3198 20.1187C12.0041 19.7322 12.5918 19.1819 13.0351 18.5127Z" fill="#321313"/>
<path d="M7.5115 23.9995C10.0037 23.9995 12.024 21.8823 12.024 19.2705C12.024 16.6588 10.0037 14.5415 7.5115 14.5415C5.01933 14.5415 2.99902 16.6588 2.99902 19.2705C2.99902 21.8823 5.01933 23.9995 7.5115 23.9995Z" fill="#321313"/>
<path d="M0.779433 17.7848C1.0202 17.0473 1.50174 15.7337 2.30277 14.3896C2.33167 14.329 2.37019 14.2786 2.39908 14.2278C2.45687 14.1269 2.51465 14.0361 2.57268 13.945C2.61115 13.8787 2.65294 13.8146 2.69787 13.753C2.72762 13.6952 2.76322 13.641 2.80405 13.5912C2.80533 13.5913 2.80659 13.591 2.80778 13.5905C2.80896 13.59 2.81004 13.5893 2.81094 13.5884C2.81184 13.5874 2.81255 13.5863 2.81302 13.585C2.81349 13.5838 2.81372 13.5825 2.81368 13.5811C2.85221 13.5307 2.8811 13.4802 2.91962 13.4297C2.95815 13.3793 2.98728 13.3387 3.0258 13.2882C3.06432 13.2276 3.11248 13.1668 3.151 13.1164C3.22829 13.0154 3.31496 12.9042 3.40188 12.8032C3.4404 12.7528 3.47893 12.7121 3.51745 12.6617C3.55597 12.6213 3.59474 12.5708 3.63326 12.5302L3.64289 12.5201L3.77772 12.3788L3.91279 12.2373C3.96094 12.1969 3.99971 12.1464 4.04786 12.1058H4.05749C4.10794 12.0649 4.15617 12.0211 4.20195 11.9746C4.56072 11.6379 4.94849 11.3368 5.36029 11.0751C5.37955 11.0546 5.40844 11.0446 5.42795 11.0246L5.44721 11.0145C5.81661 10.7523 6.08087 10.3566 6.1895 9.90305L6.25715 9.64038L7.72271 9.53945L10.5864 9.33759L12.7367 9.1862L18.4834 8.77189L18.5606 8.96391C18.5902 9.03049 18.6066 9.10269 18.6088 9.17611C18.6174 9.29936 18.5953 9.42286 18.5447 9.53446C18.494 9.64607 18.4166 9.74196 18.3199 9.81272C17.5578 10.3577 16.0923 11.6302 15.8222 13.3286C15.7994 13.5062 15.7865 13.6851 15.7836 13.8642C15.7836 15.9358 17.5771 16.4611 18.3001 16.5926C18.4529 16.6211 18.6079 16.6346 18.7631 16.633H23.4581C24.2392 16.633 24.9718 16.2797 25.4445 15.6628C25.5356 15.5463 25.6162 15.4212 25.6852 15.2891C25.6865 15.2891 25.6878 15.2888 25.689 15.2883C25.6901 15.2878 25.6912 15.287 25.6921 15.2861C25.693 15.2851 25.6937 15.284 25.6942 15.2827C25.6947 15.2814 25.6949 15.2801 25.6948 15.2788C25.7141 15.2485 25.7237 15.2182 25.743 15.1879C25.7623 15.1576 25.7719 15.1173 25.7912 15.0769C25.9741 14.6422 26.2058 14.0172 26.4275 13.3488C26.9384 11.8431 27.4303 10.1758 27.4303 10.1758L25.503 5.5997C25.4476 5.46007 25.4458 5.30347 25.4979 5.16248C25.55 5.02149 25.6519 4.90697 25.7825 4.84273C25.9019 4.79269 26.0078 4.71293 26.0912 4.61035C26.1437 4.54523 26.1891 4.47403 26.2262 4.39814C26.2464 4.35961 26.2625 4.31892 26.2744 4.27678C26.3225 4.13548 26.3902 3.99392 26.4961 3.89299C26.7564 3.64067 26.8529 4.21622 26.8814 4.49857C26.8814 4.49857 29.0798 9.65224 29.4174 9.75317C29.4655 9.76326 29.5426 9.78345 29.6199 9.80363C30.1115 9.93484 31.0758 10.2684 30.8444 11.7437C30.8715 11.7814 30.8851 11.8278 30.8829 11.8749C30.8829 11.9268 30.8683 11.9776 30.8408 12.0208C30.8134 12.064 30.7743 12.0977 30.7286 12.1177L28.482 13.1774C28.482 13.1774 28.4531 13.238 28.4146 13.3389C28.1155 14.107 26.7367 17.3508 24.9047 18.562C24.6157 18.754 24.3268 18.8955 24.0177 18.9657H13.6141C13.4825 18.966 13.3544 18.9221 13.2485 18.8403C13.1426 18.7585 13.0645 18.6433 13.0259 18.5115C13.0149 18.479 13.0084 18.445 13.0066 18.4106V17.966H4.73357C4.47452 17.9628 4.22364 18.0609 4.0298 18.241C3.88168 18.372 3.69394 18.4436 3.50011 18.4429H1.21426C0.915226 18.4429 0.693479 18.1285 0.779433 17.7848Z" fill="#CF7D36"/>
<path opacity="0.32" d="M1.70666 16.9056C1.92151 16.0823 2.22862 15.2886 2.62158 14.5411C5.71785 8.73086 13.1039 8.5994 14.608 11.4489C15.6011 13.3284 15.4372 15.097 15.1095 16.2589C14.9975 16.6612 14.764 17.0145 14.4441 17.266C14.1242 17.5174 13.7351 17.6534 13.3353 17.6535H1.52344C1.58122 17.4009 1.63925 17.1481 1.70666 16.9056Z" fill="#CF7D36"/>
<path d="M1.15689 13.3388C1.18602 13.2883 1.20504 13.248 1.23418 13.1975L1.49445 12.763C1.57423 12.6322 1.68011 12.5211 1.80481 12.4374C1.92951 12.3536 2.07005 12.2992 2.21675 12.2778L3.81738 12.0656L4.21272 12.0151C4.16457 12.0555 4.11641 12.1062 4.06826 12.1466H4.05863C4.01047 12.187 3.97171 12.2374 3.92356 12.2778L3.78849 12.4194C3.74111 12.4639 3.6961 12.5112 3.65366 12.5609L3.64403 12.571C3.6055 12.6114 3.56674 12.6618 3.52822 12.7022C3.48969 12.7527 3.45117 12.7933 3.41265 12.8438C3.32573 12.9447 3.23905 13.056 3.16177 13.1569C3.12324 13.2177 3.07509 13.2682 3.03657 13.3287C2.9978 13.3792 2.96891 13.4198 2.93039 13.4703C2.89187 13.5207 2.86297 13.5712 2.82445 13.6217C2.82318 13.6216 2.82191 13.6219 2.82073 13.6224C2.81954 13.6229 2.81847 13.6236 2.81757 13.6245C2.81667 13.6255 2.81596 13.6266 2.81549 13.6279C2.81501 13.6291 2.81479 13.6304 2.81482 13.6318C2.77606 13.6923 2.74716 13.7428 2.70864 13.7935C2.67012 13.8541 2.62196 13.9247 2.5832 13.9853C2.52542 14.0763 2.46763 14.1773 2.40985 14.2684C2.38071 14.3289 2.34219 14.3794 2.31354 14.4301H1.59124C1.52401 14.4305 1.45739 14.4169 1.39521 14.3901C1.33304 14.3633 1.27655 14.3238 1.22902 14.274C1.18148 14.2242 1.14384 14.165 1.11828 14.0999C1.09272 14.0347 1.07973 13.9649 1.08009 13.8944V13.7935C1.0822 13.6386 1.10814 13.4851 1.15689 13.3388Z" fill="#A4101B"/>
<path d="M24.9351 17.8151C25.7258 16.855 26.8636 13.7023 27.4422 12.0147C28.0208 10.3272 26.6718 7.48783 26.2851 6.27518C25.9863 5.34563 26.15 4.66839 26.2369 4.40573C26.246 4.36259 26.2623 4.3215 26.2851 4.28436C26.3332 4.14306 26.4009 4.00151 26.5068 3.90058C26.6419 3.75903 26.7382 3.85996 26.7957 4.03179C26.8488 4.18468 26.8812 4.34461 26.8921 4.50691C26.8921 4.50691 27.0753 4.94141 27.3452 5.55783C28.0008 7.07352 29.1772 9.6906 29.4184 9.76125C29.4666 9.77134 29.534 9.79178 29.6209 9.81171C29.7395 9.83758 29.8557 9.87474 29.9679 9.92274C30.4494 10.1246 31.0272 10.5788 30.8455 11.7518C30.8712 11.7902 30.8847 11.8361 30.884 11.883C30.884 11.9349 30.8693 11.9857 30.8418 12.0288C30.8144 12.072 30.7754 12.1058 30.7297 12.1258L28.483 13.1855C28.483 13.1855 26.5545 18.3581 24.0187 18.9654H17.2695C23.6624 18.9669 24.1444 18.7749 24.9351 17.8151Z" fill="#CF7D36"/>
<path d="M24.9351 17.8051C25.7258 16.8463 26.8636 13.6922 27.4422 12.005C28.0208 10.3177 26.6717 7.47807 26.2851 6.26541C25.9863 5.33561 26.15 4.65863 26.2369 4.39596C26.2459 4.35283 26.2623 4.31173 26.2851 4.2746C26.3332 4.1333 26.4009 3.99174 26.5068 3.89082C26.6419 3.74926 26.7382 3.85019 26.7957 4.02202C26.7957 4.02202 26.005 4.36568 26.6031 6.38653C27.2012 8.40737 28.2712 10.075 27.7106 11.9949C27.1501 13.9148 25.8979 16.7133 25.8979 16.7133C25.8979 16.7133 25.1072 18.7344 23.3426 18.9668H17.2681C23.6624 18.9673 24.1444 18.7652 24.9351 17.8051Z" fill="#FAF4F4"/>
<path d="M25.2817 8.30661L25.9276 7.46688L25.9953 7.37579C26.1082 7.22652 26.2694 7.12587 26.4484 7.09294L26.5832 7.07275C27.0848 8.41662 27.8754 10.4791 27.4981 11.8623C27.4789 11.9128 27.4693 11.9633 27.45 12.0137C27.2574 12.5595 27.0166 13.2466 26.746 13.974L26.2544 13.6811C26.0312 13.5512 25.8626 13.3385 25.7817 13.0848C25.6084 12.5088 25.4541 11.5994 25.3484 10.7405V10.7304C25.3387 10.6295 25.3195 10.5384 25.3098 10.4375V10.419C25.3002 10.338 25.2906 10.2573 25.2809 10.1864C25.2793 10.1221 25.2729 10.0579 25.2617 9.99464C25.252 9.88337 25.2424 9.78244 25.2328 9.68126C25.2232 9.61061 25.2232 9.5397 25.2135 9.4794C25.2135 9.45921 25.2039 9.42893 25.2039 9.39866C25.1943 9.30757 25.1943 9.22682 25.1846 9.15617C25.1846 9.11555 25.1748 9.06509 25.1748 9.02471C25.1555 8.92379 25.1555 8.8327 25.1459 8.76205C25.1361 8.68037 25.1432 8.59745 25.1666 8.51888C25.19 8.44031 25.2293 8.36792 25.2817 8.30661Z" fill="#CF7D36"/>
<path d="M24.3857 18.8559C26.3333 18.4522 28.1075 14.5311 28.6668 13.6924C29.0814 13.0558 30.0746 12.591 30.547 12.399C30.7013 12.3385 30.8169 12.1868 30.8556 12.015L30.8652 11.9746C30.8537 12.0081 30.8358 12.0388 30.8125 12.0648C30.7893 12.0909 30.7613 12.1117 30.7302 12.126L28.4836 13.1857C28.4836 13.1857 26.7286 17.886 24.3857 18.8559Z" fill="#321313"/>
<path d="M29.6209 9.802C29.534 9.78182 29.4665 9.76138 29.4184 9.75154C29.1868 9.68089 28.0107 7.0638 27.3452 5.54785C27.3837 5.64878 28.5697 8.89264 28.724 9.80226C28.7915 9.68064 29.6209 9.802 29.6209 9.802Z" fill="#FF9E2B"/>
<path d="M29.968 9.91427C29.8428 9.86379 29.7174 9.83351 29.6211 9.80322C29.7174 9.83225 29.8428 9.86379 29.968 9.91427Z" fill="#FF9E2B"/>
<path d="M35.9941 12.6008C35.9762 12.4979 35.9504 12.3966 35.917 12.298C35.8108 11.9647 35.512 11.7525 35.1745 11.7525H32.4459C32.3834 11.7512 32.3216 11.7662 32.266 11.7962C32.2104 11.8262 32.1628 11.8702 32.1276 11.9244L32.0698 12.0152C33.7764 11.6508 35.0686 12.0248 35.9941 12.6008Z" fill="#CF7D36"/>
<path d="M25.0792 8.27562L25.5227 7.61958C25.5622 7.56772 25.6119 7.52549 25.6686 7.49582C25.7252 7.46614 25.7873 7.44974 25.8506 7.44775H25.9276L25.2817 8.28647C25.2298 8.35191 25.191 8.42764 25.1676 8.50914C25.1442 8.59064 25.1367 8.67624 25.1456 8.76083C25.1553 8.83148 25.1649 8.92232 25.1745 9.0235C25.1733 9.06757 25.1766 9.11164 25.1844 9.15496C25.186 9.23612 25.1925 9.31711 25.2037 9.39744C25.2037 9.41763 25.2133 9.4479 25.2133 9.47818C25.2229 9.54883 25.2229 9.60964 25.2325 9.68004C25.2422 9.78097 25.2518 9.8819 25.2614 9.99342C25.2631 10.0578 25.2695 10.1219 25.2807 10.1852C25.2903 10.2662 25.3 10.3366 25.3096 10.4178V10.438C25.3192 10.5288 25.3385 10.63 25.3481 10.731V10.7411C25.2556 10.6871 25.1772 10.6099 25.12 10.5165C25.0629 10.4231 25.0286 10.3163 25.0204 10.2056L24.9915 9.78122L24.9239 8.85142C24.9123 8.64663 24.967 8.44375 25.0792 8.27562Z" fill="#FAF4F4"/>
<path d="M25.5998 7.54875V7.51747H25.5902C25.5255 7.49894 25.4569 7.50267 25.3944 7.52811C25.3318 7.55355 25.2788 7.59935 25.243 7.65877L25.0309 7.99234C24.9916 8.05405 24.9653 8.12378 24.9536 8.19694C24.942 8.27009 24.9452 8.34501 24.9632 8.41674L24.9729 8.44702L25.002 8.43693C25.0239 8.38448 25.0497 8.33386 25.079 8.28554L25.5225 7.6295C25.5432 7.59771 25.5694 7.57031 25.5998 7.54875Z" fill="#CF7D36"/>
<path d="M17.6068 10.1858C18.2431 9.60995 18.5421 9.54914 18.6192 9.18555C18.6279 9.30881 18.6058 9.43232 18.5551 9.54393C18.5045 9.65555 18.427 9.75143 18.3303 9.82216C17.5008 10.4277 15.7943 11.9139 15.7943 13.8742C15.7943 15.9458 17.5974 16.4711 18.3204 16.6026C18.4732 16.631 18.6282 16.6445 18.7834 16.6429H23.4783C24.2594 16.6429 24.9923 16.2897 25.4647 15.6728L25.0116 16.3793C24.8839 16.578 24.7116 16.7409 24.5098 16.8536C24.3081 16.9664 24.0831 17.0255 23.8544 17.026H18.3298C18.3298 17.026 15.4854 17.026 15.4854 14.4997C15.4854 11.9735 16.3629 11.3379 17.6068 10.1858Z" fill="#CF7D36"/>
<path d="M3.82795 12.0656L4.22329 12.0151C3.45283 12.7325 2.81552 13.5916 2.314 14.4304H2.15967C2.61303 13.551 3.36495 12.6114 3.82795 12.0656Z" fill="#321313"/>
<path d="M1.41436e-05 18.8466L1.41436e-05 18.8971C-0.000406894 18.9354 0.00857885 18.9731 0.0261071 19.0067C0.0436354 19.0403 0.0691165 19.0686 0.100098 19.0889C0.13108 19.1091 0.166519 19.1207 0.203007 19.1225C0.239495 19.1243 0.275803 19.1161 0.308438 19.099L1.61027 18.4217H1.21493C1.14462 18.4233 1.07497 18.4072 1.01188 18.3746C0.948794 18.342 0.894126 18.294 0.852505 18.2346C0.810884 18.1752 0.783537 18.1061 0.772778 18.0333C0.762019 17.9605 0.768165 17.886 0.790696 17.8162C1.01244 17.1288 1.44631 15.9265 2.1597 14.6836L1.60064 14.916C1.47284 14.9695 1.35757 15.0514 1.26271 15.1559C1.16785 15.2604 1.09562 15.3851 1.05097 15.5215L0.0674289 18.4934C0.0329638 18.6083 0.010363 18.7267 1.41436e-05 18.8466Z" fill="#321313"/>
<path d="M13.75 18.9768H17.2789C21.9072 18.9768 23.4404 18.8658 24.2311 18.4414H15.8615C15.6966 18.4448 15.5335 18.4789 15.38 18.5423C15.042 18.6738 14.3864 18.9264 13.75 18.9768Z" fill="#321313"/>
<path d="M6.21885 9.94298L6.28651 9.68032L10.6158 9.36719H10.5965C7.53032 9.69041 5.69831 10.9031 5.47656 11.0547C5.84318 10.7894 6.10662 10.3948 6.21885 9.94298Z" fill="#FF9E2B"/>
<path d="M22.3311 3.25262C22.3311 2.87868 22.5528 2.8489 22.5528 2.8489C22.5528 2.8489 23.6907 2.47496 24.0571 2.37378C24.1438 2.3536 24.2885 2.27285 24.4525 2.16158C24.9822 1.80833 25.7733 1.11066 26.082 0.645884C26.487 0.0403124 27.2584 0.00927734 27.2584 0.00927734H27.9627C28.0902 0.00941059 28.2145 0.0513826 28.3182 0.129306C28.4218 0.207229 28.4995 0.317193 28.5405 0.443774C28.6178 0.696096 28.685 1.09981 28.685 1.72708C28.685 2.49515 28.5887 2.94983 28.4825 3.2125C28.443 3.31777 28.3739 3.40796 28.2843 3.47106C28.1947 3.53416 28.0889 3.56719 27.981 3.56575H27.3848C27.2874 3.56758 27.1912 3.54326 27.1053 3.4951C26.9317 3.40401 26.7292 3.39417 26.5363 3.44463L26.4593 3.46482C26.1892 3.53547 26.305 3.8486 26.3916 4.03052C26.3454 4.1105 26.3067 4.19501 26.2761 4.28285C26.2642 4.32489 26.248 4.3655 26.2279 4.40396C26.1955 4.48266 26.1497 4.55456 26.0928 4.61616C26.0158 4.71709 25.9096 4.78799 25.7941 4.84855C25.7279 4.87857 25.6681 4.92207 25.6182 4.97652C25.5682 5.03096 25.5291 5.09527 25.5031 5.1657C25.477 5.23613 25.4646 5.31128 25.4665 5.38679C25.4685 5.46229 25.4847 5.53664 25.5143 5.60551L25.5916 5.78744L25.11 4.82862C24.8824 4.37662 24.7416 3.88225 24.6954 3.37348L24.6858 3.23218L22.9696 3.71714H22.9597L22.5745 3.82816C22.2925 3.82942 22.3407 3.25262 22.3311 3.25262Z" fill="#CF7D36"/>
<path d="M22.3505 3.26417C22.3505 2.89023 22.5725 2.86046 22.5725 2.86046C22.5911 2.85176 22.6104 2.845 22.6303 2.84027C22.7073 2.80999 22.8616 2.76937 23.0449 2.70881C23.4017 2.58744 23.874 2.44614 24.0862 2.38558C24.1728 2.36515 24.3175 2.28466 24.4815 2.17338C24.6936 2.03183 24.9057 2.08229 25.1467 2.23394C25.2144 2.27431 25.243 2.34496 25.2625 2.42596C25.33 2.74918 25.1275 3.07266 24.8191 3.1635L23.1508 3.67899L22.9774 3.72945H22.9678L22.6591 3.8102L22.5725 3.83038C22.2927 3.82988 22.3409 3.25307 22.3505 3.26417Z" fill="#321313"/>
<path d="M22.3505 3.26385C22.3505 2.88991 22.5725 2.86014 22.5725 2.86014C22.5911 2.85144 22.6104 2.84468 22.6303 2.83995C22.7073 2.80968 22.8616 2.76905 23.0449 2.7085C23.0641 2.73877 23.4113 3.18336 23.1508 3.67866L22.9774 3.72912H22.9678L22.6591 3.80987L22.5725 3.83005C22.2927 3.82955 22.3409 3.25275 22.3505 3.26385Z" fill="#FAF4F4"/>
<path d="M22.3505 3.253C22.3505 2.87906 22.5725 2.84929 22.5725 2.84929C22.591 2.84059 22.6104 2.83383 22.6302 2.8291C22.6973 2.88902 22.7516 2.96297 22.7897 3.04621C22.8279 3.12944 22.849 3.22012 22.8517 3.31241C22.8544 3.4047 22.8387 3.49657 22.8055 3.58211C22.7724 3.66766 22.7225 3.74498 22.6591 3.80912L22.5725 3.82931C22.2927 3.82982 22.3409 3.253 22.3505 3.253Z" fill="#321313"/>
<path d="M27.6158 1.69031e-05H27.9821C28.1099 -0.00096173 28.2347 0.0405773 28.3385 0.118656C28.4424 0.196735 28.5199 0.307327 28.5599 0.434515C28.6372 0.686837 28.7044 1.09055 28.7044 1.71782C28.7044 2.48589 28.6081 2.94058 28.5019 3.20324C28.4552 3.31244 28.3778 3.40415 28.2802 3.46616C28.1959 3.51992 28.099 3.54789 28.0004 3.54691H27.567C27.5092 3.52672 27.3452 3.3347 27.3452 1.89975C27.3457 0.131476 27.6158 1.69031e-05 27.6158 1.69031e-05Z" fill="#FAF4F4"/>
<path d="M28.3389 0.111328C28.4472 0.190157 28.5284 0.303517 28.5703 0.434552C28.6476 0.686873 28.7147 1.09059 28.7147 1.71786C28.7147 2.48592 28.6184 2.94061 28.5123 3.20328C28.4655 3.31248 28.3882 3.40418 28.2905 3.46619C28.2231 3.32464 28.1362 2.93052 28.1362 1.89978C28.1365 0.758028 28.2523 0.293252 28.3389 0.111328Z" fill="#FF9E2B"/>
<path d="M7.51059 22.241C9.07622 22.241 10.3454 20.9109 10.3454 19.2702C10.3454 17.6294 9.07622 16.2993 7.51059 16.2993C5.94497 16.2993 4.67578 17.6294 4.67578 19.2702C4.67578 20.9109 5.94497 22.241 7.51059 22.241Z" fill="white"/>
<path d="M7.51125 21.9177C8.90654 21.9177 10.0376 20.7324 10.0376 19.2701C10.0376 17.8079 8.90654 16.6226 7.51125 16.6226C6.11597 16.6226 4.98486 17.8079 4.98486 19.2701C4.98486 20.7324 6.11597 21.9177 7.51125 21.9177Z" fill="#9F9F9F"/>
<path d="M7.51132 21.3825C8.6243 21.3825 9.52655 20.437 9.52655 19.2706C9.52655 18.1042 8.6243 17.1587 7.51132 17.1587C6.39834 17.1587 5.49609 18.1042 5.49609 19.2706C5.49609 20.437 6.39834 21.3825 7.51132 21.3825Z" fill="#9F9F9F"/>
<path d="M7.51166 21.0281C8.43821 21.0281 9.18933 20.2409 9.18933 19.2699C9.18933 18.2989 8.43821 17.5117 7.51166 17.5117C6.5851 17.5117 5.83398 18.2989 5.83398 19.2699C5.83398 20.2409 6.5851 21.0281 7.51166 21.0281Z" fill="white"/>
<path d="M28.6762 18.3414C28.8225 17.5773 29.1462 16.8628 29.6187 16.261C30.0912 15.6592 30.6979 15.1886 31.3851 14.8909C32.0724 14.5933 32.819 14.4776 33.5591 14.5542C34.2991 14.6308 35.0097 14.8973 35.6281 15.3302C36.2691 15.7793 36.7896 16.3929 37.1402 17.1126C37.4907 17.8323 37.6595 18.6341 37.6306 19.4416C37.6016 20.249 37.3758 21.0353 36.9747 21.7253C36.5736 22.4154 36.0105 22.9864 35.3392 23.3838C35.2082 23.4625 35.073 23.5334 34.9342 23.596C34.3608 23.8639 33.7397 24.0015 33.1118 23.9997C30.6242 23.9997 28.5991 21.8877 28.5991 19.2704C28.6005 18.9591 28.6262 18.6483 28.6762 18.3414Z" fill="#321313"/>
<path d="M33.1208 22.524C34.8355 22.524 36.2255 21.0673 36.2255 19.2703C36.2255 17.4733 34.8355 16.0166 33.1208 16.0166C31.4061 16.0166 30.0161 17.4733 30.0161 19.2703C30.0161 21.0673 31.4061 22.524 33.1208 22.524Z" fill="white"/>
<path d="M33.1209 22.241C34.6865 22.241 35.9557 20.9109 35.9557 19.2701C35.9557 17.6294 34.6865 16.2993 33.1209 16.2993C31.5553 16.2993 30.2861 17.6294 30.2861 19.2701C30.2861 20.9109 31.5553 22.241 33.1209 22.241Z" fill="#9F9F9F"/>
<path d="M33.1206 21.9178C34.5159 21.9178 35.6469 20.7324 35.6469 19.2702C35.6469 17.8079 34.5159 16.6226 33.1206 16.6226C31.7253 16.6226 30.5942 17.8079 30.5942 19.2702C30.5942 20.7324 31.7253 21.9178 33.1206 21.9178Z" fill="white"/>
<path d="M33.1207 21.382C34.2337 21.382 35.1359 20.4365 35.1359 19.2701C35.1359 18.1037 34.2337 17.1582 33.1207 17.1582C32.0077 17.1582 31.1055 18.1037 31.1055 19.2701C31.1055 20.4365 32.0077 21.382 33.1207 21.382Z" fill="#9F9F9F"/>
<path d="M33.1215 21.028C34.0481 21.028 34.7992 20.2409 34.7992 19.2699C34.7992 18.2989 34.0481 17.5117 33.1215 17.5117C32.195 17.5117 31.4438 18.2989 31.4438 19.2699C31.4438 20.2409 32.195 21.028 33.1215 21.028Z" fill="#9F9F9F"/>
<path d="M33.1211 19.907C33.4566 19.907 33.7285 19.622 33.7285 19.2704C33.7285 18.9188 33.4566 18.6338 33.1211 18.6338C32.7856 18.6338 32.5137 18.9188 32.5137 19.2704C32.5137 19.622 32.7856 19.907 33.1211 19.907Z" fill="white"/>
<path d="M14.2515 18.957H18.0409C18.0409 19.0775 17.9953 19.193 17.914 19.2782C17.8327 19.3634 17.7225 19.4112 17.6075 19.4112H14.2515V18.957Z" fill="#FF9E2B"/>
<path d="M12.583 19.1793C12.5832 19.0748 12.6228 18.9746 12.6933 18.9007C12.7638 18.8269 12.8594 18.7853 12.9591 18.7852H14.0486C14.1022 18.7855 14.1535 18.808 14.1914 18.8477C14.2293 18.8874 14.2508 18.9412 14.2511 18.9974V19.3612C14.2508 19.4174 14.2293 19.4712 14.1914 19.5109C14.1535 19.5506 14.1022 19.5731 14.0486 19.5734H12.9591C12.9095 19.5742 12.8603 19.5645 12.8143 19.545C12.7684 19.5255 12.7266 19.4965 12.6915 19.4597C12.6565 19.423 12.6288 19.3792 12.6102 19.331C12.5915 19.2829 12.5823 19.2313 12.583 19.1793Z" fill="#321313"/>
<path d="M3.05666 9.03421C3.05764 8.99438 3.07317 8.95646 3.10005 8.92829C3.12694 8.90011 3.16312 8.88383 3.20112 8.88281H9.89304C9.93105 8.88383 9.96723 8.90011 9.99411 8.92829C10.021 8.95646 10.0365 8.99438 10.0375 9.03421C10.0365 9.07404 10.021 9.11196 9.99411 9.14013C9.96723 9.1683 9.93105 9.18458 9.89304 9.1856H3.20112C3.18206 9.18594 3.16313 9.18226 3.14546 9.17477C3.12778 9.16729 3.11173 9.15615 3.09825 9.14202C3.08477 9.12789 3.07414 9.11107 3.06699 9.09255C3.05985 9.07402 3.05634 9.05418 3.05666 9.03421Z" fill="#9F9F9F"/>
<path d="M6.36353 9.18555L6.27686 9.67051L8.44617 9.51887V9.18555H6.36353Z" fill="#9F9F9F"/>
<path d="M29.2163 13.3384C29.4587 13.1381 29.7164 12.959 29.9868 12.8029C30.449 12.5294 30.9412 12.3156 31.4526 12.1663C34.1138 11.368 35.8586 12.2874 36.8713 13.2475C36.9004 13.2778 36.9389 13.3081 36.9676 13.3384C37.6812 14.0449 37.9993 14.743 37.9993 14.743C37.9993 14.9048 37.8837 15.0158 37.7198 15.0963C37.2086 15.3589 36.148 15.2981 36.148 15.2981C35.9772 15.2984 35.8066 15.3086 35.6369 15.3284C34.3545 15.4495 32.9468 16.0054 31.7319 16.6117C30.9105 17.0255 30.1121 17.4876 29.3406 17.996C29.1312 18.1316 28.912 18.2498 28.6849 18.3492C28.3177 18.5056 27.9315 18.6075 27.5374 18.652L27.1132 18.7025C27.0639 18.7076 27.0141 18.7012 26.9674 18.6837C26.9207 18.6663 26.8783 18.6381 26.8432 18.6014C26.8082 18.5647 26.7813 18.5202 26.7646 18.4713C26.748 18.4223 26.7419 18.3701 26.7468 18.3184C26.8346 17.3601 27.2589 14.9451 29.2163 13.3384Z" fill="#CF7D36"/>
<path d="M26.7373 18.3923C26.7566 18.5742 26.9205 18.7259 27.1038 18.7057L27.528 18.6552C28.169 18.5842 28.7859 18.3597 29.3311 17.9992C30.7292 17.0798 33.728 15.3115 36.1385 15.3115C36.1385 15.3115 37.9705 15.4124 37.9994 14.7564C37.9994 14.7564 37.3534 13.3517 35.8395 12.5029C37.0159 13.3416 37.527 14.4534 37.527 14.4534C37.4981 15.1094 35.6662 15.0085 35.6662 15.0085C33.2556 15.0085 30.2568 16.777 28.8587 17.6964C28.3136 18.0571 27.6967 18.2815 27.0556 18.3525L26.7373 18.3923Z" fill="#FAF4F4"/>
<path d="M1.37878 17.209C1.59416 16.3857 1.90167 15.5919 2.29491 14.8443C5.38999 9.03403 12.7761 8.90257 14.2801 11.7523C15.2733 13.6319 15.1096 15.4001 14.7817 16.5623C14.6696 16.9646 14.4361 17.3179 14.1162 17.5693C13.7963 17.8207 13.4073 17.9566 13.0074 17.9567H1.1958C1.24319 17.704 1.30428 17.4544 1.37878 17.209Z" fill="#CF7D36"/>
<path d="M4.73429 17.9565H13.0073V18.4107C13.0091 18.4452 13.0156 18.4792 13.0266 18.5117C12.9389 18.6446 12.8426 18.7751 12.7463 18.897C12.232 19.545 11.5724 20.0493 10.8267 20.3649C10.0809 20.6804 9.27206 20.7974 8.47259 20.7053C7.67311 20.6132 6.90788 20.3149 6.24531 19.8371C5.58275 19.3592 5.0435 18.7168 4.67578 17.9671C4.69576 17.9666 4.71503 17.9565 4.73429 17.9565Z" fill="#9F9F9F"/>
<path d="M5.39941 17.896C6.18047 19.1692 7.50157 20.0079 8.99602 20.0079C10.4905 20.0079 11.8116 19.1692 12.5926 17.896H5.39941Z" fill="#9F9F9F"/>
<path d="M5.6792 17.9565C6.4015 19.0784 7.61714 19.8159 9.00565 19.8159C10.3942 19.8159 11.6091 19.0784 12.3323 17.9565H5.6792Z" fill="#9F9F9F"/>
<path d="M6.42192 18.1794V18.3308C6.42236 18.3896 6.44485 18.4459 6.48454 18.4875C6.52422 18.529 6.57792 18.5526 6.63404 18.5531H8.13812C8.19422 18.5536 8.24788 18.5772 8.28756 18.6188C8.32723 18.6603 8.34974 18.7166 8.35024 18.7754C8.35074 18.8342 8.37325 18.8904 8.41292 18.932C8.45259 18.9736 8.50625 18.9971 8.56236 18.9977H9.53627C9.59237 18.9971 9.64603 18.9736 9.6857 18.932C9.72537 18.8904 9.74788 18.8342 9.74838 18.7754C9.74889 18.7166 9.7714 18.6603 9.81107 18.6188C9.85074 18.5772 9.9044 18.5536 9.9605 18.5531H11.4646C11.5207 18.5526 11.5744 18.529 11.6141 18.4875C11.6538 18.4459 11.6763 18.3896 11.6767 18.3308V18.1794C11.6762 18.1206 11.6537 18.0643 11.614 18.0228C11.5743 17.9812 11.5207 17.9576 11.4646 17.9571H6.63404C6.60602 17.9565 6.57817 17.9618 6.55217 17.9727C6.52617 17.9837 6.50255 18 6.48273 18.0208C6.46292 18.0416 6.44731 18.0663 6.43686 18.0936C6.42641 18.1208 6.42133 18.15 6.42192 18.1794Z" fill="#321313"/>
<path d="M9.01537 18.7045C9.16975 18.7045 9.2949 18.5734 9.2949 18.4116C9.2949 18.2498 9.16975 18.1187 9.01537 18.1187C8.86099 18.1187 8.73584 18.2498 8.73584 18.4116C8.73584 18.5734 8.86099 18.7045 9.01537 18.7045Z" fill="#FF9E2B"/>
<path d="M7.81998 11.8228L8.14791 10.782C8.18153 10.6787 8.24518 10.5891 8.32992 10.5258C8.41465 10.4624 8.5162 10.4285 8.62029 10.4287H11.4166C11.4947 10.4282 11.5719 10.4471 11.6417 10.4839C11.7115 10.5208 11.772 10.5744 11.8181 10.6405C11.8642 10.7066 11.8948 10.7833 11.9071 10.8641C11.9195 10.945 11.9133 11.0278 11.8892 11.1057L11.5613 12.1465C11.5277 12.2498 11.464 12.3394 11.3793 12.4027C11.2945 12.4661 11.193 12.5 11.0889 12.4998H8.29237C8.21454 12.4993 8.1379 12.4798 8.06859 12.4427C7.99929 12.4056 7.93925 12.3519 7.89331 12.2861C7.84737 12.2202 7.81681 12.144 7.80407 12.0636C7.79134 11.9831 7.79678 11.9006 7.81998 11.8228Z" fill="#CF7D36"/>
<path d="M1.3783 17.2392C1.31088 17.5019 1.2531 17.7545 1.19531 18.0275H13.0069C13.4068 18.0274 13.7959 17.8914 14.1158 17.64C14.4357 17.3886 14.6691 17.0352 14.7812 16.6329C14.9798 15.9183 15.0613 15.1734 15.0219 14.4302C14.9894 14.9092 14.9087 15.3834 14.7812 15.8447C14.6691 16.247 14.4357 16.6003 14.1158 16.8518C13.7959 17.1032 13.4068 17.2392 13.0069 17.2392H1.3783Z" fill="#FAF4F4"/>
<path d="M5.3125 13.8341C5.31247 13.8089 5.31719 13.7839 5.32638 13.7606C5.33558 13.7373 5.34907 13.7161 5.36609 13.6983C5.38312 13.6804 5.40333 13.6663 5.42557 13.6566C5.44781 13.647 5.47165 13.6421 5.49572 13.6421H10.7218C10.7704 13.6421 10.817 13.6623 10.8514 13.6983C10.8858 13.7343 10.9051 13.7832 10.9051 13.8341C10.9051 13.885 10.8858 13.9339 10.8514 13.9699C10.817 14.0059 10.7704 14.0261 10.7218 14.0261H5.49572C5.39918 14.0274 5.32213 13.935 5.3125 13.8341Z" fill="#321313"/>
<path d="M5.31299 14.5006C5.31296 14.4754 5.31767 14.4504 5.32687 14.4271C5.33607 14.4038 5.34956 14.3826 5.36658 14.3648C5.3836 14.3469 5.40381 14.3328 5.42606 14.3231C5.4483 14.3135 5.47214 14.3086 5.49621 14.3086H10.7224C10.7709 14.3086 10.8175 14.3288 10.8519 14.3648C10.8863 14.4008 10.9056 14.4497 10.9056 14.5006C10.9056 14.5515 10.8863 14.6004 10.8519 14.6364C10.8175 14.6724 10.7709 14.6926 10.7224 14.6926H5.49621C5.39967 14.6926 5.32262 14.6015 5.31299 14.5006Z" fill="#321313"/>
<path d="M5.31299 15.1574C5.31296 15.1321 5.31767 15.1072 5.32687 15.0838C5.33607 15.0605 5.34956 15.0393 5.36658 15.0215C5.3836 15.0037 5.40381 14.9895 5.42606 14.9799C5.4483 14.9702 5.47214 14.9653 5.49621 14.9653H10.7223C10.7709 14.9653 10.8175 14.9856 10.8519 15.0216C10.8863 15.0576 10.9056 15.1064 10.9056 15.1574C10.9056 15.2083 10.8863 15.2571 10.8519 15.2931C10.8175 15.3292 10.7709 15.3494 10.7223 15.3494H5.49621C5.39966 15.3494 5.32262 15.2684 5.31299 15.1574Z" fill="#321313"/>
<path d="M5.31299 15.8248C5.31299 15.7739 5.33229 15.7251 5.36665 15.6891C5.40101 15.653 5.44762 15.6328 5.49621 15.6328H10.7223C10.7709 15.6328 10.8175 15.653 10.8519 15.6891C10.8863 15.7251 10.9056 15.7739 10.9056 15.8248C10.9056 15.8758 10.8863 15.9246 10.8519 15.9606C10.8175 15.9966 10.7709 16.0169 10.7223 16.0169H5.49621C5.39966 16.0169 5.32262 15.9361 5.31299 15.8248Z" fill="#321313"/>
<path d="M14.2893 5.97202C14.3727 5.98063 14.4565 5.98408 14.5402 5.98237H17.6738C17.943 5.98331 18.2102 6.03106 18.4645 6.12367C18.5239 6.14278 18.582 6.16647 18.6381 6.19457C18.5983 6.21857 18.5625 6.24925 18.5321 6.2854C18.3489 6.47742 18.1469 6.55816 17.9543 6.55816H14.0676C13.7592 6.55816 13.4505 6.38633 13.1806 6.05352C13.109 5.95762 13.0317 5.86652 12.9492 5.78076C13.4794 5.87109 14.0483 5.94174 14.2893 5.97202Z" fill="#CF7D36"/>
<path d="M14.2994 5.98213C14.3827 5.99053 14.4664 5.9939 14.5501 5.99222H17.6837C17.9529 5.99317 18.2201 6.04092 18.4744 6.13352C18.3878 6.13655 18.3027 6.1572 18.2237 6.19433C18.0702 6.27044 17.9019 6.30843 17.7321 6.30535H14.4335C14.1707 6.30438 13.9123 6.23502 13.6814 6.10349C13.4596 5.97204 13.1705 5.82064 12.9487 5.78027C13.4796 5.87086 14.0486 5.94151 14.2994 5.98213Z" fill="#FF9E2B"/>
<path d="M28.4541 11.2165C28.5022 10.0747 28.6758 9.89282 28.724 9.80199C28.7914 9.68062 29.6206 9.80199 29.6206 9.80199C29.8033 9.85026 29.9808 9.91789 30.1503 10.0038C30.5072 10.2057 30.8447 10.5494 30.8726 11.2162C30.8812 11.3954 30.8715 11.575 30.8438 11.7519C30.8708 11.7896 30.8845 11.836 30.8823 11.8831C30.8823 11.935 30.8676 11.9858 30.8401 12.029C30.8127 12.0721 30.7736 12.1059 30.7279 12.1259L28.4813 13.1856C28.4442 12.3282 28.4348 11.6916 28.4541 11.2165Z" fill="#FAF4F4"/>
<path d="M30.8361 11.7419C30.8361 11.7419 30.1138 11.1154 30.1513 10.0039C30.5852 10.2464 30.9998 10.7215 30.8361 11.7419Z" fill="#FF9E2B"/>
<path opacity="0.47" d="M26.4484 2.58691H28.6367C28.5979 2.84983 28.5498 3.04109 28.4923 3.18315C28.4511 3.28725 28.3816 3.3763 28.2924 3.43914C28.2032 3.50199 28.0982 3.53582 27.9907 3.5364H27.3932C27.2957 3.53823 27.1994 3.51391 27.1134 3.46575C26.9398 3.37466 26.7373 3.36482 26.5445 3.41529L26.4674 3.43547C26.1975 3.50638 26.3131 3.81951 26.4 4.00143C26.3536 4.08137 26.3148 4.16588 26.2842 4.25375C26.2723 4.2959 26.2562 4.33659 26.236 4.37512C26.216 4.42551 26.1901 4.47307 26.1588 4.51667L25.8311 3.52631C25.677 3.07213 26.0049 2.59701 26.4484 2.58691Z" fill="#CF7D36"/>
<path opacity="0.25" d="M28.454 11.2163H30.8743C30.8828 11.3954 30.8731 11.575 30.8454 11.752C30.8724 11.7897 30.8861 11.8361 30.8839 11.8832C30.8839 11.9351 30.8692 11.9858 30.8417 12.029C30.8143 12.0722 30.7753 12.1059 30.7296 12.1259L28.4829 13.1857C28.4441 12.3281 28.4348 11.6914 28.454 11.2163Z" fill="#FAF4F4"/>
<path opacity="0.26" d="M36.9584 13.3491H29.1963C29.7941 12.8642 30.527 12.4499 31.4431 12.1771C34.2006 11.3485 35.9652 12.359 36.9584 13.3491Z" fill="#CF7D36"/>
<path opacity="0.29" d="M1.2433 13.1973L1.50357 12.7628C1.58335 12.632 1.68924 12.5209 1.81394 12.4372C1.93863 12.3534 2.07917 12.2989 2.22588 12.2776L3.8265 12.0654L4.22185 12.0149C4.58023 11.6785 4.9675 11.3774 5.37874 11.1156C5.398 11.0955 5.42689 11.0854 5.44639 11.0652L5.46566 11.0551C5.83509 10.7927 6.09935 10.397 6.20794 9.94335L6.2756 9.68069L10.6049 9.36755L18.5021 8.7915L18.5793 8.98352C18.6089 9.05011 18.6253 9.1223 18.6275 9.19572C18.6362 9.31899 18.6141 9.44249 18.5634 9.55411C18.5128 9.66573 18.4353 9.76161 18.3386 9.83233C17.5768 10.3779 16.111 11.6511 15.8411 13.3487H1.16602C1.19515 13.2982 1.21441 13.2478 1.2433 13.1973Z" fill="#CF7D36"/>
<path opacity="0.26" d="M25.2722 9.99379C26.034 10.6304 26.8439 11.3074 27.4996 11.8529C27.4803 11.9034 27.4707 11.9538 27.4514 12.0043C27.2588 12.5501 27.018 13.2371 26.7474 13.9646L26.2558 13.6716C26.0326 13.5418 25.864 13.3291 25.7831 13.0754C25.6098 12.4993 25.4554 11.59 25.3497 10.7311C25.2572 10.677 25.1788 10.5999 25.1217 10.5064C25.0645 10.4129 25.0303 10.3061 25.0221 10.1954L24.9932 9.771C25.089 9.85224 25.1757 9.92289 25.2722 9.99379Z" fill="#CF7D36"/>
<path d="M19.3127 7.27588V7.74066C19.3131 7.78587 19.3049 7.8307 19.2886 7.87255C19.2722 7.9144 19.2481 7.95242 19.2176 7.98439C19.1871 8.01636 19.1508 8.04164 19.1109 8.05875C19.071 8.07587 19.0282 8.08447 18.985 8.08407H12.8332C12.7148 8.08409 12.5999 8.04218 12.5072 7.96513C12.4144 7.88808 12.3493 7.78043 12.3223 7.65966L12.2354 7.27588H19.3127Z" fill="#CF7D36"/>
<path opacity="0.26" d="M10.6064 9.34719L12.7567 9.1958L18.0021 18.9571H13.6244C13.4929 18.9574 13.3647 18.9135 13.2588 18.8317C13.1529 18.7499 13.0749 18.6347 13.0362 18.5029C12.9495 18.6341 12.853 18.7656 12.7567 18.8869L12.2552 17.9571L7.74268 9.56974L10.6064 9.34719Z" fill="#CF7D36"/>
<path opacity="0.26" d="M31.454 12.1663C34.1152 11.368 35.86 12.2874 36.8727 13.2475L37.7214 15.0968C37.2103 15.3595 36.1497 15.2986 36.1497 15.2986C35.9789 15.2989 35.8083 15.3091 35.6385 15.3289C34.3562 15.45 32.9484 16.0059 31.7335 16.6122L31.0198 15.0763L29.9785 12.8128C30.4457 12.5401 30.9406 12.3233 31.454 12.1663Z" fill="#CF7D36"/>
<rect x="1.7435" y="1.51986" width="9.18" height="7.36002" rx="0.906669" fill="#FF9E2B" stroke="#CF7D36" stroke-width="0.320001"/>
<path d="M2.96875 5.22099C2.96875 5.13095 2.98546 5.04162 3.01887 4.95299C3.05228 4.86436 3.10101 4.78417 3.16505 4.71242C3.22909 4.64067 3.30705 4.5837 3.39893 4.54149C3.49081 4.49788 3.59523 4.47607 3.71217 4.47607C3.84999 4.47607 3.97041 4.50632 4.07343 4.56681C4.17646 4.62731 4.25302 4.70609 4.30314 4.80316L4.04002 4.98886C4.01775 4.93681 3.98782 4.89601 3.95023 4.86647C3.91264 4.83552 3.87227 4.81441 3.82911 4.80316C3.78595 4.7905 3.74419 4.78417 3.70381 4.78417C3.61611 4.78417 3.54372 4.80668 3.48664 4.8517C3.42956 4.89671 3.3871 4.95369 3.35925 5.02262C3.33141 5.09156 3.31749 5.1619 3.31749 5.23365C3.31749 5.31243 3.3335 5.38699 3.36552 5.45733C3.39754 5.52627 3.44278 5.58184 3.50125 5.62404C3.55972 5.66625 3.62864 5.68735 3.70799 5.68735C3.74976 5.68735 3.79222 5.68102 3.83537 5.66836C3.87853 5.65429 3.91821 5.63178 3.9544 5.60083C3.99199 5.56988 4.02053 5.52978 4.04002 5.48054L4.31985 5.64725C4.29061 5.72181 4.24258 5.78512 4.17576 5.83717C4.10893 5.88782 4.03306 5.92721 3.94814 5.95535C3.86461 5.98208 3.78178 5.99544 3.69964 5.99544C3.59244 5.99544 3.49429 5.97364 3.40519 5.93002C3.3161 5.88501 3.23883 5.82592 3.1734 5.75276C3.10797 5.6782 3.05715 5.5952 3.02096 5.50376C2.98615 5.41091 2.96875 5.31665 2.96875 5.22099Z" fill="#321313"/>
<path d="M5.8933 4.48452V5.98278H5.55082V5.3687H4.95985V5.98278H4.61738V4.48452H4.95985V5.06483H5.55082V4.48452H5.8933Z" fill="#321313"/>
<path d="M6.93966 5.99544C6.82132 5.99544 6.72039 5.97575 6.63686 5.93635C6.55333 5.89556 6.48511 5.84069 6.43221 5.77176C6.3807 5.70142 6.34242 5.62193 6.31736 5.5333C6.29369 5.44326 6.28186 5.34901 6.28186 5.25053V4.48452H6.62433V5.25053C6.62433 5.3265 6.63408 5.39754 6.65357 5.46366C6.67445 5.52978 6.70786 5.58395 6.7538 5.62615C6.79974 5.66695 6.8617 5.68735 6.93966 5.68735C7.01901 5.68735 7.08166 5.66625 7.1276 5.62404C7.17354 5.58184 7.20626 5.52767 7.22575 5.46155C7.24524 5.39543 7.25498 5.32509 7.25498 5.25053V4.48452H7.59746V5.25053C7.59746 5.3884 7.57448 5.5136 7.52854 5.62615C7.4826 5.7387 7.41091 5.82873 7.31345 5.89626C7.21739 5.96238 7.09279 5.99544 6.93966 5.99544Z" fill="#321313"/>
<path d="M9.15753 5.98278V5.09015L8.83802 5.7401H8.65008L8.33058 5.09015V5.98278H7.98811V4.48452H8.35981L8.74405 5.26741L9.13038 4.48452H9.5V5.98278H9.15753Z" fill="#321313"/>
</svg>
