<svg width="33" height="24" viewBox="0 0 33 24" fill="none" xmlns="http://www.w3.org/2000/svg">
<path d="M5.23643 24C5.23357 24 5.23071 23.9998 5.22774 23.9992C5.20199 23.9946 5.18497 23.9705 5.18978 23.9453L6.18295 18.7142C6.18765 18.689 6.21187 18.6722 6.23824 18.6771C6.26399 18.6818 6.28101 18.7059 6.2762 18.7311L5.28303 23.9621C5.27879 23.9845 5.25886 24 5.23643 24Z" fill="#321313"/>
<path d="M9.26927 22.4587C9.26805 22.4587 9.26682 22.4586 9.26554 22.4585L5.5784 22.178C5.55449 22.1762 5.53573 22.1573 5.53471 22.1338C5.53369 22.1104 5.55071 22.09 5.57436 22.0862L7.7928 21.7282L11.2834 21.7275C11.3067 21.7275 11.3266 21.7441 11.3302 21.7666C11.3339 21.7891 11.3202 21.8108 11.298 21.8178L9.28394 22.4563C9.27919 22.458 9.27423 22.4587 9.26927 22.4587ZM5.97473 22.1153L9.26355 22.3656L10.9838 21.8202H7.80052L5.97473 22.1153Z" fill="#321313"/>
<path d="M9.62282 23.9998C9.6011 23.9998 9.58148 23.9851 9.57658 23.9636L8.39374 18.8108C8.38801 18.7858 8.40406 18.7611 8.42966 18.7555C8.45572 18.75 8.48066 18.7656 8.48633 18.7905L9.66917 23.9433C9.67489 23.9683 9.65885 23.993 9.63325 23.9987C9.62972 23.9994 9.62625 23.9998 9.62282 23.9998Z" fill="#321313"/>
<path d="M11.9587 23.9996C11.9388 23.9996 11.9203 23.9873 11.9137 23.9679L10.0024 18.3754C9.99417 18.3511 10.0076 18.3249 10.0324 18.3169C10.0575 18.3087 10.0842 18.322 10.0924 18.3462L12.0037 23.9387C12.012 23.9629 11.9985 23.9891 11.9737 23.9973C11.9687 23.9989 11.9636 23.9996 11.9587 23.9996Z" fill="#321313"/>
<path d="M7.80036 23.5797C7.80005 23.5797 7.7997 23.5797 7.79939 23.5797C7.77323 23.5792 7.75243 23.5581 7.75294 23.5326L7.86102 18.2841C7.86153 18.2586 7.88407 18.241 7.90941 18.2388C7.93558 18.2393 7.95638 18.2604 7.95586 18.286L7.84778 23.5344C7.84732 23.5596 7.82612 23.5797 7.80036 23.5797Z" fill="#321313"/>
<path d="M1.13242 12.4503C1.13242 12.4503 -0.394029 8.02529 6.52189 8.39223C13.4378 8.75916 10.4242 15.1936 10.7608 15.2986C11.0974 15.4035 14.0362 15.3203 13.4505 16.7496C12.8648 18.1789 12.3412 20.0811 7.44597 20.0663C2.55079 20.0515 1.13242 12.4503 1.13242 12.4503Z" fill="#CF7D36"/>
<path d="M3.77178 0.373854C3.77178 0.373854 4.89704 -0.859872 7.37118 1.15504C9.84532 3.16995 8.90897 7.55465 4.55422 7.98111C0.199511 8.40758 -2.67673 1.07956 3.77178 0.373854Z" fill="#321313"/>
<path d="M10.9939 11.7794L9.11204 13.9577L8.27197 12.5395L11.1563 11.0625L10.9939 11.7794Z" fill="#FF9E2B"/>
<path d="M16.0913 17.5872L17.2052 18.8924L17.5438 18.5816L17.0933 18.3024C17.0933 18.3024 17.7214 18.693 18.2799 17.5908C18.2799 17.5908 16.7647 18.3197 16.6769 16.9736L16.0913 17.5872Z" fill="#321313"/>
<path d="M13.3753 20.4815L13.2559 22.1593L13.719 22.1761L13.5918 21.6709C13.5918 21.6709 13.7682 22.3761 14.9481 21.9929C14.9481 21.9929 13.343 21.4564 14.2299 20.4575L13.3753 20.4815Z" fill="#321313"/>
<path d="M8.83643 15.4972L12.3605 11.7036L17.2767 16.7412L15.7929 18.674L12.4539 13.3883L10.2223 17.1593L8.83643 15.4972Z" fill="#321313"/>
<path d="M9.82617 16.3026L13.5891 14.8823L15.0907 21.2858L12.6045 21.4282L12.9333 16.3486L10.3108 17.6877L9.82617 16.3026Z" fill="#321313"/>
<path d="M7.06819 17.5172C7.06819 17.5172 1.7712 14.7069 4.00446 9.9126L7.59032 9.93538L8.6023 12.6634L10.0673 14.1728L7.06819 17.5172Z" fill="#9F9F9F"/>
<path d="M7.375 9.48145H9.8286V12.6984L7.59284 12.7373L7.375 9.48145Z" fill="#321313"/>
<path d="M7.3753 11.758C7.3753 11.758 4.77418 16.0713 4.06558 16.0641C3.13858 16.0547 2.30469 12.7115 2.30469 12.7115L4.00426 11.2549L4.22721 14.1631L6.73226 11.6207L7.3753 11.758Z" fill="#FF9E2B"/>
<path d="M4.66777 13.6057L2.22612 14.316C2.22612 14.316 1.30229 9.9126 4.00388 9.9126L4.66777 13.6057Z" fill="#9F9F9F"/>
<path d="M6.95497 10.9808C6.95497 10.9808 7.59295 10.3765 7.77169 10.5534C7.84788 10.6289 7.25835 11.196 7.25835 11.196C7.25835 11.196 8.31493 10.6036 8.16848 10.8879C8.02203 11.1722 7.43392 11.58 7.43392 11.58C7.43392 11.58 8.14308 11.4511 8.33082 11.4683C8.63272 11.4961 7.89091 11.9169 7.40633 12.0036C7.07495 12.0629 6.18198 11.7682 6.95497 10.9808Z" fill="#FF9E2B"/>
<path d="M7.0679 11.3888C7.05885 11.3888 7.04981 11.3863 7.04174 11.381C7.01987 11.3669 7.01394 11.3382 7.02845 11.3169C7.07812 11.2439 7.21905 11.1644 7.23495 11.1555C7.25753 11.1428 7.28666 11.1506 7.29964 11.1728C7.31262 11.1951 7.30465 11.2234 7.28191 11.236C7.22933 11.2652 7.13551 11.327 7.1075 11.3681C7.0983 11.3815 7.08328 11.3888 7.0679 11.3888Z" fill="#321313"/>
<path d="M7.33851 11.7016C7.32262 11.7016 7.30708 11.6938 7.29809 11.6796C7.28434 11.6579 7.29124 11.6293 7.31352 11.6159C7.45261 11.5321 7.55625 11.4191 7.55727 11.4179C7.57454 11.3988 7.60459 11.397 7.62421 11.414C7.64378 11.431 7.64562 11.4602 7.62825 11.4793C7.6237 11.4844 7.5148 11.6034 7.36339 11.6947C7.35568 11.6993 7.34704 11.7016 7.33851 11.7016Z" fill="#321313"/>
<path d="M11.1563 16.0587C11.1563 16.0587 10.2892 20.2569 7.06787 17.5171L9.43067 14.8823L11.1563 16.0587Z" fill="#321313"/>
<path d="M5.95423 8.18115L5.87405 9.8539L6.7315 9.91268C6.7315 9.91268 6.85736 11.4355 5.92326 11.255C4.98916 11.0746 4.00391 9.91268 4.00391 9.91268L5.03551 9.83331L4.67469 8.37958L5.95423 8.18115Z" fill="#FF9E2B"/>
<path d="M2.0271 3.54267C2.0271 3.54267 4.49117 0.72329 6.22549 1.65673C7.95981 2.59018 8.80459 8.16592 5.8822 8.5014C2.44341 8.8962 1.40649 4.97168 2.0271 3.54267Z" fill="#FF9E2B"/>
<path d="M6.01143 5.94524C5.75118 5.94524 5.45828 5.93901 5.43947 5.93861C5.41331 5.93801 5.39256 5.91687 5.39313 5.8913C5.39374 5.86582 5.41188 5.84573 5.44162 5.84608C5.44842 5.84628 6.10474 5.86019 6.32963 5.84688C6.29212 5.70923 5.82778 5.14491 5.37483 4.65035C5.35741 4.6313 5.35909 4.60204 5.37861 4.58499C5.39808 4.56804 5.42803 4.56958 5.44561 4.58868C5.83539 5.01429 6.48053 5.75001 6.42115 5.89469C6.41088 5.91972 6.38809 5.93542 6.3586 5.93771C6.28594 5.94335 6.15354 5.94524 6.01143 5.94524Z" fill="#321313"/>
<path d="M1.71526 6.3906C2.04071 6.3906 2.30454 6.13319 2.30454 5.81566C2.30454 5.49813 2.04071 5.24072 1.71526 5.24072C1.38981 5.24072 1.12598 5.49813 1.12598 5.81566C1.12598 6.13319 1.38981 6.3906 1.71526 6.3906Z" fill="#FF9E2B"/>
<path d="M8.15505 4.76625C8.45857 4.76625 8.70463 4.52618 8.70463 4.23005C8.70463 3.93391 8.45857 3.69385 8.15505 3.69385C7.85152 3.69385 7.60547 3.93391 7.60547 4.23005C7.60547 4.52618 7.85152 4.76625 8.15505 4.76625Z" fill="#FF9E2B"/>
<path d="M1.98217 6.0959C1.95968 6.0959 1.93976 6.08029 1.93557 6.05795C1.90884 5.91582 1.85135 5.82353 1.76474 5.7837C1.61323 5.71415 1.41578 5.81944 1.41379 5.82049C1.39074 5.8328 1.36202 5.82488 1.34925 5.80254C1.33652 5.78021 1.34475 5.75199 1.36764 5.73957C1.37745 5.73434 1.61006 5.6102 1.80521 5.69999C1.92105 5.75328 1.99632 5.8681 2.02887 6.04125C2.03357 6.06638 2.01656 6.09051 1.9908 6.09515C1.98784 6.0957 1.98498 6.0959 1.98217 6.0959Z" fill="#321313"/>
<path d="M8.16694 4.66861C8.15085 4.66861 8.13511 4.66063 8.12622 4.64612C8.00056 4.44167 7.96709 4.27575 8.02672 4.1531C8.0951 4.01231 8.25821 3.98743 8.26511 3.98643C8.29153 3.9823 8.31509 4.00024 8.31892 4.02547C8.3227 4.05075 8.30487 4.07418 8.27901 4.07797C8.27625 4.07837 8.15785 4.09801 8.11206 4.19338C8.06806 4.28507 8.10103 4.42516 8.20752 4.59846C8.22101 4.62045 8.2137 4.64882 8.19127 4.66198C8.18371 4.66651 8.17527 4.66861 8.16694 4.66861Z" fill="#321313"/>
<path d="M9.33008 10.4679C9.33008 10.4679 10.4503 9.83368 10.7771 10.9033C11.0172 11.6892 9.52426 12.3548 9.52426 12.3548L9.44597 11.9869C9.44597 11.9869 10.7466 11.4787 10.4117 10.9033C10.2626 10.6471 9.33008 10.9033 9.33008 10.9033V10.4679Z" fill="#321313"/>
<path d="M10.906 10.5279C10.906 10.5279 10.5024 10.2674 10.3589 10.3549C10.2154 10.4423 9.91933 10.9022 9.95224 11.0519C9.98515 11.2017 9.89613 11.5974 10.0667 11.7151C10.2373 11.8327 10.6977 11.8969 10.9937 11.7792C11.2896 11.6616 11.2238 10.9325 10.906 10.5279Z" fill="#FF9E2B"/>
<path d="M9.96785 11.5628C9.94782 11.5628 9.92922 11.5503 9.92273 11.5307C9.91465 11.5064 9.92835 11.4803 9.95323 11.4724C10.1796 11.401 10.7048 11.3607 10.7271 11.359C10.7538 11.3572 10.776 11.3762 10.778 11.4016C10.78 11.4271 10.7605 11.4493 10.7344 11.4513C10.7291 11.4517 10.1982 11.4924 9.98241 11.5604C9.97756 11.562 9.97265 11.5628 9.96785 11.5628Z" fill="#321313"/>
<path d="M9.96791 11.2481C9.94997 11.2481 9.93286 11.2382 9.92483 11.2213C9.9138 11.1981 9.92412 11.1706 9.94793 11.1599C10.0052 11.134 10.5129 10.9085 10.7423 10.9645C10.7677 10.9706 10.7832 10.9958 10.7768 11.0206C10.7704 11.0454 10.7446 11.0605 10.7193 11.0542C10.5528 11.0138 10.1348 11.1773 9.98784 11.2438C9.98135 11.2468 9.97455 11.2481 9.96791 11.2481Z" fill="#321313"/>
<path d="M9.96783 10.9789C9.95618 10.9789 9.94458 10.9748 9.93544 10.9664C9.91632 10.949 9.9153 10.9197 9.93319 10.901C10.107 10.7194 10.4266 10.6419 10.5801 10.6046C10.6088 10.5976 10.6303 10.5926 10.6417 10.5886C10.6662 10.5801 10.6935 10.5926 10.7023 10.6167C10.711 10.6407 10.6982 10.6673 10.6735 10.6758C10.6605 10.6804 10.6359 10.6865 10.603 10.6944C10.4696 10.7268 10.1573 10.8027 10.0025 10.9642C9.99318 10.9739 9.9805 10.9789 9.96783 10.9789Z" fill="#321313"/>
<path d="M9.71445 18.338C9.70076 18.338 9.68712 18.3322 9.67776 18.3211C9.66116 18.3013 9.66407 18.2721 9.68431 18.2559C10.3545 17.7191 10.8121 15.8667 10.8166 15.848C10.8227 15.8232 10.8484 15.8079 10.8737 15.8137C10.8992 15.8197 10.915 15.8446 10.9089 15.8695C10.89 15.9468 10.4394 17.7709 9.74455 18.3275C9.73566 18.3346 9.72498 18.338 9.71445 18.338Z" fill="#321313"/>
<path d="M12.4541 13.4348C12.4537 13.4348 12.4532 13.4348 12.4527 13.4348C12.4307 13.4341 12.4122 13.4189 12.4077 13.3979L12.2363 12.5919C12.231 12.5669 12.2475 12.5423 12.2732 12.5372C12.2986 12.5319 12.3239 12.548 12.3293 12.5731L12.4604 13.1899L12.6332 12.5703C12.6401 12.5456 12.6663 12.531 12.6914 12.5378C12.7167 12.5445 12.7317 12.57 12.7248 12.5946L12.5 13.4006C12.4942 13.4209 12.4755 13.4348 12.4541 13.4348Z" fill="#321313"/>
<path d="M12.9332 16.3949C12.9236 16.3949 12.9141 16.3921 12.9059 16.3864C12.8904 16.3758 12.8828 16.3572 12.8868 16.339L13.0101 15.7682C13.0155 15.7431 13.0407 15.7272 13.0663 15.7324C13.0919 15.7377 13.1083 15.7622 13.1029 15.7873L13.0025 16.2523L13.4176 16.0015C13.4399 15.988 13.4691 15.9947 13.4829 16.0165C13.4967 16.0382 13.4898 16.0667 13.4675 16.0802L12.9582 16.3879C12.9505 16.3925 12.9419 16.3949 12.9332 16.3949Z" fill="#321313"/>
<path d="M15.5274 18.2017C15.5157 18.2017 15.5039 18.1975 15.4947 18.189C15.4757 18.1713 15.475 18.142 15.493 18.1235L17.0576 16.5202C17.0758 16.5017 17.1058 16.5011 17.1247 16.5185C17.1437 16.5362 17.1445 16.5654 17.1264 16.584L15.5618 18.1873C15.5524 18.1969 15.5399 18.2017 15.5274 18.2017Z" fill="#321313"/>
<path d="M14.9476 21.0266H12.6334C12.6071 21.0266 12.5859 21.0059 12.5859 20.9803C12.5859 20.9548 12.6071 20.9341 12.6334 20.9341H14.9476C14.9738 20.9341 14.995 20.9548 14.995 20.9803C14.995 21.0059 14.9738 21.0266 14.9476 21.0266Z" fill="#321313"/>
<path d="M14.335 19.495C14.3088 19.495 14.2876 19.4743 14.2876 19.4487C14.2876 19.3062 14.2007 19.1351 14.1998 19.1334C14.1881 19.1105 14.1976 19.0827 14.221 19.0713C14.2446 19.0599 14.2729 19.0691 14.2847 19.0919C14.2887 19.0997 14.3825 19.2846 14.3825 19.4487C14.3825 19.4743 14.3613 19.495 14.335 19.495Z" fill="#321313"/>
<path d="M13.9473 19.0565C13.9211 19.0565 13.8999 19.0358 13.8999 19.0102C13.8999 18.8677 13.813 18.6966 13.8121 18.6949C13.8004 18.6721 13.8099 18.6443 13.8334 18.6328C13.8569 18.6214 13.8852 18.6307 13.897 18.6535C13.901 18.6613 13.9948 18.8461 13.9948 19.0102C13.9947 19.0358 13.9735 19.0565 13.9473 19.0565Z" fill="#321313"/>
<path d="M14.1479 18.6736C14.1217 18.6736 14.1005 18.6529 14.1005 18.6274C14.1005 18.4853 14.0137 18.3137 14.0128 18.312C14.0011 18.2891 14.0106 18.2614 14.0341 18.2499C14.0575 18.2387 14.086 18.2478 14.0977 18.2706C14.1017 18.2784 14.1954 18.4632 14.1954 18.6274C14.1953 18.6529 14.1741 18.6736 14.1479 18.6736Z" fill="#321313"/>
<path d="M14.1016 18.1185C14.0754 18.1185 14.0542 18.0978 14.0542 18.0722C14.0542 17.9297 13.9673 17.7586 13.9664 17.7569C13.9547 17.734 13.9642 17.7063 13.9876 17.6948C14.0111 17.6835 14.0395 17.6926 14.0513 17.7155C14.0553 17.7233 14.1491 17.9081 14.1491 18.0722C14.1491 18.0978 14.1278 18.1185 14.1016 18.1185Z" fill="#321313"/>
<path d="M13.837 17.576C13.8107 17.576 13.7895 17.5553 13.7895 17.5297C13.7895 17.3873 13.7027 17.2162 13.7018 17.2145C13.6901 17.1916 13.6995 17.1638 13.723 17.1523C13.7465 17.141 13.7749 17.1501 13.7867 17.173C13.7907 17.1808 13.8844 17.3656 13.8844 17.5297C13.8844 17.5553 13.8632 17.576 13.837 17.576Z" fill="#321313"/>
<path d="M14.1016 19.8314C14.0754 19.8314 14.0542 19.8107 14.0542 19.7851C14.0542 19.6426 13.9673 19.4715 13.9664 19.4698C13.9547 19.4469 13.9642 19.4192 13.9876 19.4077C14.0111 19.3963 14.0395 19.4055 14.0513 19.4284C14.0553 19.4362 14.1491 19.621 14.1491 19.7851C14.1491 19.8107 14.1278 19.8314 14.1016 19.8314Z" fill="#321313"/>
<path d="M13.7022 18.2864C13.676 18.2864 13.6548 18.2657 13.6548 18.2402C13.6548 18.0977 13.5679 17.9266 13.567 17.9249C13.5553 17.902 13.5648 17.8742 13.5882 17.8628C13.6117 17.8514 13.6401 17.8606 13.6519 17.8835C13.6559 17.8912 13.7496 18.0761 13.7496 18.2402C13.7496 18.2657 13.7284 18.2864 13.7022 18.2864Z" fill="#321313"/>
<path d="M15.7718 15.8031C15.7559 15.8031 15.7404 15.7953 15.7314 15.7812C15.6546 15.6605 15.4881 15.5594 15.4864 15.5584C15.4641 15.545 15.4572 15.5165 15.4709 15.4947C15.4846 15.473 15.5137 15.4661 15.5361 15.4796C15.5437 15.4842 15.7233 15.5929 15.812 15.7324C15.8258 15.7541 15.819 15.7827 15.7967 15.7961C15.7889 15.8009 15.7802 15.8031 15.7718 15.8031Z" fill="#321313"/>
<path d="M15.2049 15.6297C15.189 15.6297 15.1735 15.622 15.1645 15.6079C15.0875 15.4867 14.9213 15.3861 14.9196 15.3851C14.8973 15.3717 14.8903 15.3432 14.904 15.3214C14.9177 15.2996 14.9469 15.2927 14.9693 15.3062C14.9769 15.3108 15.1565 15.4196 15.2451 15.5591C15.2589 15.5808 15.2521 15.6093 15.2298 15.6228C15.2221 15.6275 15.2134 15.6297 15.2049 15.6297Z" fill="#321313"/>
<path d="M15.1687 15.2015C15.1528 15.2015 15.1373 15.1937 15.1284 15.1796C15.0516 15.0589 14.8851 14.9578 14.8834 14.9568C14.8611 14.9434 14.8542 14.9149 14.8679 14.8931C14.8817 14.8713 14.9107 14.8646 14.9331 14.878C14.9407 14.8826 15.1203 14.9913 15.2089 15.1308C15.2227 15.1525 15.2159 15.181 15.1937 15.1945C15.1859 15.1992 15.1773 15.2015 15.1687 15.2015Z" fill="#321313"/>
<path d="M14.8294 14.7533C14.8135 14.7533 14.7981 14.7455 14.7891 14.7314C14.7123 14.6107 14.5457 14.5096 14.544 14.5086C14.5218 14.4952 14.5148 14.4667 14.5285 14.4449C14.5423 14.4231 14.5714 14.4163 14.5938 14.4298C14.6014 14.4343 14.7809 14.5431 14.8697 14.6826C14.8835 14.7043 14.8767 14.7328 14.8544 14.7463C14.8467 14.751 14.838 14.7533 14.8294 14.7533Z" fill="#321313"/>
<path d="M14.3113 14.4285C14.2954 14.4285 14.2799 14.4207 14.2709 14.4066C14.1942 14.2859 14.0277 14.1848 14.026 14.1838C14.0037 14.1704 13.9967 14.1419 14.0104 14.1202C14.0241 14.0984 14.0532 14.0916 14.0757 14.105C14.0833 14.1096 14.2629 14.2184 14.3515 14.3578C14.3653 14.3796 14.3585 14.4081 14.3362 14.4215C14.3285 14.4262 14.3198 14.4285 14.3113 14.4285Z" fill="#321313"/>
<path d="M15.7552 16.2083C15.7393 16.2083 15.7238 16.2005 15.7148 16.1864C15.638 16.0657 15.4715 15.9646 15.4698 15.9636C15.4475 15.9502 15.4406 15.9217 15.4543 15.9C15.468 15.8782 15.4972 15.8714 15.5195 15.8848C15.5272 15.8894 15.7067 15.9982 15.7954 16.1376C15.8092 16.1594 15.8023 16.1879 15.7801 16.2013C15.7724 16.2061 15.7637 16.2083 15.7552 16.2083Z" fill="#321313"/>
<path d="M14.5804 15.1014C14.5645 15.1014 14.549 15.0936 14.54 15.0795C14.4632 14.9588 14.2967 14.8577 14.295 14.8567C14.2727 14.8433 14.2658 14.8148 14.2795 14.793C14.2932 14.7712 14.3223 14.7645 14.3447 14.7779C14.3523 14.7825 14.5319 14.8912 14.6206 15.0307C14.6344 15.0524 14.6276 15.081 14.6053 15.0944C14.5976 15.0992 14.5889 15.1014 14.5804 15.1014Z" fill="#321313"/>
<path d="M4.66779 13.6521C4.64521 13.6521 4.62517 13.6363 4.62109 13.6138L4.21653 11.3633C4.21204 11.3382 4.22926 11.3142 4.25506 11.3098C4.28066 11.3055 4.3054 11.3222 4.30999 11.3473L4.71455 13.5978C4.71904 13.623 4.70182 13.6469 4.67602 13.6514C4.67326 13.6518 4.6705 13.6521 4.66779 13.6521Z" fill="#321313"/>
<path d="M6.48298 16.4866C6.46305 16.4866 6.44456 16.4743 6.43796 16.4549C6.42974 16.4306 6.44318 16.4044 6.46806 16.3964C6.49366 16.3881 9.03673 15.5452 9.52274 13.6484C9.52902 13.6235 9.55478 13.6083 9.58023 13.6148C9.60567 13.6209 9.62116 13.6461 9.61472 13.6708C9.11609 15.6174 6.52402 16.4758 6.4979 16.4842C6.49295 16.4858 6.48794 16.4866 6.48298 16.4866Z" fill="#321313"/>
<path d="M6.01145 7.26412C6.00688 7.2651 6.00245 7.26598 5.99794 7.26683C5.51841 7.35836 4.99667 6.91495 4.93876 6.86407C4.92309 6.85025 4.94007 6.82833 4.97675 6.81502C5.01326 6.80164 5.05573 6.80218 5.07156 6.81596C5.27508 6.9947 5.70491 7.25784 5.99128 7.20318C6.25168 7.1536 6.64877 6.74942 6.83232 6.50748C6.84684 6.4883 6.88852 6.47304 6.92588 6.4732C6.963 6.47341 6.98129 6.48912 6.96677 6.50827C6.91532 6.57616 6.45441 7.16946 6.01145 7.26412Z" fill="#321313"/>
<path d="M5.65553 8.59504C5.24924 8.59504 4.91755 8.44971 4.89681 8.44044C4.87299 8.42977 4.86257 8.40235 4.87345 8.37912C4.88429 8.35579 4.9126 8.34562 4.93631 8.35629C4.94361 8.35948 5.67306 8.67829 6.26837 8.35783C6.29137 8.34552 6.32019 8.35369 6.33286 8.37598C6.34548 8.39841 6.33715 8.42653 6.31426 8.43889C6.09663 8.55605 5.86607 8.59504 5.65553 8.59504Z" fill="#321313"/>
<path d="M8.40123 9.18281C8.38595 9.18281 8.37093 9.17563 8.36178 9.16227C8.33914 9.12921 7.80898 8.34693 7.98185 7.76956C8.04466 7.55981 8.19254 7.40392 8.42141 7.3062C8.56158 7.24637 8.69153 7.21905 8.80993 7.21501C8.77247 7.10538 8.76169 6.99291 8.78933 6.88452C8.83496 6.70604 9.0063 6.47965 9.56354 6.41468C9.81444 6.38542 9.96851 6.29493 10.0215 6.14562C10.1021 5.91817 9.93264 5.59267 9.72349 5.38861C9.58194 5.25056 9.43375 5.18031 9.34627 5.20993C9.32138 5.21825 9.29445 5.20549 9.28592 5.18131C9.27733 5.15718 9.29052 5.13076 9.31525 5.12243C9.4409 5.0801 9.61837 5.15519 9.79058 5.32315C10.0135 5.54062 10.2089 5.90018 10.1112 6.17588C10.0659 6.30346 9.93611 6.46449 9.57484 6.50657C9.17626 6.55303 8.9365 6.69143 8.88146 6.90686C8.85622 7.00562 8.87068 7.11211 8.91248 7.21736C9.21918 7.24224 9.43549 7.42281 9.53503 7.56595C9.62338 7.69303 9.64285 7.81149 9.58455 7.86772C9.54632 7.90466 9.46651 7.92545 9.30365 7.81503C9.12066 7.69089 8.94335 7.50657 8.84733 7.30615C8.72955 7.30545 8.5997 7.33108 8.45948 7.39095C8.25764 7.47715 8.12759 7.61321 8.07302 7.79533C7.91246 8.33113 8.43536 9.10299 8.44068 9.11072C8.45524 9.13196 8.44937 9.16072 8.4276 9.17488C8.41942 9.18027 8.41027 9.18281 8.40123 9.18281ZM8.95852 7.31413C9.04912 7.4775 9.19828 7.63086 9.35777 7.73905C9.46732 7.81338 9.51188 7.8076 9.51771 7.80191C9.52941 7.7906 9.52844 7.7216 9.45639 7.61795C9.35787 7.47626 9.18602 7.34698 8.95852 7.31413Z" fill="#321313"/>
<path d="M9.03123 9.08054C9.00691 9.08054 8.98621 9.06249 8.98406 9.03841C8.98192 9.01463 8.94354 8.45415 9.9598 8.28609C10.2692 8.23494 10.3831 7.94722 10.4233 7.78025C10.4623 7.61887 10.4645 7.44293 10.4374 7.29376C10.3697 7.33041 10.309 7.34307 10.2743 7.34741C10.104 7.36835 9.93671 7.29057 9.89358 7.16942C9.87672 7.12196 9.85745 6.99991 10.0423 6.89168C10.1442 6.8321 10.2475 6.8329 10.3332 6.89397C10.4013 6.94253 10.4556 7.02903 10.4929 7.13687C10.5974 7.02808 10.665 6.85075 10.6834 6.62335C10.7172 6.20526 10.4995 5.90139 10.2889 5.60754C9.96752 5.15919 9.63522 4.69554 10.3124 3.87855C10.3288 3.85871 10.3587 3.85547 10.3791 3.87167C10.3995 3.88772 10.4026 3.91689 10.3861 3.93673C9.75393 4.69952 10.0378 5.09573 10.3666 5.5545C10.5868 5.86171 10.8145 6.17939 10.778 6.63063C10.7512 6.96177 10.6371 7.14046 10.5213 7.23683C10.56 7.40763 10.5615 7.61229 10.5158 7.80144C10.4369 8.12825 10.2451 8.33275 9.97575 8.37733C9.0508 8.53028 9.07717 9.01019 9.07875 9.03058C9.08069 9.05596 9.06127 9.07825 9.03532 9.08029C9.03383 9.08049 9.03256 9.08054 9.03123 9.08054ZM10.1914 6.93974C10.16 6.93974 10.1267 6.95016 10.0911 6.971C10.0393 7.00131 9.95638 7.06353 9.98321 7.13901C10.008 7.20871 10.1217 7.27307 10.2623 7.25557C10.3179 7.24854 10.3693 7.2299 10.4156 7.20053C10.385 7.09544 10.3376 7.01178 10.2772 6.9687C10.25 6.94941 10.2216 6.93974 10.1914 6.93974Z" fill="#321313"/>
<path d="M0.989231 5.20333C0.974667 5.20333 0.960308 5.1968 0.951008 5.18454C0.937773 5.16699 -0.359136 3.419 0.757034 2.11907C0.773897 2.09958 0.803841 2.09688 0.823872 2.11334C0.843955 2.12974 0.84656 2.15895 0.829749 2.17855C-0.239103 3.42329 1.01452 5.1127 1.02735 5.1296C1.04294 5.15014 1.03844 5.1792 1.01734 5.19431C1.00885 5.20039 0.998991 5.20333 0.989231 5.20333Z" fill="#321313"/>
<line x1="0.05" y1="-0.05" x2="1.33326" y2="-0.05" transform="matrix(0.942444 -0.334364 0.349241 0.937033 3.31006 4.625)" stroke="#321313" stroke-width="0.1" stroke-linecap="round"/>
<line x1="0.05" y1="-0.05" x2="1.33714" y2="-0.05" transform="matrix(0.999656 0.0262213 -0.0275468 0.99962 5.68018 3.87354)" stroke="#321313" stroke-width="0.1" stroke-linecap="round"/>
<path d="M25.1933 22.1299C24.4711 18.6986 22.3469 15.3702 21.1424 13.521C18.8602 10.0181 18.4591 9.03454 18.5434 7.14802C18.6207 5.41921 19.2116 4.12396 20.4942 2.87147C22.7903 0.63818 27.7702 0.387219 30.1491 2.85297C31.5994 4.35619 31.8647 4.97202 31.9838 6.89842C32.1823 9.49387 30.5202 11.8315 29.4289 13.5062C27.1389 17.0008 26.2718 18.7462 25.6226 21.1683C25.3712 22.106 25.2673 22.3388 25.1932 22.1297L25.1933 22.1299Z" fill="#A4101B" stroke="#321313" stroke-width="0.5"/>
<path d="M27.9664 8.16662C27.9664 9.61449 26.7212 10.7883 25.1851 10.7883C23.6491 10.7883 22.4038 9.61449 22.4038 8.16662C22.4038 6.71865 23.649 5.54492 25.1851 5.54492C26.7212 5.54492 27.9664 6.71865 27.9664 8.16662Z" fill="#321313"/>
</svg>
