<svg width="36" height="24" viewBox="0 0 36 24" fill="none" xmlns="http://www.w3.org/2000/svg">
<path d="M17.4291 15.1833C17.306 14.911 17.1939 14.6333 17.0864 14.3547C16.6969 13.336 16.3616 12.2984 16.0817 11.246C15.8013 10.2037 15.242 9.20482 14.8012 8.21458C14.4179 7.35392 13.7985 6.44968 13.5508 5.55176C16.9277 5.66493 17.7227 5.96299 19.5907 7.30706C21.0679 8.3697 22.9258 9.49796 24.4157 10.5407C26.0182 11.661 27.7431 12.5191 29.4896 13.3982C29.9667 13.6382 29.1888 14.3027 28.9914 14.5539C28.5848 15.0711 28.1634 15.5767 27.727 16.0707C27.1628 16.7094 26.5751 17.3274 25.9639 17.9246C25.4324 18.4441 25.0241 19.0097 24.2363 19.1046C21.7888 19.399 19.2172 18.1908 17.9314 16.1388C17.7423 15.8316 17.5745 15.5124 17.4291 15.1833Z" fill="#DAA586"/>
<path d="M16.8055 7.24426C16.7061 7.56897 16.5335 7.86798 16.3005 8.11945C16.2858 8.13538 16.2706 8.15132 16.2553 8.16631C16.2471 8.17681 16.2367 8.1855 16.2248 8.19183C16.2129 8.19815 16.1998 8.20195 16.1863 8.203C16.1728 8.20404 16.1592 8.20229 16.1465 8.19787C16.1337 8.19345 16.1221 8.18646 16.1123 8.17735C16.1025 8.16824 16.0948 8.15722 16.0897 8.14501C16.0845 8.1328 16.0821 8.11967 16.0826 8.10648C16.083 8.0933 16.0863 8.08036 16.0922 8.0685C16.0982 8.05664 16.1066 8.04613 16.117 8.03767L16.1586 7.99409C16.3721 7.76317 16.53 7.48875 16.6208 7.19083C16.6298 7.16939 16.6467 7.15198 16.6682 7.14198C16.6897 7.13198 16.7142 7.13009 16.737 7.13667C16.7598 7.14326 16.7793 7.15785 16.7918 7.17764C16.8042 7.19742 16.8086 7.22099 16.8043 7.24379L16.8055 7.24426Z" fill="white"/>
<path d="M19.4189 9.7664C19.0687 10.2547 18.623 10.6709 18.1074 10.991C18.0969 10.9992 18.0847 11.0051 18.0716 11.0085C18.0586 11.0118 18.0449 11.0124 18.0316 11.0102C18.0183 11.0081 18.0056 11.0032 17.9943 10.9959C17.983 10.9887 17.9735 10.9792 17.9662 10.9681C17.959 10.957 17.9542 10.9445 17.9522 10.9315C17.9502 10.9185 17.9511 10.9052 17.9547 10.8925C17.9584 10.8799 17.9647 10.8681 17.9733 10.8579C17.9819 10.8478 17.9927 10.8396 18.0048 10.8337C18.4989 10.5267 18.9262 10.1277 19.2621 9.65978C19.2686 9.6482 19.2775 9.63808 19.2883 9.63008C19.299 9.62207 19.3114 9.61637 19.3246 9.61334C19.3377 9.61032 19.3514 9.61003 19.3647 9.61251C19.378 9.61498 19.3906 9.62016 19.4017 9.62771C19.4128 9.63525 19.4221 9.64499 19.4291 9.6563C19.4361 9.6676 19.4405 9.68021 19.4421 9.6933C19.4438 9.70639 19.4425 9.71966 19.4385 9.73226C19.4345 9.74486 19.4279 9.75649 19.4189 9.7664Z" fill="white"/>
<path d="M17.4314 7.79883C17.0321 8.05724 16.5923 8.25065 16.1292 8.37151C16.1166 8.3763 16.1031 8.37845 16.0896 8.37782C16.0761 8.37719 16.0629 8.37379 16.0508 8.36784C16.0388 8.36189 16.0281 8.35353 16.0196 8.3433C16.0111 8.33308 16.0048 8.32121 16.0013 8.30848C15.9978 8.29575 15.9971 8.28245 15.9992 8.26943C16.0014 8.25642 16.0063 8.24399 16.0137 8.23296C16.0211 8.22192 16.0308 8.21253 16.0422 8.2054C16.0535 8.19826 16.0663 8.19354 16.0797 8.19155C16.5227 8.07549 16.9435 7.89007 17.3256 7.64253C17.3466 7.63178 17.3711 7.62902 17.3941 7.63478C17.4172 7.64054 17.4372 7.65442 17.4503 7.67374C17.4635 7.69305 17.4688 7.71643 17.4653 7.73936C17.4618 7.76229 17.4497 7.78314 17.4314 7.79789V7.79883Z" fill="white"/>
<path d="M18.5033 11.6261L18.6555 11.7953C18.6716 11.8119 18.684 11.8315 18.6922 11.8529C18.7003 11.8743 18.7039 11.897 18.7028 11.9198C18.7017 11.9426 18.6959 11.965 18.6857 11.9855C18.6756 12.0061 18.6613 12.0244 18.6437 12.0395C18.6261 12.0545 18.6055 12.066 18.5833 12.0731C18.5611 12.0803 18.5376 12.083 18.5143 12.0811C18.4909 12.0792 18.4682 12.0728 18.4475 12.0622C18.4268 12.0515 18.4085 12.0369 18.3937 12.0193L18.2415 11.8501C18.2129 11.816 18.199 11.7725 18.2027 11.7286C18.2065 11.6847 18.2275 11.644 18.2615 11.615C18.2954 11.5859 18.3396 11.5709 18.3847 11.5729C18.4298 11.575 18.4723 11.5941 18.5033 11.6261Z" fill="#FF9E2B"/>
<path d="M18.2828 12.221C18.371 12.3163 18.4592 12.4116 18.5473 12.5069C18.5766 12.5405 18.5914 12.5839 18.5884 12.628C18.5854 12.672 18.5649 12.7132 18.5313 12.7428C18.4977 12.7724 18.4536 12.7881 18.4084 12.7865C18.3631 12.785 18.3202 12.7664 18.2888 12.7346C18.2005 12.6392 18.1123 12.5439 18.0243 12.4487C17.995 12.4151 17.9803 12.3717 17.9833 12.3276C17.9863 12.2836 18.0067 12.2424 18.0403 12.2128C18.0739 12.1832 18.118 12.1675 18.1633 12.169C18.2085 12.1706 18.2514 12.1892 18.2828 12.221Z" fill="#FF9E2B"/>
<path d="M1.08096 0.665267C1.08096 0.480388 1.06196 0.264344 1.31878 0.14976C1.48423 0.0766522 1.70955 0.0693883 1.91996 0.0663421C6.42494 -0.00207976 11.1276 0.0169013 15.6403 3.01642e-05C15.8752 3.01642e-05 16.1226 -0.00325034 16.3311 0.0586105C16.7606 0.186316 16.732 0.447583 16.7507 0.753607C16.7818 1.26279 16.7709 1.29606 16.7697 1.77056C16.7685 2.24506 16.6841 2.4761 16.0002 2.47563C11.5078 2.47212 4.61107 2.56936 2.00485 2.56936C1.15935 2.56936 1.11727 2.32497 1.08962 1.69581C1.08096 1.49687 1.07976 0.887873 1.08096 0.665267Z" fill="#321313"/>
<path d="M12.6424 1.72448C14.0056 1.79946 15.4105 1.76291 16.7443 2.07947C16.6883 2.34496 16.513 2.47782 16.0003 2.47642C11.5079 2.4729 4.61117 2.57015 2.00495 2.57015C1.15946 2.57015 1.11737 2.32575 1.08972 1.69659C1.08539 1.60122 1.08299 1.41541 1.08154 1.22021C3.70027 1.48008 11.2051 1.64551 12.6424 1.72448Z" fill="#CF7D36"/>
<path d="M0.961914 3.75293C1.31733 6.34499 3.01289 15.7816 3.63523 18.6274C3.81077 19.4297 3.89469 20.6208 4.48216 21.2326C4.72552 21.4861 5.06578 21.6293 5.40533 21.7341C7.39137 22.3463 9.94156 22.1033 11.9502 21.6621C12.6507 21.5082 13.3954 21.2743 13.8117 20.7014C13.9841 20.4643 14.1724 19.8651 14.359 19.1202C15.5414 14.3815 16.8469 4.06739 16.8904 3.75293H0.961914Z" fill="#EF962D"/>
<path d="M16.8904 3.75293C16.8844 3.79651 16.8536 4.03411 16.8027 4.42192C15.1136 4.66233 10.516 5.02834 9.04124 5.07614C8.12 5.1059 7.19948 5.14644 6.27872 5.18627C5.45968 5.22119 4.55719 5.16284 3.75666 5.35334C2.60072 5.62937 2.43047 6.81223 3.27572 7.56721C3.84155 8.07288 4.81137 8.21347 5.54456 8.28119C8.00674 8.50965 10.1755 8.75381 12.8265 8.70718C12.2494 9.09545 11.4832 9.10553 10.8087 9.17231C10.076 9.24401 9.34592 9.29838 8.6096 9.32626C7.04822 9.38554 5.48709 9.38297 3.93221 9.55285C3.89299 9.55653 3.85499 9.56809 3.8206 9.5868C3.7862 9.60552 3.75616 9.63098 3.73238 9.66157C3.69914 9.68459 3.67147 9.71441 3.65128 9.74893C3.63109 9.78345 3.61889 9.82185 3.61551 9.86145C3.42313 11.717 5.0225 13.8566 6.4319 14.9643C8.3636 16.4827 11.0278 16.1666 13.3464 16.1851L13.343 16.1973C13.3339 16.2172 13.3266 16.2379 13.3214 16.2591C12.1414 16.5363 7.67032 17.1446 6.86907 17.3248C5.42288 17.6498 5.03356 18.3401 5.4034 19.4178C5.90455 20.8778 7.50728 20.8741 9.0006 20.7883C10.5245 20.7009 12.7438 20.6606 14.1274 19.9539C14.0187 20.2981 13.911 20.5631 13.8107 20.7037C13.3945 21.2757 12.6497 21.5096 11.9493 21.6644C9.9406 22.1054 7.39041 22.3487 5.40437 21.7364C5.06482 21.6316 4.72456 21.4885 4.4812 21.2349C3.89373 20.6231 3.80981 19.4321 3.63426 18.6298C3.01289 15.7823 1.31733 6.34569 0.961914 3.75293H16.8904Z" fill="#FF9E2B"/>
<path d="M2.71421 16.2034C2.23327 14.0603 1.66648 10.6927 1.39307 8.30023C6.44464 9.16722 11.5368 8.86776 16.6091 8.28125C16.3578 10.568 15.7855 14.2124 15.4688 15.9314C11.2447 16.6747 6.93856 16.9317 2.71421 16.2034Z" fill="#CF7D36"/>
<path d="M0.000473826 2.63046C0.00167618 2.42308 -0.0211683 2.18126 0.271244 2.05356C0.459532 1.97155 0.715633 1.96334 0.95418 1.95983C6.07933 1.88321 11.4296 1.90453 16.5636 1.88578C16.831 1.88578 17.1126 1.8818 17.3497 1.95139C17.8383 2.09456 17.8066 2.387 17.827 2.73004C17.8624 3.30062 17.8511 3.33811 17.8489 3.87002C17.8467 4.40193 17.7515 4.66062 16.9748 4.66015C11.8634 4.65616 4.01729 4.76583 1.05205 4.76583C0.0901695 4.76583 0.0420755 4.49214 0.0105739 3.7866C0.000474149 3.56212 -0.000968996 2.87977 0.000473826 2.63046Z" fill="#321313"/>
<path d="M16.0174 5.89707C15.9948 6.02032 15.9723 6.1435 15.95 6.26659C15.945 6.29825 15.9336 6.32861 15.9164 6.35589C15.8992 6.38318 15.8765 6.40684 15.8498 6.42548C15.8231 6.44412 15.7928 6.45737 15.7607 6.46445C15.7287 6.47153 15.6955 6.4723 15.6631 6.46671C15.6308 6.46112 15.5999 6.44929 15.5723 6.43191C15.5447 6.41452 15.5209 6.39194 15.5024 6.36548C15.4839 6.33902 15.471 6.30923 15.4644 6.27784C15.4579 6.24645 15.4578 6.21411 15.4643 6.18271C15.4867 6.05945 15.5092 5.9362 15.5316 5.81294C15.5373 5.78188 15.5492 5.75221 15.5666 5.72562C15.5841 5.69904 15.6067 5.67606 15.6332 5.658C15.6598 5.63994 15.6897 5.62715 15.7214 5.62037C15.753 5.61358 15.7857 5.61293 15.8175 5.61846C15.8494 5.62398 15.8799 5.63557 15.9071 5.65256C15.9344 5.66955 15.958 5.69161 15.9765 5.71748C15.9951 5.74335 16.0082 5.77253 16.0152 5.80334C16.0221 5.83415 16.0228 5.866 16.0171 5.89707H16.0174Z" fill="#FF9E2B"/>
<path d="M15.0483 6.07427C15.0367 6.20767 15.0253 6.34085 15.0141 6.47378C15.0114 6.50525 15.0024 6.53588 14.9875 6.56394C14.9727 6.59201 14.9523 6.61694 14.9275 6.63733C14.9028 6.65772 14.8742 6.67316 14.8433 6.68277C14.8125 6.69238 14.78 6.69597 14.7477 6.69334C14.7154 6.69071 14.6839 6.68191 14.6551 6.66743C14.6263 6.65296 14.6007 6.63311 14.5798 6.609C14.5589 6.58489 14.5431 6.557 14.5332 6.52693C14.5233 6.49685 14.5196 6.46518 14.5223 6.43371C14.5339 6.30062 14.5453 6.16784 14.5567 6.03537C14.5585 6.00323 14.5668 5.97176 14.5813 5.94282C14.5957 5.91388 14.616 5.88807 14.6409 5.8669C14.6658 5.84574 14.6948 5.82966 14.7261 5.81962C14.7575 5.80958 14.7906 5.80578 14.8236 5.80844C14.8565 5.81111 14.8885 5.82019 14.9178 5.83515C14.947 5.8501 14.9729 5.87063 14.9938 5.89551C15.0148 5.92038 15.0304 5.94911 15.0397 5.97998C15.0491 6.01085 15.052 6.04323 15.0483 6.07521V6.07427Z" fill="#FF9E2B"/>
<path d="M15.628 6.99342L15.5833 7.39458C15.5798 7.42597 15.57 7.45638 15.5544 7.48407C15.5389 7.51176 15.5178 7.53619 15.4926 7.55597C15.4673 7.57575 15.4383 7.59049 15.4072 7.59934C15.3761 7.6082 15.3436 7.611 15.3113 7.60758C15.2791 7.60417 15.2479 7.5946 15.2195 7.57943C15.1911 7.56427 15.166 7.54379 15.1457 7.51919C15.1254 7.49458 15.1103 7.46631 15.1012 7.43601C15.0921 7.4057 15.0893 7.37395 15.0928 7.34256C15.1077 7.20869 15.1227 7.07497 15.1377 6.9414C15.1403 6.90931 15.1495 6.87805 15.1647 6.84948C15.1799 6.8209 15.2008 6.7956 15.2262 6.77505C15.2517 6.75451 15.2811 6.73915 15.3127 6.72989C15.3443 6.72063 15.3776 6.71766 15.4104 6.72114C15.4432 6.72462 15.475 6.7345 15.5039 6.75017C15.5327 6.76585 15.558 6.78702 15.5783 6.81241C15.5986 6.8378 15.6135 6.86691 15.622 6.898C15.6306 6.9291 15.6326 6.96155 15.628 6.99342Z" fill="#FF9E2B"/>
<path d="M10.941 7.75971C10.9204 7.85438 10.8998 7.94936 10.8792 8.04465C10.8626 8.10383 10.8234 8.1546 10.7697 8.18654C10.7159 8.21848 10.6517 8.22918 10.5901 8.21645C10.5285 8.20372 10.4742 8.16852 10.4384 8.11807C10.4025 8.06761 10.3879 8.00572 10.3973 7.94506C10.418 7.85133 10.4385 7.75526 10.4594 7.66013C10.4642 7.62757 10.4759 7.59632 10.4936 7.56832C10.5113 7.54032 10.5347 7.51616 10.5624 7.49734C10.5901 7.47851 10.6215 7.46543 10.6546 7.45889C10.6876 7.45236 10.7218 7.45251 10.7548 7.45934C10.7878 7.46617 10.819 7.47953 10.8466 7.49859C10.8741 7.51766 10.8973 7.54202 10.9147 7.57018C10.9322 7.59834 10.9435 7.62969 10.9481 7.66229C10.9526 7.69489 10.9502 7.72805 10.941 7.75971Z" fill="#FF9E2B"/>
<path d="M2.71359 2.57488L2.70854 2.86052C2.70575 2.92315 2.67797 2.98224 2.63111 3.02519C2.58426 3.06815 2.52204 3.09157 2.45772 3.09047C2.39339 3.08937 2.33206 3.06384 2.28678 3.0193C2.2415 2.97477 2.21586 2.91477 2.21533 2.85208C2.21702 2.75836 2.21846 2.66205 2.22038 2.56668C2.22093 2.53514 2.22786 2.50401 2.24075 2.47508C2.25365 2.44615 2.27227 2.41997 2.29555 2.39805C2.31883 2.37613 2.34631 2.35889 2.37643 2.34731C2.40654 2.33574 2.4387 2.33006 2.47107 2.3306C2.50344 2.33114 2.53538 2.33789 2.56508 2.35045C2.59477 2.36302 2.62163 2.38116 2.64413 2.40385C2.66663 2.42653 2.68432 2.45331 2.6962 2.48266C2.70807 2.512 2.7139 2.54334 2.71335 2.57488H2.71359Z" fill="#CF7D36"/>
<path d="M1.91349 2.94642C1.89742 3.0052 1.88934 3.06578 1.88944 3.12662C1.88949 3.15166 1.89086 3.17669 1.89353 3.2016C1.89915 3.26432 1.8793 3.32668 1.83824 3.37529C1.79719 3.4239 1.7382 3.45488 1.67396 3.46157C1.60972 3.46826 1.54535 3.45012 1.49468 3.41107C1.44401 3.37201 1.41108 3.31514 1.40297 3.25268C1.38694 3.10813 1.3986 2.96193 1.43736 2.82153C1.44516 2.7904 1.45928 2.76111 1.47886 2.73538C1.49845 2.70964 1.52312 2.68798 1.55142 2.67167C1.57972 2.65536 1.61108 2.64473 1.64366 2.64039C1.67624 2.63606 1.70938 2.63811 1.74113 2.64644C1.77288 2.65476 1.80261 2.66919 1.82855 2.68887C1.8545 2.70854 1.87615 2.73308 1.89223 2.76103C1.90831 2.78897 1.9185 2.81977 1.92219 2.85161C1.92588 2.88345 1.92301 2.91568 1.91373 2.94642H1.91349Z" fill="#CF7D36"/>
<path d="M15.2599 0.659353L15.2296 0.888049C15.2263 0.920075 15.2165 0.951138 15.2007 0.979396C15.1849 1.00765 15.1634 1.03253 15.1375 1.05255C15.1117 1.07258 15.0819 1.08733 15.0501 1.09595C15.0183 1.10458 14.985 1.10688 14.9523 1.10274C14.9195 1.0986 14.888 1.08809 14.8594 1.07184C14.8309 1.05559 14.8061 1.03392 14.7863 1.00813C14.7666 0.982342 14.7523 0.952949 14.7444 0.921695C14.7366 0.890441 14.7352 0.857964 14.7404 0.826188C14.7505 0.750269 14.7604 0.674349 14.7705 0.597961C14.7797 0.535423 14.8138 0.47892 14.8654 0.440672C14.917 0.402424 14.9819 0.385504 15.0462 0.393571C15.1105 0.401638 15.169 0.434043 15.209 0.48378C15.249 0.533517 15.2672 0.596588 15.2599 0.659353Z" fill="#CF7D36"/>
<path d="M3.06006 12.3601C3.06006 12.2042 3.09007 12.0494 3.15009 11.8959C3.21011 11.7424 3.29764 11.6035 3.41267 11.4792C3.52771 11.3549 3.66775 11.2562 3.83281 11.1831C3.99786 11.1076 4.18542 11.0698 4.39549 11.0698C4.64307 11.0698 4.85939 11.1222 5.04445 11.227C5.22951 11.3318 5.36705 11.4682 5.45708 11.6364L4.98443 11.9581C4.94442 11.8679 4.89065 11.7972 4.82313 11.746C4.7556 11.6924 4.68308 11.6559 4.60556 11.6364C4.52803 11.6145 4.45301 11.6035 4.38048 11.6035C4.22293 11.6035 4.09289 11.6425 3.99036 11.7205C3.88783 11.7984 3.81155 11.8971 3.76153 12.0165C3.71152 12.1359 3.68651 12.2578 3.68651 12.3821C3.68651 12.5185 3.71527 12.6477 3.77279 12.7695C3.83031 12.8889 3.91158 12.9852 4.01662 13.0583C4.12165 13.1314 4.24544 13.1679 4.38799 13.1679C4.46301 13.1679 4.53929 13.157 4.61681 13.135C4.69434 13.1107 4.76561 13.0717 4.83063 13.0181C4.89815 12.9645 4.94942 12.895 4.98443 12.8097L5.48709 13.0985C5.43457 13.2276 5.3483 13.3373 5.22826 13.4275C5.10822 13.5152 4.97192 13.5834 4.81938 13.6322C4.66933 13.6785 4.52053 13.7016 4.37298 13.7016C4.18042 13.7016 4.00411 13.6638 3.84406 13.5883C3.68401 13.5103 3.54521 13.408 3.42768 13.2813C3.31014 13.1521 3.21886 13.0083 3.15384 12.8499C3.09132 12.6891 3.06006 12.5258 3.06006 12.3601Z" fill="#FAF4F4"/>
<path d="M8.31354 11.0844V13.6797H7.69834V12.616H6.63675V13.6797H6.02155V11.0844H6.63675V12.0896H7.69834V11.0844H8.31354Z" fill="#FAF4F4"/>
<path d="M10.1932 13.7016C9.98059 13.7016 9.79928 13.6675 9.64923 13.5993C9.49918 13.5286 9.37664 13.4336 9.28161 13.3141C9.18908 13.1923 9.12031 13.0546 9.0753 12.9011C9.03278 12.7451 9.01153 12.5819 9.01153 12.4113V11.0844H9.62673V12.4113C9.62673 12.5429 9.64423 12.666 9.67924 12.7805C9.71675 12.895 9.77677 12.9888 9.8593 13.0619C9.94183 13.1326 10.0531 13.1679 10.1932 13.1679C10.3357 13.1679 10.4482 13.1314 10.5308 13.0583C10.6133 12.9852 10.6721 12.8914 10.7071 12.7768C10.7421 12.6623 10.7596 12.5405 10.7596 12.4113V11.0844H11.3748V12.4113C11.3748 12.6501 11.3335 12.867 11.251 13.0619C11.1685 13.2569 11.0397 13.4128 10.8646 13.5298C10.6921 13.6443 10.4682 13.7016 10.1932 13.7016Z" fill="#FAF4F4"/>
<path d="M14.1772 13.6797V12.1335L13.6033 13.2593H13.2657L12.6917 12.1335V13.6797H12.0765V11.0844H12.7442L13.4345 12.4405L14.1284 11.0844H14.7924V13.6797H14.1772Z" fill="#FAF4F4"/>
<path d="M16.4444 11.6426C15.3442 11.7211 14.1957 12.0573 13.1215 12.3036C12.1524 12.5257 11.1934 12.7854 10.2445 13.0827C10.0543 13.1422 9.85138 13.168 9.65636 13.2097C9.27978 13.2901 8.57929 13.3859 8.492 13.833C8.37729 14.4202 9.22544 14.8432 9.68329 15.0046C10.8909 15.4334 12.24 15.0965 13.4587 14.8914C13.5902 14.8694 13.7246 14.8472 13.8562 14.868C14.1031 14.9069 14.2409 15.1651 14.4292 15.3085C14.6731 15.4941 14.9351 15.6559 15.2115 15.7915C15.7643 16.0633 16.3636 16.2342 16.9797 16.2957C18.2659 16.4234 19.3603 15.933 20.3778 15.2057" fill="#DAA586"/>
<path d="M14.8788 15.359C15.6917 15.9189 16.6641 16.2166 17.6596 16.2103C18.6424 16.2017 19.5566 15.8239 20.356 15.2484C20.3659 15.2395 20.3777 15.2327 20.3905 15.2285C20.4033 15.2243 20.4169 15.2228 20.4303 15.2241C20.4438 15.2253 20.4568 15.2293 20.4686 15.2358C20.4803 15.2423 20.4906 15.2511 20.4986 15.2617C20.5066 15.2723 20.5122 15.2845 20.5151 15.2973C20.518 15.3102 20.5181 15.3235 20.5153 15.3364C20.5126 15.3493 20.5071 15.3615 20.4992 15.3722C20.4913 15.3829 20.4812 15.3918 20.4695 15.3984C19.6473 15.9908 18.6946 16.3875 17.6613 16.3969C16.6252 16.4037 15.6131 16.0938 14.7672 15.5109C14.7553 15.5045 14.7449 15.4958 14.7367 15.4852C14.7286 15.4747 14.7228 15.4626 14.7197 15.4497C14.7167 15.4368 14.7165 15.4234 14.7191 15.4105C14.7218 15.3975 14.7272 15.3852 14.735 15.3745C14.7429 15.3637 14.753 15.3546 14.7647 15.3479C14.7764 15.3412 14.7894 15.337 14.8029 15.3356C14.8164 15.3341 14.83 15.3354 14.8429 15.3395C14.8558 15.3435 14.8677 15.3502 14.8778 15.359H14.8788Z" fill="white"/>
<path d="M16.886 11.7426C15.7952 11.8846 14.4834 12.196 13.4088 12.458C13.3961 12.4625 13.3826 12.4643 13.3692 12.4634C13.3558 12.4625 13.3427 12.4588 13.3308 12.4526C13.3189 12.4465 13.3085 12.438 13.3002 12.4276C13.2919 12.4173 13.2859 12.4054 13.2827 12.3926C13.2794 12.3799 13.2789 12.3666 13.2812 12.3537C13.2836 12.3408 13.2886 12.3285 13.2961 12.3176C13.3037 12.3067 13.3134 12.2975 13.3248 12.2905C13.3363 12.2835 13.349 12.279 13.3624 12.2771C14.4385 12.0149 15.7543 11.7019 16.8607 11.558C16.8739 11.5548 16.8877 11.5543 16.901 11.5566C16.9144 11.559 16.9272 11.564 16.9384 11.5715C16.9496 11.579 16.9591 11.5887 16.9662 11.6C16.9733 11.6113 16.9778 11.624 16.9795 11.6371C16.9812 11.6502 16.9801 11.6636 16.9761 11.6763C16.9721 11.6889 16.9655 11.7006 16.9565 11.7106C16.9475 11.7206 16.9365 11.7286 16.9242 11.7341C16.9118 11.7396 16.8984 11.7425 16.8848 11.7426H16.886Z" fill="white"/>
<path d="M12.9753 12.8275L13.0352 13.1555C13.039 13.1681 13.04 13.1814 13.0382 13.1944C13.0364 13.2075 13.0318 13.22 13.0246 13.2312C13.0175 13.2424 13.0081 13.252 12.9969 13.2594C12.9857 13.2668 12.973 13.2718 12.9597 13.2741C12.9464 13.2764 12.9328 13.2759 12.9196 13.2728C12.9065 13.2696 12.8942 13.2637 12.8836 13.2556C12.873 13.2475 12.8642 13.2373 12.8579 13.2256C12.8516 13.214 12.8478 13.2012 12.8469 13.1881L12.7871 12.8612C12.7833 12.8486 12.7823 12.8353 12.7841 12.8223C12.7859 12.8092 12.7905 12.7967 12.7976 12.7856C12.8047 12.7744 12.8142 12.7648 12.8254 12.7574C12.8365 12.75 12.8492 12.745 12.8625 12.7427C12.8757 12.7404 12.8894 12.7408 12.9025 12.744C12.9156 12.7471 12.9279 12.7529 12.9385 12.761C12.9492 12.7691 12.9579 12.7793 12.9643 12.7909C12.9706 12.8025 12.9744 12.8153 12.9753 12.8284V12.8275Z" fill="white"/>
<path d="M12.6491 12.941C12.6779 13.1192 12.7342 13.2922 12.816 13.4541C12.8233 13.4652 12.8281 13.4777 12.8301 13.4907C12.8321 13.5038 12.8312 13.5171 12.8276 13.5298C12.824 13.5425 12.8176 13.5543 12.809 13.5644C12.8004 13.5746 12.7897 13.5828 12.7775 13.5887C12.7654 13.5945 12.7521 13.5978 12.7386 13.5983C12.7251 13.5988 12.7117 13.5965 12.6991 13.5916C12.6866 13.5867 12.6752 13.5792 12.6658 13.5698C12.6564 13.5603 12.6492 13.549 12.6445 13.5366C12.5541 13.358 12.4919 13.167 12.4601 12.9703C12.4588 12.9471 12.4664 12.9243 12.4814 12.9063C12.4964 12.8883 12.5177 12.8763 12.5412 12.8727C12.5647 12.8691 12.5887 12.8741 12.6086 12.8868C12.6286 12.8994 12.643 12.9188 12.6491 12.9412V12.941Z" fill="white"/>
<path d="M9.30077 13.41C9.18606 13.4444 9.06294 13.4885 8.99512 13.5869C8.84314 13.8081 8.96073 14.1038 9.1572 14.2116C9.36906 14.3288 9.67374 14.3522 9.95077 14.3288C10.1797 14.3089 10.5741 14.2976 10.671 14.0359C10.6869 13.9875 10.695 13.9371 10.695 13.8864C10.6996 13.7352 10.658 13.0974 10.4007 13.1457C10.1035 13.201 9.57803 13.327 9.30077 13.41Z" fill="#FAF4F4"/>
<path d="M24.3927 19.3037L24.3783 19.3271C24.1962 19.6336 24.1599 19.9029 24.3763 20.1845C24.8515 20.8031 25.5871 21.2006 26.216 21.6502C26.8099 22.075 27.4029 22.5013 27.9861 22.939C28.2747 23.1569 28.5755 23.3697 28.8499 23.6054C28.9855 23.7226 29.1928 24.0194 29.3948 23.9993C29.4717 23.9916 29.5338 23.9337 29.5888 23.8791C31.2325 22.2512 32.7674 20.4988 34.2692 18.7474C34.7561 18.1792 35.2378 17.6049 35.7007 17.0179C36.0566 16.5666 36.1602 16.2974 35.6483 15.9892C34.6029 15.3603 33.5357 14.7658 32.4591 14.1873C31.9209 13.8981 31.3818 13.6104 30.8386 13.3297C30.2054 13.0016 29.9221 12.8362 29.3284 13.3728C28.8653 13.7913 28.4966 14.2895 28.0703 14.7405C26.7344 16.1549 25.3878 17.6382 24.3927 19.3037Z" fill="#CF7D36"/>
</svg>
