<svg width="12" height="14" viewBox="0 0 12 14" fill="none" xmlns="http://www.w3.org/2000/svg">
<path d="M8.08854 6.66358C8.08854 5.51115 7.18439 4.52441 6.00494 4.52441C4.82583 4.52441 3.92188 5.51135 3.92188 6.66358C3.92188 7.81546 4.82603 8.80219 6.00494 8.80219C7.1842 8.80219 8.08854 7.81566 8.08854 6.66358Z" stroke="#A4101B" stroke-width="1.5" stroke-linecap="round" stroke-linejoin="round"/>
<path d="M1.25 6.60135C1.25 8.28753 1.93951 9.88648 2.82092 11.0582C3.26395 11.6471 3.77181 12.1504 4.29643 12.5128C4.80873 12.8667 5.40119 13.1299 5.99974 13.1299C6.59836 13.1299 7.19091 12.8668 7.7033 12.5128C8.22801 12.1504 8.73592 11.6471 9.179 11.0582C10.0605 9.88649 10.75 8.28753 10.75 6.60135C10.75 3.8945 8.66079 1.62988 5.99974 1.62988C3.33857 1.62988 1.25 3.89463 1.25 6.60135Z" stroke="#A4101B" stroke-width="1.5" stroke-linecap="round" stroke-linejoin="round"/>
</svg>
