<svg width="21" height="21" viewBox="0 0 21 21" fill="none" xmlns="http://www.w3.org/2000/svg">
<path fill-rule="evenodd" clip-rule="evenodd" d="M2.23431 1.63284C2.63885 1.22994 3.29342 1.23126 3.69632 1.6358L20.2707 18.2774C20.6736 18.682 20.6723 19.3365 20.2677 19.7394C19.8632 20.1423 19.2086 20.141 18.8057 19.7365L2.23135 3.09485C1.82845 2.69031 1.82977 2.03575 2.23431 1.63284Z" fill="#321313"/>
<path fill-rule="evenodd" clip-rule="evenodd" d="M19.2534 1.53565C19.6687 1.92748 19.6877 2.58177 19.2959 2.99704L3.19949 20.0567C2.80766 20.472 2.15337 20.491 1.73809 20.0992C1.32282 19.7074 1.30381 19.0531 1.69564 18.6378L17.7921 1.57811C18.1839 1.16283 18.8382 1.14382 19.2534 1.53565Z" fill="#321313"/>
</svg>
